<svg width="16" height="16" viewBox="0 0 16 16" fill="none" xmlns="http://www.w3.org/2000/svg">
<path d="M2.66683 8C2.66683 5.06 5.06016 2.66667 8.00016 2.66667C10.9402 2.66667 13.3335 5.06 13.3335 8C13.3335 10.94 10.9402 13.3333 8.00016 13.3333C5.06016 13.3333 2.66683 10.94 2.66683 8ZM1.3335 8C1.3335 11.68 4.32016 14.6667 8.00016 14.6667C11.6802 14.6667 14.6668 11.68 14.6668 8C14.6668 4.32 11.6802 1.33334 8.00016 1.33334C4.32016 1.33334 1.3335 4.32 1.3335 8ZM8.00016 7.33334H6.00016C5.6335 7.33334 5.3335 7.63334 5.3335 8C5.3335 8.36667 5.6335 8.66667 6.00016 8.66667H8.00016V9.86C8.00016 10.16 8.36016 10.3067 8.56683 10.0933L10.4268 8.23334C10.5602 8.1 10.5602 7.89334 10.4268 7.76L8.56683 5.9C8.36016 5.69334 8.00016 5.84 8.00016 6.13334V7.33334Z" fill="white"/>
</svg>
