<svg width="107" height="107" viewBox="0 0 107 107" fill="none" xmlns="http://www.w3.org/2000/svg">
<path opacity="0.08" d="M53.499 106.998C83.0457 106.998 106.998 83.0457 106.998 53.499C106.998 23.9523 83.0457 0 53.499 0C23.9523 0 0 23.9523 0 53.499C0 83.0457 23.9523 106.998 53.499 106.998Z" fill="#757575"/>
<path opacity="0.08" d="M53.4992 93.4103C75.5416 93.4103 93.4105 75.5414 93.4105 53.499C93.4105 31.4566 75.5416 13.5877 53.4992 13.5877C31.4568 13.5877 13.5879 31.4566 13.5879 53.499C13.5879 75.5414 31.4568 93.4103 53.4992 93.4103Z" fill="#757575"/>
<path opacity="0.08" d="M53.4986 82.277C69.3923 82.277 82.2766 69.3927 82.2766 53.499C82.2766 37.6054 69.3923 24.7211 53.4986 24.7211C37.605 24.7211 24.7207 37.6054 24.7207 53.499C24.7207 69.3927 37.605 82.277 53.4986 82.277Z" fill="#757575"/>
<path d="M82.2438 78.9192H26.193L20.0352 84.8784V39.9056C20.0352 38.5304 21.1506 37.4149 22.5258 37.4149H82.2438C83.619 37.4149 84.7344 38.5304 84.7344 39.9056V76.4286C84.7325 77.8038 83.619 78.9192 82.2438 78.9192Z" fill="#E6E6E6"/>
<path d="M40.4754 34.5289C44.2126 32.3707 45.4605 27.5361 43.2628 23.7304C41.0651 19.9247 36.2539 18.5891 32.5168 20.7472C28.7796 22.9054 27.5316 27.74 29.7293 31.5457C31.927 35.3514 36.7382 36.687 40.4754 34.5289Z" fill="#18A87C"/>
<path d="M80.0017 76.144H23.9528L17.7949 82.1032V37.1304C17.7949 35.7552 18.9104 34.6397 20.2856 34.6397H80.0017C81.3769 34.6397 82.4923 35.7552 82.4923 37.1304V73.6533C82.4923 75.0285 81.3769 76.144 80.0017 76.144Z" fill="#18A87C"/>
<path d="M85.3896 73.7106H25.1349C23.5133 73.7106 22.1992 72.3966 22.1992 70.775V34.7715C22.1992 33.1499 23.5133 31.8358 25.1349 31.8358H85.3896C87.0112 31.8358 88.3253 33.1499 88.3253 34.7715V70.775C88.3253 72.3966 87.0112 73.7106 85.3896 73.7106Z" fill="#E6E6E6"/>
<path d="M84.4599 72.3144H24.2052C22.5836 72.3144 21.2695 71.0004 21.2695 69.3788V33.3753C21.2695 31.7537 22.5836 30.4396 24.2052 30.4396H84.4599C86.0815 30.4396 87.3956 31.7537 87.3956 33.3753V69.3788C87.3956 71.0004 86.0815 72.3144 84.4599 72.3144Z" fill="#1DC895"/>
<path d="M27.8674 19.7398C28.4136 20.6872 28.0889 21.8981 27.1416 22.4463C26.1942 22.9926 24.9833 22.6679 24.4351 21.7205C23.8888 20.7731 24.2135 19.5622 25.1609 19.014C26.1083 18.4678 27.3192 18.7925 27.8674 19.7398Z" fill="#18A87C"/>
<path d="M21.0743 21.2755C21.3475 21.7491 21.1851 22.3546 20.7114 22.6277C20.2378 22.9009 19.6323 22.7385 19.3592 22.2648C19.086 21.7912 19.2484 21.1857 19.7221 20.9126C20.1957 20.6394 20.7993 20.8018 21.0743 21.2755Z" fill="#18A87C"/>
<path d="M23.8575 14.6783C24.1307 15.152 23.9683 15.7575 23.4946 16.0306C23.021 16.3037 22.4155 16.1414 22.1424 15.6677C21.8692 15.194 22.0316 14.5886 22.5053 14.3154C22.9789 14.0423 23.5844 14.2047 23.8575 14.6783Z" fill="#18A87C"/>
<path d="M90.0431 83.3389C90.3162 83.8126 90.1539 84.4181 89.6802 84.6912C89.2065 84.9643 88.601 84.802 88.3279 84.3283C88.0548 83.8546 88.2171 83.2492 88.6908 82.976C89.1645 82.7029 89.77 82.8653 90.0431 83.3389Z" fill="#18A87C"/>
<path d="M94.7032 80.2123C94.9764 80.686 94.814 81.2914 94.3403 81.5646C93.8667 81.8377 93.2612 81.6753 92.9881 81.2017C92.7149 80.728 92.8773 80.1225 93.351 79.8494C93.8246 79.5763 94.4301 79.7386 94.7032 80.2123Z" fill="#18A87C"/>
<path d="M90.1088 76.22C90.3945 75.1641 89.7701 74.0764 88.7142 73.7907C87.6583 73.505 86.5707 74.1294 86.2849 75.1853C85.9992 76.2412 86.6236 77.3289 87.6795 77.6146C88.7354 77.9003 89.8231 77.2759 90.1088 76.22Z" fill="#18A87C"/>
<path d="M94.3763 66.6509C94.7547 64.0261 92.9336 61.5914 90.3087 61.213C87.6838 60.8345 85.2492 62.6556 84.8708 65.2805C84.4923 67.9054 86.3134 70.34 88.9383 70.7185C91.5632 71.0969 93.9978 69.2758 94.3763 66.6509Z" fill="#18A87C"/>
<path d="M67.6398 69H40.5293V70.5719H67.6398V69Z" fill="#F2F2F2"/>
<path d="M85.1176 79.3076C85.8692 76.7423 84.399 74.0533 81.8337 73.3017C79.2684 72.55 76.5794 74.0203 75.8278 76.5856C75.0761 79.1509 76.5464 81.8398 79.1117 82.5915C81.677 83.3431 84.3659 81.8729 85.1176 79.3076Z" fill="#FBCD05"/>
<path d="M51.4432 50.7708C51.4408 53.2458 50.4968 55.6269 48.8031 57.4297C47.1095 59.2325 44.7935 60.3217 42.3262 60.4756C39.8589 60.6296 37.4258 59.8367 35.5217 58.2583C33.6176 56.6799 32.3856 54.4346 32.0763 51.9791C31.7402 49.0846 32.5136 46.5094 34.4174 44.3319C35.3128 43.2667 36.4343 42.4149 37.7003 41.8388C38.9662 41.2627 40.3446 40.9766 41.7349 41.0015C43.0137 41.0027 44.2796 41.2566 45.4601 41.7487C46.6407 42.2407 47.7126 42.9611 48.6145 43.8687C49.5164 44.7762 50.2305 45.8531 50.7159 47.0375C51.2013 48.2219 51.4485 49.4906 51.4432 50.7708Z" fill="white"/>
<path d="M43.0892 54.4128H40.5132C40.2038 54.4128 40.0911 54.3134 40.0931 54.0037C40.1045 52.6655 40.032 51.3272 40.1313 49.9889C40.2039 49.1421 40.5292 48.3368 41.065 47.6775C41.4161 47.2131 41.7989 46.7736 42.2108 46.3622C42.2768 46.3027 42.329 46.2294 42.3636 46.1475C42.3983 46.0655 42.4146 45.977 42.4113 45.8881C42.4113 45.6606 42.4304 45.4293 42.4246 45.2017C42.4064 45.0719 42.4313 44.9396 42.4955 44.8253C42.5596 44.7109 42.6595 44.6209 42.7798 44.5689C42.9106 44.5131 43.0552 44.4983 43.1946 44.5262C43.334 44.5542 43.4617 44.6237 43.5608 44.7257C43.7612 44.937 43.8942 45.2032 43.9428 45.4904C44.0957 46.1902 44.0054 46.9214 43.6869 47.5628C43.5876 47.7846 43.4959 48.0121 43.3852 48.2281C43.3126 48.3696 43.368 48.4193 43.494 48.4404C43.5608 48.4452 43.6278 48.4452 43.6945 48.4404H46.0013C46.1793 48.4251 46.357 48.4727 46.5036 48.5751C46.6501 48.6774 46.7562 48.828 46.8033 49.0005C46.8618 49.1924 46.8562 49.3982 46.7873 49.5866C46.7184 49.775 46.5899 49.9357 46.4214 50.0444C46.2705 50.1266 46.2744 50.161 46.408 50.2527C46.6887 50.4439 46.8759 50.702 46.8186 51.0748C46.8101 51.2062 46.7613 51.3317 46.6789 51.4344C46.5966 51.537 46.4847 51.6117 46.3584 51.6484C46.3049 51.6656 46.2247 51.6598 46.2152 51.7287C46.2056 51.7975 46.2877 51.8128 46.3316 51.8453C46.7002 52.1206 46.7498 52.8566 46.2075 53.0803C46.1044 53.1243 46.0567 53.1491 46.1674 53.2562C46.2713 53.3586 46.3399 53.4914 46.3633 53.6355C46.3866 53.7795 46.3635 53.9272 46.2973 54.0572C46.1884 54.3287 45.9459 54.4128 45.6633 54.4109C44.8059 54.4109 43.9447 54.4109 43.0911 54.4109L43.0892 54.4128Z" fill="#18A97D"/>
<path d="M39.0557 55.1795H36.9303C36.8876 55.1835 36.8445 55.1785 36.8039 55.1647C36.7633 55.1509 36.7261 55.1286 36.6947 55.0993C36.6633 55.0701 36.6385 55.0345 36.6218 54.9949C36.6051 54.9554 36.5971 54.9127 36.5981 54.8698C36.5923 54.7666 36.5923 54.6632 36.5981 54.5601C36.5981 53.0752 36.5981 51.5885 36.5981 50.0998C36.5981 49.7346 36.6916 49.6448 37.0602 49.6448C37.6961 49.6448 38.332 49.6448 38.9698 49.6448C39.2256 49.6448 39.3517 49.7576 39.3517 50.0004C39.3517 51.5604 39.3517 53.1205 39.3517 54.6805C39.3517 54.6805 39.3517 54.6939 39.3517 54.7015C39.3116 54.7149 39.3173 54.7283 39.3517 54.7436C39.365 54.9118 39.3517 55.0724 39.1607 55.1432C39.1607 55.0973 39.1397 55.0457 39.0843 55.0629C39.029 55.0801 39.0652 55.1489 39.0557 55.1795Z" fill="#18A97D"/>
<path d="M74.9999 50.7708C74.9975 53.2458 74.0534 55.6269 72.3598 57.4297C70.6661 59.2325 68.3501 60.3217 65.8828 60.4756C63.4156 60.6296 60.9824 59.8367 59.0783 58.2583C57.1742 56.6799 55.9422 54.4346 55.6329 51.9791C55.2968 49.0846 56.0702 46.5094 57.9741 44.3319C58.8695 43.2667 59.991 42.4149 61.2569 41.8388C62.5228 41.2627 63.9012 40.9766 65.2916 41.0015C66.5703 41.0027 67.8362 41.2566 69.0168 41.7487C70.1973 42.2407 71.2693 42.9611 72.1712 43.8687C73.0731 44.7762 73.7872 45.8531 74.2726 47.0375C74.758 48.2219 75.0051 49.4906 74.9999 50.7708Z" fill="white"/>
<path d="M63.905 45.2805L66.481 45.2805C66.7903 45.2805 66.903 45.3799 66.9011 45.6896C66.8896 47.0279 66.9622 48.3661 66.8629 49.7044C66.7903 50.5512 66.4649 51.3565 65.9291 52.0158C65.5781 52.4802 65.1952 52.9197 64.7834 53.3311C64.7173 53.3906 64.6651 53.4639 64.6305 53.5459C64.5959 53.6278 64.5796 53.7163 64.5829 53.8052C64.5829 54.0327 64.5638 54.2641 64.5695 54.4916C64.5877 54.6214 64.5629 54.7537 64.4987 54.868C64.4345 54.9824 64.3346 55.0724 64.2143 55.1244C64.0835 55.1802 63.9389 55.1951 63.7995 55.1671C63.6602 55.1391 63.5325 55.0696 63.4333 54.9676C63.2329 54.7563 63.1 54.4901 63.0514 54.2029C62.8984 53.5031 62.9887 52.7719 63.3073 52.1305C63.4066 51.9087 63.4982 51.6812 63.609 51.4652C63.6815 51.3237 63.6262 51.274 63.5001 51.253C63.4334 51.2482 63.3664 51.2482 63.2996 51.253L60.9929 51.253C60.8148 51.2682 60.6371 51.2206 60.4906 51.1182C60.344 51.0159 60.238 50.8653 60.1908 50.6928C60.1323 50.5009 60.1379 50.2951 60.2069 50.1067C60.2758 49.9183 60.4043 49.7576 60.5727 49.649C60.7236 49.5667 60.7198 49.5323 60.5861 49.4406C60.3054 49.2494 60.1183 48.9913 60.1756 48.6185C60.1841 48.4871 60.2328 48.3616 60.3152 48.259C60.3975 48.1563 60.5095 48.0816 60.6358 48.0449C60.6892 48.0277 60.7694 48.0335 60.779 47.9646C60.7885 47.8958 60.7064 47.8805 60.6625 47.848C60.2939 47.5727 60.2443 46.8367 60.7866 46.613C60.8897 46.569 60.9375 46.5442 60.8267 46.4371C60.7228 46.3348 60.6542 46.2019 60.6309 46.0579C60.6075 45.9138 60.6306 45.7661 60.6969 45.6361C60.8057 45.3646 61.0482 45.2805 61.3308 45.2824C62.1882 45.2824 63.0495 45.2824 63.903 45.2824L63.905 45.2805Z" fill="#EF3F28"/>
<path d="M67.9385 44.5138L70.0638 44.5138C70.1065 44.5098 70.1496 44.5148 70.1902 44.5286C70.2308 44.5424 70.268 44.5647 70.2994 44.594C70.3308 44.6232 70.3557 44.6588 70.3723 44.6984C70.389 44.738 70.3971 44.7806 70.3961 44.8235C70.4018 44.9267 70.4018 45.0301 70.3961 45.1333C70.3961 46.6181 70.3961 48.1049 70.3961 49.5935C70.3961 49.9587 70.3025 50.0485 69.934 50.0485C69.2981 50.0485 68.6622 50.0485 68.0244 50.0485C67.7685 50.0485 67.6425 49.9357 67.6425 49.6929C67.6425 48.1329 67.6425 46.5729 67.6425 45.0128C67.6425 45.0128 67.6425 44.9994 67.6425 44.9918C67.6826 44.9784 67.6768 44.965 67.6425 44.9497C67.6291 44.7815 67.6425 44.6209 67.8334 44.5502C67.8334 44.596 67.8544 44.6477 67.9098 44.6305C67.9652 44.6132 67.9289 44.5444 67.9385 44.5138Z" fill="#EF3F28"/>
</svg>
