<svg width="107" height="107" viewBox="0 0 107 107" fill="none" xmlns="http://www.w3.org/2000/svg">
<path opacity="0.08" d="M53.499 106.998C83.0457 106.998 106.998 83.0457 106.998 53.499C106.998 23.9523 83.0457 0 53.499 0C23.9523 0 0 23.9523 0 53.499C0 83.0457 23.9523 106.998 53.499 106.998Z" fill="#757575"/>
<path opacity="0.08" d="M53.4992 93.4103C75.5416 93.4103 93.4105 75.5414 93.4105 53.499C93.4105 31.4566 75.5416 13.5877 53.4992 13.5877C31.4568 13.5877 13.5879 31.4566 13.5879 53.499C13.5879 75.5414 31.4568 93.4103 53.4992 93.4103Z" fill="#757575"/>
<path opacity="0.08" d="M53.4986 82.277C69.3923 82.277 82.2766 69.3927 82.2766 53.499C82.2766 37.6054 69.3923 24.7211 53.4986 24.7211C37.605 24.7211 24.7207 37.6054 24.7207 53.499C24.7207 69.3927 37.605 82.277 53.4986 82.277Z" fill="#757575"/>
<path d="M82.2438 78.9192H26.193L20.0352 84.8784V39.9056C20.0352 38.5304 21.1506 37.4149 22.5258 37.4149H82.2438C83.619 37.4149 84.7344 38.5304 84.7344 39.9056V76.4286C84.7325 77.8038 83.619 78.9192 82.2438 78.9192Z" fill="#E6E6E6"/>
<path d="M40.4754 34.5289C44.2126 32.3707 45.4605 27.5361 43.2628 23.7304C41.0651 19.9247 36.2539 18.5891 32.5168 20.7472C28.7796 22.9054 27.5316 27.74 29.7293 31.5457C31.927 35.3514 36.7382 36.687 40.4754 34.5289Z" fill="#18A87C"/>
<path d="M80.0017 76.144H23.9528L17.7949 82.1032V37.1304C17.7949 35.7552 18.9104 34.6397 20.2856 34.6397H80.0017C81.3769 34.6397 82.4923 35.7552 82.4923 37.1304V73.6533C82.4923 75.0285 81.3769 76.144 80.0017 76.144Z" fill="#18A87C"/>
<path d="M85.3896 73.7106H25.1349C23.5133 73.7106 22.1992 72.3966 22.1992 70.775V34.7715C22.1992 33.1499 23.5133 31.8358 25.1349 31.8358H85.3896C87.0112 31.8358 88.3253 33.1499 88.3253 34.7715V70.775C88.3253 72.3966 87.0112 73.7106 85.3896 73.7106Z" fill="#E6E6E6"/>
<path d="M84.4599 72.3144H24.2052C22.5836 72.3144 21.2695 71.0004 21.2695 69.3788V33.3753C21.2695 31.7537 22.5836 30.4396 24.2052 30.4396H84.4599C86.0815 30.4396 87.3956 31.7537 87.3956 33.3753V69.3788C87.3956 71.0004 86.0815 72.3144 84.4599 72.3144Z" fill="#1DC895"/>
<path d="M27.8674 19.7398C28.4136 20.6872 28.0889 21.8981 27.1416 22.4463C26.1942 22.9926 24.9833 22.6679 24.4351 21.7205C23.8888 20.7731 24.2135 19.5622 25.1609 19.014C26.1083 18.4678 27.3192 18.7925 27.8674 19.7398Z" fill="#18A87C"/>
<path d="M21.0743 21.2755C21.3475 21.7491 21.1851 22.3546 20.7114 22.6277C20.2378 22.9009 19.6323 22.7385 19.3592 22.2648C19.086 21.7912 19.2484 21.1857 19.7221 20.9126C20.1957 20.6394 20.7993 20.8018 21.0743 21.2755Z" fill="#18A87C"/>
<path d="M23.8575 14.6783C24.1307 15.152 23.9683 15.7575 23.4946 16.0306C23.021 16.3037 22.4155 16.1414 22.1424 15.6677C21.8692 15.194 22.0316 14.5886 22.5053 14.3154C22.9789 14.0423 23.5844 14.2047 23.8575 14.6783Z" fill="#18A87C"/>
<path d="M90.0431 83.3389C90.3162 83.8126 90.1539 84.4181 89.6802 84.6912C89.2065 84.9643 88.601 84.802 88.3279 84.3283C88.0548 83.8546 88.2171 83.2492 88.6908 82.976C89.1645 82.7029 89.77 82.8653 90.0431 83.3389Z" fill="#18A87C"/>
<path d="M94.7032 80.2123C94.9764 80.686 94.814 81.2914 94.3403 81.5646C93.8667 81.8377 93.2612 81.6753 92.9881 81.2017C92.7149 80.728 92.8773 80.1225 93.351 79.8494C93.8246 79.5763 94.4301 79.7386 94.7032 80.2123Z" fill="#18A87C"/>
<path d="M90.1088 76.22C90.3945 75.1641 89.7701 74.0764 88.7142 73.7907C87.6583 73.505 86.5707 74.1294 86.2849 75.1853C85.9992 76.2412 86.6236 77.3289 87.6795 77.6146C88.7354 77.9003 89.8231 77.2759 90.1088 76.22Z" fill="#18A87C"/>
<path d="M94.3763 66.6509C94.7547 64.0261 92.9336 61.5914 90.3087 61.213C87.6838 60.8345 85.2492 62.6556 84.8708 65.2805C84.4923 67.9054 86.3134 70.34 88.9383 70.7185C91.5632 71.0969 93.9978 69.2758 94.3763 66.6509Z" fill="#18A87C"/>
<path d="M67.6398 69H40.5293V70.5719H67.6398V69Z" fill="#F2F2F2"/>
<path d="M85.1176 79.3076C85.8692 76.7423 84.399 74.0533 81.8337 73.3017C79.2684 72.55 76.5794 74.0203 75.8278 76.5856C75.0761 79.1509 76.5464 81.8398 79.1117 82.5915C81.677 83.3431 84.3659 81.8729 85.1176 79.3076Z" fill="#FBCD05"/>
<rect x="30" y="46" width="49" height="10" rx="2" fill="white"/>
<rect x="30" y="57" width="49" height="10" rx="2" fill="white"/>
<rect x="30" y="35" width="49" height="10" rx="2" fill="white"/>
<path fill-rule="evenodd" clip-rule="evenodd" d="M35.866 50.2167L37.5393 50.3433L36.546 50.76C35.856 51.1 34.646 51.7367 34.0527 52.1267L33.8093 51.0333L33.4593 51.03L33.266 51.7467L33.176 51.67L33.1127 51.6167L31.666 50.3933L34.056 50.2167L34.9593 48L35.866 50.2167Z" fill="#FBCD05"/>
<path fill-rule="evenodd" clip-rule="evenodd" d="M36.956 54.2067L36.4827 52.9333L36.6293 52.8233L35.666 52.4367L35.7427 53.47L35.8893 53.3633L36.956 54.2067Z" fill="#FBCD05"/>
<path fill-rule="evenodd" clip-rule="evenodd" d="M32.9395 54.2033C33.1695 53.2633 33.3995 52.3233 33.6295 51.38L33.8661 52.5733C35.1095 51.7 36.9028 50.7933 38.3328 50.3533C36.1928 51.57 34.3661 52.89 32.9395 54.2033Z" fill="#FBCD05"/>
<path fill-rule="evenodd" clip-rule="evenodd" d="M45.866 50.2167L47.5393 50.3433L46.546 50.76C45.856 51.1 44.646 51.7367 44.0527 52.1267L43.8093 51.0333L43.4593 51.03L43.266 51.7467L43.176 51.67L43.1127 51.6167L41.666 50.3933L44.056 50.2167L44.9593 48L45.866 50.2167Z" fill="#FBCD05"/>
<path fill-rule="evenodd" clip-rule="evenodd" d="M46.956 54.2067L46.4827 52.9333L46.6293 52.8233L45.666 52.4367L45.7427 53.47L45.8893 53.3633L46.956 54.2067Z" fill="#FBCD05"/>
<path fill-rule="evenodd" clip-rule="evenodd" d="M42.9395 54.2033C43.1695 53.2633 43.3995 52.3233 43.6295 51.38L43.8661 52.5733C45.1095 51.7 46.9028 50.7933 48.3328 50.3533C46.1928 51.57 44.3661 52.89 42.9395 54.2033Z" fill="#FBCD05"/>
<path fill-rule="evenodd" clip-rule="evenodd" d="M55.866 50.2167L57.5393 50.3433L56.546 50.76C55.856 51.1 54.646 51.7367 54.0527 52.1267L53.8093 51.0333L53.4593 51.03L53.266 51.7467L53.176 51.67L53.1127 51.6167L51.666 50.3933L54.056 50.2167L54.9593 48L55.866 50.2167Z" fill="#FBCD05"/>
<path fill-rule="evenodd" clip-rule="evenodd" d="M56.956 54.2067L56.4827 52.9333L56.6293 52.8233L55.666 52.4367L55.7427 53.47L55.8893 53.3633L56.956 54.2067Z" fill="#FBCD05"/>
<path fill-rule="evenodd" clip-rule="evenodd" d="M52.9395 54.2033C53.1695 53.2633 53.3995 52.3233 53.6295 51.38L53.8661 52.5733C55.1095 51.7 56.9028 50.7933 58.3328 50.3533C56.1928 51.57 54.3661 52.89 52.9395 54.2033Z" fill="#FBCD05"/>
<path fill-rule="evenodd" clip-rule="evenodd" d="M65.866 50.2167L67.5393 50.3433L66.546 50.76C65.856 51.1 64.646 51.7367 64.0527 52.1267L63.8093 51.0333L63.4593 51.03L63.266 51.7467L63.176 51.67L63.1127 51.6167L61.666 50.3933L64.056 50.2167L64.9593 48L65.866 50.2167Z" fill="#757575"/>
<path fill-rule="evenodd" clip-rule="evenodd" d="M66.956 54.2067L66.4827 52.9333L66.6293 52.8233L65.666 52.4367L65.7427 53.47L65.8893 53.3633L66.956 54.2067Z" fill="#757575"/>
<path fill-rule="evenodd" clip-rule="evenodd" d="M62.9395 54.2033C63.1695 53.2633 63.3995 52.3233 63.6295 51.38L63.8661 52.5733C65.1095 51.7 66.9028 50.7933 68.3328 50.3533C66.1928 51.57 64.3661 52.89 62.9395 54.2033Z" fill="#757575"/>
<path fill-rule="evenodd" clip-rule="evenodd" d="M75.866 50.2167L77.5393 50.3433L76.546 50.76C75.856 51.1 74.646 51.7367 74.0527 52.1267L73.8093 51.0333L73.4593 51.03L73.266 51.7467L73.176 51.67L73.1127 51.6167L71.666 50.3933L74.056 50.2167L74.9593 48L75.866 50.2167Z" fill="#757575"/>
<path fill-rule="evenodd" clip-rule="evenodd" d="M76.956 54.2067L76.4827 52.9333L76.6293 52.8233L75.666 52.4367L75.7427 53.47L75.8893 53.3633L76.956 54.2067Z" fill="#757575"/>
<path fill-rule="evenodd" clip-rule="evenodd" d="M72.9395 54.2033C73.1695 53.2633 73.3995 52.3233 73.6295 51.38L73.8661 52.5733C75.1095 51.7 76.9028 50.7933 78.3328 50.3533C76.1928 51.57 74.3661 52.89 72.9395 54.2033Z" fill="#757575"/>
<path fill-rule="evenodd" clip-rule="evenodd" d="M35.866 61.2167L37.5393 61.3433L36.546 61.76C35.856 62.1 34.646 62.7367 34.0527 63.1267L33.8093 62.0333L33.4593 62.03L33.266 62.7467L33.176 62.67L33.1127 62.6167L31.666 61.3933L34.056 61.2167L34.9593 59L35.866 61.2167Z" fill="#FBCD05"/>
<path fill-rule="evenodd" clip-rule="evenodd" d="M36.956 65.2067L36.4827 63.9333L36.6293 63.8233L35.666 63.4367L35.7427 64.47L35.8893 64.3633L36.956 65.2067Z" fill="#FBCD05"/>
<path fill-rule="evenodd" clip-rule="evenodd" d="M32.9395 65.2033C33.1695 64.2633 33.3995 63.3233 33.6295 62.38L33.8661 63.5733C35.1095 62.7 36.9028 61.7933 38.3328 61.3533C36.1928 62.57 34.3661 63.89 32.9395 65.2033Z" fill="#FBCD05"/>
<path fill-rule="evenodd" clip-rule="evenodd" d="M45.866 61.2167L47.5393 61.3433L46.546 61.76C45.856 62.1 44.646 62.7367 44.0527 63.1267L43.8093 62.0333L43.4593 62.03L43.266 62.7467L43.176 62.67L43.1127 62.6167L41.666 61.3933L44.056 61.2167L44.9593 59L45.866 61.2167Z" fill="#FBCD05"/>
<path fill-rule="evenodd" clip-rule="evenodd" d="M46.956 65.2067L46.4827 63.9333L46.6293 63.8233L45.666 63.4367L45.7427 64.47L45.8893 64.3633L46.956 65.2067Z" fill="#FBCD05"/>
<path fill-rule="evenodd" clip-rule="evenodd" d="M42.9395 65.2033C43.1695 64.2633 43.3995 63.3233 43.6295 62.38L43.8661 63.5733C45.1095 62.7 46.9028 61.7933 48.3328 61.3533C46.1928 62.57 44.3661 63.89 42.9395 65.2033Z" fill="#FBCD05"/>
<path fill-rule="evenodd" clip-rule="evenodd" d="M55.866 61.2167L57.5393 61.3433L56.546 61.76C55.856 62.1 54.646 62.7367 54.0527 63.1267L53.8093 62.0333L53.4593 62.03L53.266 62.7467L53.176 62.67L53.1127 62.6167L51.666 61.3933L54.056 61.2167L54.9593 59L55.866 61.2167Z" fill="#FBCD05"/>
<path fill-rule="evenodd" clip-rule="evenodd" d="M56.956 65.2067L56.4827 63.9333L56.6293 63.8233L55.666 63.4367L55.7427 64.47L55.8893 64.3633L56.956 65.2067Z" fill="#FBCD05"/>
<path fill-rule="evenodd" clip-rule="evenodd" d="M52.9395 65.2033C53.1695 64.2633 53.3995 63.3233 53.6295 62.38L53.8661 63.5733C55.1095 62.7 56.9028 61.7933 58.3328 61.3533C56.1928 62.57 54.3661 63.89 52.9395 65.2033Z" fill="#FBCD05"/>
<path fill-rule="evenodd" clip-rule="evenodd" d="M65.866 61.2167L67.5393 61.3433L66.546 61.76C65.856 62.1 64.646 62.7367 64.0527 63.1267L63.8093 62.0333L63.4593 62.03L63.266 62.7467L63.176 62.67L63.1127 62.6167L61.666 61.3933L64.056 61.2167L64.9593 59L65.866 61.2167Z" fill="#FBCD05"/>
<path fill-rule="evenodd" clip-rule="evenodd" d="M66.956 65.2067L66.4827 63.9333L66.6293 63.8233L65.666 63.4367L65.7427 64.47L65.8893 64.3633L66.956 65.2067Z" fill="#FBCD05"/>
<path fill-rule="evenodd" clip-rule="evenodd" d="M62.9395 65.2033C63.1695 64.2633 63.3995 63.3233 63.6295 62.38L63.8661 63.5733C65.1095 62.7 66.9028 61.7933 68.3328 61.3533C66.1928 62.57 64.3661 63.89 62.9395 65.2033Z" fill="#FBCD05"/>
<path fill-rule="evenodd" clip-rule="evenodd" d="M75.866 61.2167L77.5393 61.3433L76.546 61.76C75.856 62.1 74.646 62.7367 74.0527 63.1267L73.8093 62.0333L73.4593 62.03L73.266 62.7467L73.176 62.67L73.1127 62.6167L71.666 61.3933L74.056 61.2167L74.9593 59L75.866 61.2167Z" fill="#757575"/>
<path fill-rule="evenodd" clip-rule="evenodd" d="M76.956 65.2067L76.4827 63.9333L76.6293 63.8233L75.666 63.4367L75.7427 64.47L75.8893 64.3633L76.956 65.2067Z" fill="#757575"/>
<path fill-rule="evenodd" clip-rule="evenodd" d="M72.9395 65.2033C73.1695 64.2633 73.3995 63.3233 73.6295 62.38L73.8661 63.5733C75.1095 62.7 76.9028 61.7933 78.3328 61.3533C76.1928 62.57 74.3661 63.89 72.9395 65.2033Z" fill="#757575"/>
<path fill-rule="evenodd" clip-rule="evenodd" d="M35.866 39.2167L37.5393 39.3433L36.546 39.76C35.856 40.1 34.646 40.7367 34.0527 41.1267L33.8093 40.0333L33.4593 40.03L33.266 40.7467L33.176 40.67L33.1127 40.6167L31.666 39.3933L34.056 39.2167L34.9593 37L35.866 39.2167Z" fill="#FBCD05"/>
<path fill-rule="evenodd" clip-rule="evenodd" d="M36.956 43.2067L36.4827 41.9333L36.6293 41.8233L35.666 41.4367L35.7427 42.47L35.8893 42.3633L36.956 43.2067Z" fill="#FBCD05"/>
<path fill-rule="evenodd" clip-rule="evenodd" d="M32.9395 43.2033C33.1695 42.2633 33.3995 41.3233 33.6295 40.38L33.8661 41.5733C35.1095 40.7 36.9028 39.7933 38.3328 39.3533C36.1928 40.57 34.3661 41.89 32.9395 43.2033Z" fill="#FBCD05"/>
<path fill-rule="evenodd" clip-rule="evenodd" d="M45.866 39.2167L47.5393 39.3433L46.546 39.76C45.856 40.1 44.646 40.7367 44.0527 41.1267L43.8093 40.0333L43.4593 40.03L43.266 40.7467L43.176 40.67L43.1127 40.6167L41.666 39.3933L44.056 39.2167L44.9593 37L45.866 39.2167Z" fill="#FBCD05"/>
<path fill-rule="evenodd" clip-rule="evenodd" d="M46.956 43.2067L46.4827 41.9333L46.6293 41.8233L45.666 41.4367L45.7427 42.47L45.8893 42.3633L46.956 43.2067Z" fill="#FBCD05"/>
<path fill-rule="evenodd" clip-rule="evenodd" d="M42.9395 43.2033C43.1695 42.2633 43.3995 41.3233 43.6295 40.38L43.8661 41.5733C45.1095 40.7 46.9028 39.7933 48.3328 39.3533C46.1928 40.57 44.3661 41.89 42.9395 43.2033Z" fill="#FBCD05"/>
<path fill-rule="evenodd" clip-rule="evenodd" d="M55.866 39.2167L57.5393 39.3433L56.546 39.76C55.856 40.1 54.646 40.7367 54.0527 41.1267L53.8093 40.0333L53.4593 40.03L53.266 40.7467L53.176 40.67L53.1127 40.6167L51.666 39.3933L54.056 39.2167L54.9593 37L55.866 39.2167Z" fill="#FBCD05"/>
<path fill-rule="evenodd" clip-rule="evenodd" d="M56.956 43.2067L56.4827 41.9333L56.6293 41.8233L55.666 41.4367L55.7427 42.47L55.8893 42.3633L56.956 43.2067Z" fill="#FBCD05"/>
<path fill-rule="evenodd" clip-rule="evenodd" d="M52.9395 43.2033C53.1695 42.2633 53.3995 41.3233 53.6295 40.38L53.8661 41.5733C55.1095 40.7 56.9028 39.7933 58.3328 39.3533C56.1928 40.57 54.3661 41.89 52.9395 43.2033Z" fill="#FBCD05"/>
<path fill-rule="evenodd" clip-rule="evenodd" d="M65.866 39.2167L67.5393 39.3433L66.546 39.76C65.856 40.1 64.646 40.7367 64.0527 41.1267L63.8093 40.0333L63.4593 40.03L63.266 40.7467L63.176 40.67L63.1127 40.6167L61.666 39.3933L64.056 39.2167L64.9593 37L65.866 39.2167Z" fill="#FBCD05"/>
<path fill-rule="evenodd" clip-rule="evenodd" d="M66.956 43.2067L66.4827 41.9333L66.6293 41.8233L65.666 41.4367L65.7427 42.47L65.8893 42.3633L66.956 43.2067Z" fill="#FBCD05"/>
<path fill-rule="evenodd" clip-rule="evenodd" d="M62.9395 43.2033C63.1695 42.2633 63.3995 41.3233 63.6295 40.38L63.8661 41.5733C65.1095 40.7 66.9028 39.7933 68.3328 39.3533C66.1928 40.57 64.3661 41.89 62.9395 43.2033Z" fill="#FBCD05"/>
<path fill-rule="evenodd" clip-rule="evenodd" d="M75.866 39.2167L77.5393 39.3433L76.546 39.76C75.856 40.1 74.646 40.7367 74.0527 41.1267L73.8093 40.0333L73.4593 40.03L73.266 40.7467L73.176 40.67L73.1127 40.6167L71.666 39.3933L74.056 39.2167L74.9593 37L75.866 39.2167Z" fill="#757575"/>
<path fill-rule="evenodd" clip-rule="evenodd" d="M76.956 43.2067L76.4827 41.9333L76.6293 41.8233L75.666 41.4367L75.7427 42.47L75.8893 42.3633L76.956 43.2067Z" fill="#757575"/>
<path fill-rule="evenodd" clip-rule="evenodd" d="M72.9395 43.2033C73.1695 42.2633 73.3995 41.3233 73.6295 40.38L73.8661 41.5733C75.1095 40.7 76.9028 39.7933 78.3328 39.3533C76.1928 40.57 74.3661 41.89 72.9395 43.2033Z" fill="#757575"/>
</svg>
