<svg width="518" height="307" viewBox="0 0 518 307" fill="none" xmlns="http://www.w3.org/2000/svg">
<g clip-path="url(#clip0_975_6384)">
<path d="M111.259 305.593C86.041 283.612 67.0918 254.492 57.1808 222.51C51.5627 204.385 50.1661 181.489 64.9017 169.557C82.8908 154.985 110.291 167.506 132.438 160.804C152.823 154.635 164.655 133.6 172.146 113.63C179.636 93.6526 185.588 71.7988 201.379 57.4813C222.566 38.2906 256.179 38.8709 281.833 51.4474C307.488 64.0239 326.889 86.2832 345.093 108.344C363.288 130.396 381.563 153.316 406.074 168.007C420.929 176.91 438.109 182.849 449.742 195.696C462.597 209.894 466.39 230.515 464.176 249.555C461.962 268.595 454.423 286.545 446.972 304.202L111.259 305.593Z" fill="#E2FBF3"/>
<path opacity="0.08" d="M471.31 143.911H502.892C502.804 143.672 502.709 143.442 502.59 143.219C502.241 142.448 501.725 141.828 501.051 141.343C500.487 140.771 499.805 140.365 499.011 140.151C498.003 139.833 496.98 139.777 495.94 139.992C495.782 140.024 495.615 140.047 495.456 140.079C494.599 140.262 493.83 140.612 493.131 141.129C493.115 140.922 493.1 140.723 493.084 140.516C492.893 139.61 492.489 138.815 491.878 138.124C491.528 137.829 491.179 137.527 490.83 137.233C490.068 136.748 489.243 136.486 488.338 136.438C487.664 136.375 487.013 136.486 486.41 136.756C486.386 136.764 486.363 136.772 486.339 136.78C486.315 136.51 486.299 136.239 486.275 135.969C486.077 135.039 485.664 134.22 485.037 133.521C484.68 133.219 484.323 132.908 483.966 132.606C483.189 132.114 482.332 131.835 481.411 131.788C480.713 131.724 480.054 131.835 479.427 132.114C478.745 132.288 478.142 132.63 477.626 133.131C477.07 133.592 476.674 134.157 476.428 134.824C476.087 135.421 475.912 136.065 475.896 136.764C475.928 137.209 475.96 137.654 475.999 138.108C476.102 138.585 476.261 139.03 476.467 139.443C476.38 139.435 476.293 139.427 476.198 139.427C473.238 139.411 471.571 141.605 471.31 143.911Z" fill="#1DC895"/>
<path d="M376.746 182.197H358.114V304.536H376.746V182.197Z" fill="#FCCE08"/>
<path d="M376.746 219.529V182.197H358.114V210.442L376.746 219.529Z" fill="#F5842D"/>
<path d="M458.82 198.844H346.529L297.14 57.0918H415.763C439.537 57.0918 458.812 76.4017 458.812 100.219V198.844H458.82Z" fill="#FBCD05"/>
<path d="M346.926 198.844H252.37V104.456C252.37 78.3017 273.533 57.0918 299.648 57.0918C325.755 57.0918 346.926 78.2937 346.926 104.456V198.844Z" fill="white"/>
<path d="M342.252 104.456V194.201C342.252 194.257 342.204 194.304 342.149 194.304H257.004C256.949 194.304 256.901 194.257 256.901 194.201V105.18C256.901 103.415 257.004 101.666 257.211 99.9568C259.853 77.7213 279.151 60.4147 301.989 61.6946C322.938 62.8633 339.855 79.2318 342.014 99.9568C342.172 101.435 342.252 102.938 342.252 104.456Z" fill="#EDC30B"/>
<path d="M433.355 48.2675H401.416V19.0125H432.959C435.704 19.0125 437.41 22.0095 436.014 24.3785L431.134 32.6304L436.522 43.0843C437.728 45.4454 436.014 48.2675 433.355 48.2675Z" fill="#1DC895"/>
<path d="M403.178 116.111H395.624V20.0141C395.624 17.9233 397.314 16.23 399.401 16.23C401.488 16.23 403.178 17.9233 403.178 20.0141V116.111Z" fill="#1DC895"/>
<path d="M342.252 104.456V191.117H229.025V99.9568H342.014C342.172 101.435 342.252 102.938 342.252 104.456Z" fill="#C2F6E6"/>
<path opacity="0.2" d="M342.252 166.743V191.117H229.025L256.901 161.456L273.652 143.633L297.267 118.504L321.033 143.99L342.252 166.743Z" fill="#18A97D"/>
<path d="M342.252 104.456V122.733L321.033 143.99L297.799 167.267L273.652 143.633L256.901 127.24L229.025 99.9568H342.014C342.172 101.435 342.252 102.938 342.252 104.456Z" fill="#1DC895"/>
<path d="M207.956 190.899V198.841H346.933V190.899H207.956Z" fill="#F5842D"/>
<path d="M399.401 147.894C409.411 147.894 417.525 139.764 417.525 129.737C417.525 119.709 409.411 111.579 399.401 111.579C389.391 111.579 381.277 119.709 381.277 129.737C381.277 139.764 389.391 147.894 399.401 147.894Z" fill="#1DC895"/>
<path d="M406.723 131.445C407.674 127.393 405.166 123.337 401.121 122.384C397.077 121.432 393.027 123.945 392.077 127.997C391.126 132.049 393.634 136.105 397.679 137.058C401.723 138.01 405.773 135.497 406.723 131.445Z" fill="#FBCD05"/>
<path d="M329.532 279.271C327.77 278.437 326.096 277.284 324.945 275.71C323.795 274.128 323.279 271.965 324.057 270.169C325.191 267.537 328.516 266.647 331.373 266.854C334.221 267.068 337.023 268.046 339.871 267.792C333.222 266.242 327.08 262.553 322.596 257.394C320.224 254.675 318.256 250.748 319.994 247.576C321.144 245.469 323.668 244.412 326.056 244.396C328.453 244.372 330.762 245.215 332.984 246.105C327.048 238.028 323.168 228.449 321.803 218.511C321.39 215.53 321.446 211.969 323.866 210.196C325.461 209.027 327.691 209.043 329.516 209.798C331.341 210.554 332.825 211.937 334.166 213.392C340.411 220.133 344.45 228.902 345.513 238.036C346.529 234.872 347.918 231.7 350.401 229.498C352.877 227.288 356.678 226.294 359.598 227.868C363.28 229.848 364.097 234.777 363.812 238.95C363.304 246.431 360.598 253.745 356.13 259.747C359.384 258.411 361.717 255.549 364.55 253.466C367.383 251.384 371.525 250.159 374.278 252.353C376.889 254.428 376.833 258.411 376.024 261.647C373.778 270.519 351.353 289.622 329.532 279.271Z" fill="#1DC895"/>
<path d="M325.453 211.158C325.191 210.657 324.85 210.22 324.469 209.83C325.993 209.051 327.905 209.147 329.508 209.806C331.333 210.562 332.817 211.945 334.158 213.4C340.403 220.141 344.442 228.91 345.505 238.044C346.521 234.88 347.91 231.708 350.393 229.506C352.869 227.296 356.67 226.302 359.59 227.876C363.272 229.856 364.089 234.785 363.804 238.958C363.296 246.439 360.59 253.753 356.123 259.755C359.376 258.419 361.709 255.557 364.542 253.474C367.375 251.392 371.517 250.167 374.27 252.361C376.881 254.436 376.825 258.419 376.016 261.655C374.659 267.076 365.756 276.314 354.067 280.321C348.267 256.002 337.102 233.123 325.453 211.158Z" fill="#18A97D"/>
<path d="M342.323 245.994C349.481 261.901 355.004 277.793 355.726 294.789" stroke="#F5842D" stroke-width="1.0766" stroke-miterlimit="10" stroke-linecap="round"/>
<path d="M14.1167 288.692C12.847 287.762 11.6964 286.593 11.0299 285.17C10.3554 283.739 10.284 281.95 11.1648 280.647C12.4662 278.739 15.2355 278.54 17.4574 279.144C19.6792 279.748 21.7503 280.957 24.0436 281.187C19.0127 278.945 14.7118 275.082 11.9504 270.312C10.4903 267.792 9.53015 264.381 11.379 262.14C12.609 260.653 14.7674 260.2 16.6639 260.55C18.5604 260.899 20.2664 261.917 21.8852 262.966C18.4175 255.661 16.8067 247.48 17.2352 239.403C17.3622 236.979 17.9494 234.164 20.1395 233.131C21.5757 232.447 23.3453 232.805 24.6705 233.679C26.0036 234.554 26.9637 235.882 27.8048 237.233C31.7248 243.529 33.5816 251.089 33.0341 258.491C34.3196 256.145 35.9067 253.84 38.2079 252.473C40.5091 251.105 43.6673 250.891 45.7383 252.584C48.349 254.715 48.2458 258.737 47.3888 262.004C45.8494 267.848 42.5881 273.229 38.1364 277.3C40.9137 276.743 43.1991 274.827 45.7621 273.611C48.3252 272.395 51.7929 272.061 53.6338 274.215C55.3796 276.258 54.7368 279.399 53.5941 281.839C50.4915 288.533 29.8204 300.235 14.1167 288.692Z" fill="#1DC895"/>
<path d="M21.2742 234.133C21.1393 233.695 20.9409 233.298 20.6949 232.932C22.0201 232.551 23.5199 232.916 24.6863 233.687C26.0194 234.562 26.9796 235.889 27.8207 237.241C31.7407 243.537 33.5975 251.097 33.05 258.499C34.3355 256.153 35.9225 253.848 38.2237 252.481C40.5249 251.113 43.6831 250.899 45.7542 252.592C48.3649 254.722 48.2617 258.745 47.4047 262.012C45.8653 267.855 42.604 273.237 38.1523 277.308C40.9296 276.751 43.215 274.835 45.778 273.619C48.3411 272.403 51.8088 272.069 53.6497 274.223C55.3955 276.266 54.7527 279.406 53.61 281.847C51.7056 285.933 43.2546 291.888 33.3754 293.271C32.5025 273.134 27.1542 253.307 21.2742 234.133Z" fill="#18A97D"/>
<path d="M29.3204 264.294C32.5659 277.983 34.518 291.418 32.4945 304.989" stroke="#F5842D" stroke-width="1.0766" stroke-miterlimit="10" stroke-linecap="round"/>
<path d="M447.282 289.55C448.408 288.724 449.424 287.69 450.019 286.426C450.614 285.162 450.686 283.572 449.9 282.419C448.75 280.726 446.29 280.551 444.314 281.084C442.338 281.616 440.505 282.69 438.474 282.896C442.933 280.909 446.75 277.483 449.202 273.253C450.495 271.019 451.352 267.999 449.702 266.003C448.607 264.683 446.695 264.278 445.012 264.588C443.33 264.898 441.822 265.804 440.378 266.727C443.457 260.248 444.885 252.989 444.504 245.827C444.393 243.68 443.87 241.184 441.933 240.27C440.656 239.666 439.093 239.984 437.91 240.763C436.728 241.542 435.879 242.718 435.125 243.919C431.649 249.499 429.999 256.209 430.483 262.768C429.34 260.685 427.936 258.642 425.896 257.433C423.857 256.217 421.056 256.034 419.215 257.537C416.898 259.429 416.993 262.998 417.755 265.892C419.12 271.075 422.008 275.845 425.968 279.462C423.508 278.969 421.477 277.268 419.207 276.195C416.938 275.114 413.859 274.819 412.224 276.735C410.677 278.548 411.248 281.338 412.256 283.501C415.025 289.407 433.355 299.782 447.282 289.55Z" fill="#1DC895"/>
<path d="M440.942 241.16C441.061 240.771 441.235 240.421 441.449 240.095C440.275 239.753 438.942 240.079 437.91 240.763C436.728 241.542 435.879 242.718 435.125 243.919C431.649 249.499 429.999 256.209 430.483 262.768C429.34 260.685 427.936 258.642 425.896 257.433C423.857 256.217 421.056 256.034 419.215 257.537C416.898 259.429 416.993 262.998 417.755 265.892C419.12 271.075 422.008 275.845 425.968 279.462C423.508 278.969 421.477 277.268 419.207 276.195C416.938 275.114 413.859 274.819 412.224 276.735C410.677 278.548 411.248 281.338 412.256 283.501C413.946 287.126 421.445 292.404 430.197 293.636C430.983 275.75 435.728 258.165 440.942 241.16Z" fill="#18A97D"/>
<path d="M433.8 267.911C430.919 280.05 429.19 291.967 430.983 304.003" stroke="#F5842D" stroke-width="1.0766" stroke-miterlimit="10" stroke-linecap="round"/>
<path d="M350.742 305.394L362.613 305.625C363.51 300.457 365.01 295.393 367.065 290.568C363.843 292.309 361.217 295.123 359.693 298.462C358.162 294.431 356.63 290.409 355.099 286.378C353.361 291.442 353.075 296.999 354.289 302.214C353.694 295.998 348.227 290.616 342.014 290.123C346.442 293.167 349.639 297.961 350.75 303.232L350.742 305.394Z" fill="#1DC895"/>
<path d="M495.488 303.868C495.972 299.05 496.988 294.296 498.527 289.701C495.94 291.498 493.972 294.161 492.996 297.15C491.647 294.201 491.155 290.862 491.608 287.65C488.973 290.107 487.584 293.835 487.957 297.421C486.37 294.582 483.649 292.404 480.538 291.474C482.569 295.425 484.188 299.583 485.379 303.86H495.488V303.868Z" fill="#1DC895"/>
<path d="M78.3201 303.868C78.8041 299.05 79.8198 294.296 81.3593 289.701C78.7724 291.498 76.8045 294.161 75.8284 297.15C74.4795 294.201 73.9875 290.862 74.4398 287.65C71.8053 290.107 70.4167 293.835 70.7896 297.421C69.2026 294.582 66.4808 292.404 63.3702 291.474C65.4016 295.425 67.0204 299.583 68.2107 303.86H78.3201V303.868Z" fill="#1DC895"/>
<path d="M354.615 48.2834V56.6307H351.838" stroke="#F5842D" stroke-miterlimit="10" stroke-linecap="round" stroke-linejoin="round"/>
<path d="M349.854 45.1035V56.6307H347.076" stroke="#F5842D" stroke-miterlimit="10" stroke-linecap="round" stroke-linejoin="round"/>
<path d="M368.724 41.1366C366.311 47.6077 359.408 51.201 352.742 49.46C346.537 47.8382 341.926 42.6073 341.085 36.2396L340.641 32.8848C340.078 28.6237 342.918 24.6647 347.132 23.838C351.401 23.0032 355.575 25.6823 356.591 29.9195L360.074 44.4675L368.724 41.1366Z" fill="#1DC895"/>
<path d="M340.57 30.8655C340.57 30.8655 342.466 31.7559 340.855 33.8546L338.046 34.2442L338.943 32.7258L337.491 30.1262L340.57 30.8655Z" fill="#F5842D"/>
<path d="M0 305.434C0 306.3 0.698295 307.008 1.57116 307.008H516.429C517.294 307.008 518 306.308 518 305.434C518 304.567 517.302 303.86 516.429 303.86H1.57116C0.698295 303.86 0 304.567 0 305.434Z" fill="#18A97D"/>
<path opacity="0.08" d="M29.6061 146.765H56.0699C55.7763 145.97 55.3636 145.239 54.8002 144.571C54.3083 144.118 53.8084 143.672 53.3164 143.227C52.2293 142.488 51.031 142.059 49.7217 141.947C48.7378 141.828 47.7856 141.955 46.8889 142.321C46.7381 142.353 46.5953 142.408 46.4445 142.448C46.3334 139.451 43.8973 136.518 40.7788 136.414C37.4381 136.311 34.3751 138.616 34.0894 142.083C34.026 142.885 34.1291 143.696 34.391 144.467C34.3831 144.467 34.3751 144.467 34.3672 144.467C32.185 144.404 30.59 145.374 29.6061 146.765Z" fill="#1DC895"/>
<path opacity="0.08" d="M317.835 23.5915H291.784C292.554 20.9283 294.95 18.6786 297.831 18.6786C299.045 18.6786 300.219 18.9807 301.243 19.5133C301.267 19.1874 301.291 18.8614 301.314 18.5275C301.489 18.0346 301.656 17.5418 301.83 17.0489C302.132 16.6037 302.441 16.1585 302.743 15.7133C303.155 15.3635 303.568 15.0137 303.981 14.6639C304.457 14.4414 304.925 14.2188 305.401 13.9962C306.155 13.7259 306.917 13.6543 307.686 13.7736C308.218 13.7497 308.718 13.8531 309.194 14.0916C309.98 14.2903 310.67 14.6798 311.273 15.2602C311.305 15.292 311.329 15.3238 311.36 15.3556C311.987 15.8803 312.439 16.5162 312.709 17.2635C313.098 17.9313 313.296 18.6627 313.304 19.4497C313.281 19.7915 313.257 20.1254 313.225 20.4673C315.209 20.6899 316.962 21.8585 317.835 23.5915Z" fill="#1DC895"/>
<path opacity="0.08" d="M498.702 61.5277C498.305 61.1859 497.908 60.852 497.511 60.5101C496.519 59.8821 495.448 59.5164 494.298 59.3813C494.686 55.9788 492.798 52.4093 488.402 52.4093C486.188 52.4093 484.514 53.3315 483.403 54.675C483.426 54.4683 483.45 54.2696 483.45 54.0549C483.403 53.3792 483.347 52.7114 483.299 52.0357C483.006 50.6366 482.387 49.4123 481.435 48.347C480.895 47.8859 480.355 47.4328 479.824 46.9717C478.649 46.2244 477.372 45.819 475.983 45.7395C474.936 45.6441 473.944 45.8111 473 46.2244C471.968 46.4868 471.063 46.9956 470.286 47.7587C469.453 48.4583 468.85 49.3089 468.477 50.3027C467.961 51.193 467.699 52.1709 467.683 53.2202C467.731 53.8959 467.786 54.5637 467.834 55.2395C467.905 55.5654 467.993 55.8754 468.096 56.1855C467.524 56.2332 466.969 56.3604 466.437 56.5989C465.556 56.8215 464.787 57.2587 464.12 57.9026C463.406 58.4989 462.898 59.2223 462.581 60.0729C462.319 60.534 462.144 61.011 462.033 61.5198H498.702V61.5277Z" fill="#1DC895"/>
<path opacity="0.08" d="M185.437 21.2384C185.477 20.9363 185.5 20.6342 185.508 20.3242C185.445 19.5133 185.389 18.7024 185.326 17.8915C184.969 16.2062 184.223 14.7275 183.072 13.4397C182.422 12.8912 181.771 12.3347 181.128 11.7861C179.716 10.8878 178.168 10.3949 176.494 10.2995C175.304 10.1962 174.169 10.3711 173.09 10.8163C173.018 6.38031 169.321 2 164.694 2C159.91 2 155.64 5.43429 155.379 10.4029C155.371 10.5698 155.379 10.7368 155.379 10.9117C154.053 9.7351 152.379 8.98783 150.546 8.98783H150.252C145.848 8.98783 141.92 12.0723 141.674 16.6434C141.643 17.3192 141.706 17.979 141.849 18.6388C141.778 18.6786 141.714 18.7263 141.643 18.766C140.77 18.1062 139.738 17.6292 138.635 17.6292C137.175 17.6292 135.763 18.0346 134.66 19.0284C134.073 19.5133 133.66 20.1016 133.398 20.8012C133.319 20.9442 133.247 21.0873 133.184 21.2384H185.437V21.2384Z" fill="#1DC895"/>
<path d="M207.989 32.3839H236.849C240.404 32.3839 243.126 35.1425 243.126 38.704V60.8122C243.126 64.3737 240.404 67.3628 236.849 67.3628H232.017V72.9276L221.725 67.3628H207.989C204.434 67.3628 201.069 64.3737 201.069 60.8122V38.704C201.069 35.1504 204.434 32.3839 207.989 32.3839Z" fill="#EF3F28"/>
<path d="M228.684 58.1968V59.8821H222.962H222.748H217.027V58.1968C217.027 57.7913 217.225 57.5449 217.614 57.4574C217.813 57.4256 219.035 57.3143 221.288 57.1394V44.8809C221.288 44.4039 221.304 43.9031 221.328 43.3784L218.297 45.9144C218.17 46.0177 218.043 46.0972 217.908 46.137C217.773 46.1767 217.646 46.1926 217.519 46.1926C217.321 46.1926 217.146 46.1529 216.987 46.0654C216.829 45.9859 216.71 45.8906 216.63 45.7793L215.495 44.2211L221.915 38.7517H224.875V57.1792C226.827 57.3302 227.89 57.4256 228.073 57.4574C228.485 57.5369 228.684 57.7834 228.684 58.1968Z" fill="white"/>
</g>
<g clip-path="url(#clip1_975_6384)">
<path d="M78.52 17.22C72.61 18.54 65.72 26.83 72.52 35.3C79.32 43.77 67.93 40.07 66.17 54.89C64.41 69.71 77.91 67.22 73.67 76.94C69.43 86.66 98.85 102.06 117.22 90.39C135.59 78.72 137.3 53.59 131.56 44.71C125.82 35.83 117.44 35.27 121.23 25.76C125.02 16.24 120.55 6.35999 108.7 6.26999C99.76 6.19999 105.12 -0.0500068 92.82 -6.77223e-06C82.56 0.0499932 73.48 7.24999 78.52 17.22Z" fill="#FF5B7E"/>
<path d="M111.43 29.61C109.82 29.61 108.52 30.91 108.52 32.53C108.52 34.14 109.82 35.44 111.43 35.44C113.04 35.44 114.35 34.14 114.35 32.53C114.35 30.91 113.04 29.61 111.43 29.61ZM111.43 34.76C110.2 34.76 109.2 33.76 109.2 32.53C109.2 31.29 110.2 30.29 111.43 30.29C112.67 30.29 113.67 31.29 113.67 32.53C113.67 33.76 112.67 34.76 111.43 34.76Z" fill="white"/>
<path d="M136.05 58.06C136.03 58.06 136.02 58.06 136 58.06C135.86 58.03 135.78 57.9 135.8 57.77C136.7 53.11 133.07 48.6 129.23 43.82C124.75 38.24 119.67 31.93 121.46 24.4C122.99 17.98 122.31 12.62 119.54 9.3C117.28 6.58 113.75 5.33 109.06 5.57C104.76 5.79 103.48 4.63 102.13 3.4C100.67 2.07 98.9899 0.549996 92.8199 0.589996C92.6799 0.589996 92.5699 0.479996 92.5699 0.339996C92.5699 0.199996 92.6799 0.0899963 92.8199 0.0899963C92.8899 0.0899963 92.9699 0.0899963 93.0399 0.0899963C99.2599 0.0899963 100.97 1.65 102.47 3.03C103.8 4.24 104.94 5.29 109.03 5.07C113.88 4.82 117.55 6.13 119.92 8.98C122.79 12.42 123.51 17.94 121.94 24.52C120.21 31.81 124.99 37.76 129.62 43.51C133.54 48.38 137.23 52.98 136.29 57.86C136.27 57.97 136.16 58.06 136.05 58.06Z" fill="#FF5B7E"/>
<path d="M159.56 38.95L158.21 41.57C157.7 42.56 157.7 43.72 158.21 44.71L160.58 49.31C161.53 51.15 163.31 52.42 165.36 52.71L166.63 52.89C169.16 48.7 168.81 42.3 168.81 42.3L168.91 40.47C169 38.84 167.86 37.49 166.28 37.38L162.65 37.13C161.4 37.05 160.17 37.77 159.56 38.95Z" fill="#FFC0BB"/>
<path d="M129.79 56.46C129.74 56.42 129.84 56.57 129.89 56.65L130.1 56.95L130.58 57.6C130.91 58.04 131.29 58.47 131.67 58.9C132.43 59.76 133.24 60.6 134.09 61.41C135.78 63.03 137.65 64.46 139.6 65.74C143.49 68.32 147.84 70.07 152.36 70.79L153.21 70.91L153.64 70.97C153.69 70.97 153.57 70.97 153.54 70.99C153.31 71.01 153.02 71.13 152.93 71.22C152.74 71.4 153.2 71.13 153.64 70.47C154.59 69.15 155.46 66.88 156.11 64.59C156.75 62.25 157.24 59.76 157.58 57.22C157.76 55.95 157.87 54.67 157.99 53.38C158.1 52.12 158.18 50.76 158.19 49.61L169.71 50.17C169.56 51.74 169.41 53.09 169.25 54.54C169.08 55.97 168.86 57.38 168.66 58.81C168.22 61.66 167.72 64.53 166.97 67.46C166.6 68.93 166.17 70.42 165.62 71.94C165.05 73.46 164.4 75.04 163.4 76.69C162.38 78.31 161.01 80.19 158.4 81.66C157.1 82.37 155.47 82.85 153.88 82.92C153.51 82.93 153.05 82.92 152.76 82.91L152.17 82.87L150.99 82.79C147.84 82.5 144.73 81.89 141.7 81C138.69 80.07 135.76 78.92 132.98 77.5C130.19 76.1 127.56 74.42 125.03 72.61C123.76 71.7 122.53 70.74 121.33 69.71C120.73 69.2 120.14 68.66 119.54 68.11L118.64 67.25L118.18 66.79C118.01 66.61 117.89 66.5 117.63 66.19L129.79 56.46Z" fill="#1DC895"/>
<path d="M105.78 298.15C104.32 294.88 105.33 281.16 105.53 278.91C103 277.59 94.3 279.22 94.3 279.22C94.3 279.22 96.7301 293.65 95.2701 298.15C98.64 300.01 105.78 298.15 105.78 298.15Z" fill="#FFC0BB"/>
<path d="M213.14 284.99C210.4 282.7 204.64 270.17 203.83 268.06C200.97 267.99 194.52 273.03 194.52 273.03C194.52 273.03 203.04 284.92 203.71 289.61C207.54 289.8 213.14 284.99 213.14 284.99Z" fill="#FFC0BB"/>
<path d="M114.69 306.12C107.38 306.12 106.13 306.01 102.01 305.87C98.4899 305.74 97.6499 306.18 94.8199 306.12C92.4599 306.07 92.5399 303.81 93.2699 301.21C93.5299 300.28 93.8899 299.21 94.2599 297.9C94.5499 296.89 95.4799 296.19 96.5299 296.19H104.56C105.3 296.19 105.97 296.55 106.44 297.12C108.38 299.53 112.57 301.29 116.23 301.78C120.17 302.31 117.61 306.12 114.69 306.12Z" fill="#202020"/>
<path d="M227.58 290.58C219.71 294.14 215.58 292.33 211.63 293.23C208.24 294 208.35 294.63 204.97 295.6C202.73 296.24 201.59 293.84 201.78 291.74C201.9 290.38 202.05 288.8 202.02 287.15C202.01 286.54 202.34 285.98 202.89 285.73L210.72 282.18C211.24 281.95 211.83 282.02 212.28 282.37C215.4 284.86 222.25 288 227.05 286.38C230.77 285.14 230.2 289.39 227.58 290.58Z" fill="#202020"/>
<path d="M140.77 112.23C140.77 112.23 159.25 154.64 169.41 185.91C181.82 214.19 206.69 273.52 206.69 273.52C207.17 275.03 199.32 277.79 197.61 277.51C197.61 277.51 164.8 238.15 151.43 193.44C116.68 149.85 106.45 114.85 106.45 114.85L140.77 112.23Z" fill="#202020"/>
<path opacity="0.2" d="M125.96 135.45C131.05 141.03 134.65 160.44 136.48 173.12C129.28 162.52 123.65 152.82 119.31 144.51C119.82 139.76 121.9 136.28 125.96 135.45Z" fill="black"/>
<path d="M130.49 113.01C130.49 113.01 131.81 171.92 126.68 200.94C121.3 231.42 104.65 268.17 105.83 288.18C104.12 289.18 98.09 289.24 94.72 288.18C94.72 288.18 88.97 228.79 106.27 199.8C102.53 170.78 92.54 133.19 101.41 115.23L130.49 113.01Z" fill="#202020"/>
<path d="M106.67 284.01C106.7 285.02 106.79 286.78 107.06 288.12C107.15 288.6 106.83 289.05 106.34 289.13C102.27 289.78 96.39 288.84 94.52 288.5C94.16 288.44 93.89 288.15 93.83 287.79L93.22 283.95C93.14 283.42 93.55 282.95 94.08 282.96L105.83 283.19C106.28 283.2 106.65 283.56 106.67 284.01Z" fill="#444444"/>
<path d="M205.8 269.17C206.3 270.12 207.21 271.8 207.93 273.03C208.17 273.44 208.03 273.94 207.63 274.19C204.63 276.04 199.32 277.89 197.56 278.48C197.21 278.6 196.83 278.48 196.61 278.18L194.22 275.03C193.89 274.6 194.04 273.98 194.53 273.75L204.67 268.8C205.08 268.6 205.58 268.76 205.8 269.17Z" fill="#444444"/>
<path d="M132.92 62.31C133.9 66.07 135.48 70.2 137.38 79.29C139.13 86.94 140.41 100.39 140.78 112.23C135.64 116.81 118.55 116.03 101.41 115.23C101.36 104.08 96.7799 93.79 84.3199 70.96C81.4299 65.67 83.7699 59.42 89.3499 57.54C90.8399 57.04 92.4299 56.54 94.0699 56.08C100.46 54.3 105.7 52.89 111.55 52.11C113.49 51.85 115.51 51.64 117.46 51.48C124.46 50.88 131.17 55.58 132.92 62.31Z" fill="#1DC895"/>
<path d="M112.68 52.09L95.02 55.87C95.02 55.87 109.31 61.83 120.75 71.02C123.88 55.31 112.68 52.09 112.68 52.09Z" fill="white"/>
<path d="M90.8199 36.12C93.6199 41.4 97.8299 51.28 95.0299 55.87C95.0299 55.87 110.97 60.48 119.47 67.78C120.6 55.97 112.69 52.09 112.69 52.09C105.96 52.04 104.55 47.24 104.32 42.69L90.8199 36.12Z" fill="#FFC0BB"/>
<path opacity="0.2" d="M96.32 38.8L104.31 42.69C104.36 43.77 104.47 44.84 104.71 45.86C102.21 46.06 98.12 44.23 97.11 41.82C96.6 40.61 96.29 39.42 96.32 38.8Z" fill="black"/>
<path d="M82.76 28.11C86.87 36.65 88.43 40.34 94.72 43.27C104.19 47.68 113.87 41.39 112.41 31.95C111.1 23.45 104.59 10.91 94.53 10.44C84.62 9.96999 78.65 19.57 82.76 28.11Z" fill="#FFC0BB"/>
<path d="M86.37 15.71C90.84 22.06 90.61 32.48 85.34 33.89C77.31 32.65 75.6 30.58 75.6 30.58C75.6 30.58 78.2 10.99 86.37 15.71Z" fill="#FF5B7E"/>
<path d="M80.0699 18.32C91.8999 19.83 101.31 14.89 103.07 12.12C92.3699 4.87999 81.2499 11.04 80.0699 18.32Z" fill="#FF5B7E"/>
<path d="M104.76 23.18C104.76 23.18 107.35 25.9 109.37 26.94C108.79 28.18 106.98 28.34 106.98 28.34L104.76 23.18Z" fill="#F9A59E"/>
<path d="M111.988 33.4307C112.179 33.1168 112.354 32.7762 112.504 32.3889C112.546 32.2839 112.479 32.1638 112.361 32.1155C112.243 32.0672 112.121 32.1113 112.074 32.2228C111.004 35.0591 108.268 35.5072 108.249 35.5135C108.125 35.5312 108.056 35.6357 108.089 35.7486C108.121 35.8615 108.242 35.9363 108.361 35.9251C108.464 35.9005 110.666 35.5488 111.988 33.4307Z" fill="#263238"/>
<path d="M83.28 36.89C85.14 37.93 87.1 38.02 88.51 37.53C90.62 36.78 90 34.2 88.01 32.56C86.21 31.08 82.95 29.68 81.5 31.32C80.08 32.93 81.15 35.7 83.28 36.89Z" fill="#FFC0BB"/>
<path d="M87.06 37.41C85.45 37.41 84.15 38.71 84.15 40.33C84.15 41.94 85.45 43.24 87.06 43.24C88.67 43.24 89.98 41.94 89.98 40.33C89.98 38.71 88.67 37.41 87.06 37.41ZM87.06 42.56C85.83 42.56 84.83 41.56 84.83 40.33C84.83 39.09 85.83 38.09 87.06 38.09C88.3 38.09 89.3 39.09 89.3 40.33C89.3 41.56 88.3 42.56 87.06 42.56Z" fill="white"/>
<path d="M93.57 22.51C93.67 22.44 93.74 22.34 93.76 22.21C94.04 20.25 95.6 19.58 95.62 19.57C95.85 19.47 95.96 19.21 95.84 18.98C95.73 18.75 95.44 18.65 95.21 18.75C95.13 18.78 93.16 19.62 92.82 22.06C92.79 22.3 92.97 22.53 93.23 22.58C93.35 22.6 93.48 22.57 93.57 22.51Z" fill="#263238"/>
<path d="M105.714 16.8593C105.807 16.7999 105.877 16.696 105.898 16.5839C105.944 16.3462 105.766 16.1117 105.506 16.0662C102.897 15.6155 101.392 17.0814 101.326 17.1494C101.15 17.3308 101.158 17.608 101.357 17.7752C101.548 17.9469 101.847 17.9382 102.028 17.7657C102.09 17.7111 103.277 16.5896 105.344 16.9495C105.483 16.9565 105.617 16.9323 105.714 16.8593Z" fill="#263238"/>
<path d="M107.63 20.58C107.89 21.32 107.7 22.06 107.21 22.22C106.72 22.38 106.12 21.91 105.86 21.17C105.6 20.43 105.79 19.69 106.28 19.53C106.77 19.37 107.37 19.84 107.63 20.58Z" fill="#263238"/>
<path d="M98.9599 24.16C99.2199 24.9 99.0299 25.64 98.5399 25.8C98.0499 25.96 97.4499 25.49 97.1899 24.75C96.9299 24.01 97.1199 23.27 97.6099 23.11C98.0999 22.94 98.6999 23.41 98.9599 24.16Z" fill="#263238"/>
<path d="M97.1899 23.54L97.9999 21.78C97.9999 21.78 98.4799 23.46 97.1899 23.54Z" fill="#263238"/>
<path d="M105.8 20.08L106.61 18.32C106.62 18.32 107.09 19.99 105.8 20.08Z" fill="#263238"/>
<path opacity="0.5" d="M95.34 72.04L86.67 75.3C90.24 81.92 93.07 87.4 95.24 92.16C94.33 81.64 95.34 72.04 95.34 72.04Z" fill="#18A97D"/>
<path d="M122.15 130.95L120.46 128.54C119.82 127.63 118.79 127.09 117.68 127.08L112.5 127.04C110.43 127.02 108.48 128.01 107.27 129.69L106.52 130.73C109.05 134.92 114.87 137.59 114.87 137.59L116.45 138.53C117.85 139.37 119.58 138.98 120.41 137.64L122.32 134.54C122.98 133.47 122.92 132.04 122.15 130.95Z" fill="#FFC0BB"/>
<path d="M98.5799 69.57C98.3199 70.11 97.9799 70.92 97.6799 71.62L96.7899 73.83C96.2099 75.32 95.6699 76.83 95.1599 78.35C94.1499 81.38 93.3299 84.45 92.6999 87.49C92.3999 89.01 92.1399 90.52 91.9599 92.01C91.7999 93.49 91.7099 94.95 91.6999 96.36C91.6999 99.16 92.1299 101.74 92.9699 103.53L93.3399 104.33C93.3699 104.4 93.3999 104.47 93.4099 104.54C93.8199 106.14 94.9199 108.13 96.3199 110.04C97.7199 111.96 99.3999 113.86 101.22 115.69C103.06 117.5 105.02 119.25 107.07 120.93C108.09 121.77 109.15 122.57 110.21 123.37C111.25 124.15 112.39 124.96 113.38 125.61L107.71 134.57C106.36 133.71 105.2 132.94 103.98 132.11C102.77 131.29 101.59 130.43 100.41 129.57C98.0499 127.84 95.7399 126.02 93.4899 124.04C91.2399 122.07 89.0199 119.97 86.9499 117.53C85.9099 116.32 84.9099 115 83.9699 113.56C83.0399 112.11 82.1399 110.53 81.4299 108.69L81.8799 109.7C79.4299 105.42 78.6099 101.05 78.2699 97.02C77.9699 92.96 78.1699 89.1 78.5899 85.34C79.0199 81.59 79.6999 77.94 80.5099 74.34C80.9099 72.54 81.3599 70.76 81.8399 68.98C82.0799 68.09 82.3399 67.2 82.6099 66.31C82.8899 65.39 83.1399 64.58 83.4999 63.53L98.5799 69.57Z" fill="#1DC895"/>
</g>
<defs>
<clipPath id="clip0_975_6384">
<rect width="518" height="305" fill="white" transform="translate(0 2)"/>
</clipPath>
<clipPath id="clip1_975_6384">
<rect width="163.69" height="306.12" fill="white" transform="translate(66)"/>
</clipPath>
</defs>
</svg>
