<svg width="125" height="112" viewBox="0 0 125 112" fill="none" xmlns="http://www.w3.org/2000/svg">
<path d="M92.3064 91.687C92.7054 95.1652 90.2091 98.3084 86.7309 98.7074L16.9066 106.717C13.4283 107.116 10.2852 104.62 9.88618 101.142L0.0418901 15.3261C-0.357116 11.8478 2.13911 8.70465 5.61737 8.30564L75.4417 0.295796C78.9199 -0.10321 82.063 2.39302 82.4621 5.87127L92.3064 91.687Z" fill="white"/>
<path d="M92.3064 91.687C92.7054 95.1652 90.2091 98.3084 86.7309 98.7074L16.9066 106.717C13.4283 107.116 10.2852 104.62 9.88618 101.142L0.0418901 15.3261C-0.357116 11.8478 2.13911 8.70465 5.61737 8.30564L75.4417 0.295796C78.9199 -0.10321 82.063 2.39302 82.4621 5.87127L92.3064 91.687ZM11.1734 99.521C11.5724 102.999 14.7156 105.495 18.1938 105.096L85.1101 97.4202C88.5883 97.0212 91.0845 93.878 90.6855 90.3998L81.1748 7.49208C80.7758 4.01382 77.6327 1.5176 74.1544 1.91661L7.23819 9.59286C3.75993 9.99187 1.2637 13.135 1.66271 16.6133L11.1734 99.521Z" fill="#F3F3F3"/>
<path d="M57.9441 39.1559L37.284 41.5259C36.9926 41.559 36.7 41.4752 36.4703 41.2928C36.2407 41.1104 36.0927 40.8444 36.059 40.553L33.689 19.8929C33.6559 19.6015 33.7397 19.3089 33.9221 19.0792C34.1045 18.8496 34.3705 18.7016 34.6618 18.6679L55.322 16.2978C55.6134 16.2648 55.906 16.3486 56.1357 16.531C56.3653 16.7134 56.5133 16.9794 56.547 17.2707L58.917 37.9309C58.9501 38.2223 58.8663 38.5149 58.6839 38.7446C58.5015 38.9742 58.2355 39.1222 57.9441 39.1559ZM34.7122 19.1075C34.5374 19.1277 34.3778 19.2165 34.2684 19.3543C34.159 19.492 34.1086 19.6676 34.1285 19.8425L36.4985 40.5026C36.5188 40.6774 36.6075 40.837 36.7453 40.9465C36.8831 41.0559 37.0587 41.1062 37.2335 41.0864L57.8937 38.7163C58.0685 38.6961 58.2281 38.6073 58.3375 38.4695C58.447 38.3318 58.4973 38.1562 58.4774 37.9813L56.1074 17.3212C56.0872 17.1464 55.9984 16.9868 55.8606 16.8773C55.7228 16.7679 55.5472 16.7176 55.3724 16.7374L34.7122 19.1075Z" fill="#D6D6D6"/>
<path d="M52.2983 42.3631L31.6382 44.7331C31.3759 44.7629 31.1126 44.6874 30.9059 44.5233C30.6992 44.3591 30.566 44.1197 30.5357 43.8575L28.1656 23.1973C28.1358 22.9351 28.2113 22.6717 28.3755 22.465C28.5396 22.2583 28.779 22.1252 29.0412 22.0948L49.7014 19.7248C49.9636 19.695 50.227 19.7705 50.4337 19.9346C50.6404 20.0988 50.7735 20.3382 50.8039 20.6004L53.1739 41.2605C53.2037 41.5228 53.1282 41.7862 52.9641 41.9929C52.8 42.1995 52.5605 42.3327 52.2983 42.3631Z" fill="#1DC895"/>
<path d="M73.7094 48.7787L18.2829 55.1369C17.6677 55.2074 17.2262 55.7634 17.2967 56.3786C17.3673 56.9939 17.9233 57.4354 18.5385 57.3648L73.965 51.0066C74.5802 50.936 75.0218 50.3801 74.9512 49.7648C74.8806 49.1496 74.3247 48.7081 73.7094 48.7787Z" fill="#F3F3F3"/>
<path d="M74.3745 54.5872L18.948 60.9455C18.3327 61.016 17.8912 61.572 17.9618 62.1872C18.0324 62.8025 18.5883 63.244 19.2035 63.1734L74.63 56.8152C75.2453 56.7446 75.6868 56.1887 75.6162 55.5734C75.5457 54.9582 74.9897 54.5167 74.3745 54.5872Z" fill="#F3F3F3"/>
<path d="M75.0414 60.3958L19.615 66.754C18.9997 66.8246 18.5582 67.3806 18.6288 67.9958C18.6993 68.6111 19.2553 69.0526 19.8705 68.982L75.297 62.6238C75.9123 62.5532 76.3538 61.9973 76.2832 61.382C76.2126 60.7668 75.6567 60.3253 75.0414 60.3958Z" fill="#F3F3F3"/>
<path d="M76.2133 70.6195L20.7868 76.9777C20.1716 77.0483 19.7301 77.6042 19.8006 78.2195C19.8712 78.8347 20.4272 79.2762 21.0424 79.2057L76.4689 72.8474C77.0841 72.7769 77.5257 72.2209 77.4551 71.6057C77.3845 70.9904 76.8286 70.5489 76.2133 70.6195Z" fill="#F3F3F3"/>
<path d="M76.8803 76.429L21.4538 82.7872C20.8386 82.8578 20.3971 83.4138 20.4676 84.029C20.5382 84.6443 21.0942 85.0858 21.7094 85.0152L77.1359 78.657C77.7511 78.5864 78.1927 78.0305 78.1221 77.4152C78.0515 76.8 77.4956 76.3585 76.8803 76.429Z" fill="#F3F3F3"/>
<path d="M77.5483 82.2386L22.1218 88.5968C21.5066 88.6674 21.065 89.2234 21.1356 89.8386C21.2062 90.4538 21.7621 90.8954 22.3774 90.8248L77.8039 84.4666C78.4191 84.396 78.8606 83.84 78.7901 83.2248C78.7195 82.6096 78.1635 82.168 77.5483 82.2386Z" fill="#F3F3F3"/>
<path d="M124.928 107.961C124.928 110.17 123.138 111.961 120.928 111.961H45.9678C43.7586 111.961 41.9678 110.17 41.9678 107.961V16.9043C41.9678 14.6952 43.7586 12.9043 45.9678 12.9043H120.928C123.138 12.9043 124.928 14.6952 124.928 16.9043V107.961Z" fill="white"/>
<path d="M124.928 107.961C124.928 110.17 123.138 111.961 120.928 111.961H45.9678C43.7586 111.961 41.9678 110.17 41.9678 107.961V16.9043C41.9678 14.6952 43.7586 12.9043 45.9678 12.9043H120.928C123.138 12.9043 124.928 14.6952 124.928 16.9043V107.961ZM43.4313 106.498C43.4313 108.707 45.2222 110.498 47.4313 110.498H119.465C121.674 110.498 123.465 108.707 123.465 106.498V18.3679C123.465 16.1587 121.674 14.3679 119.465 14.3679H47.4313C45.2222 14.3679 43.4313 16.1587 43.4313 18.3679V106.498Z" fill="#F3F3F3"/>
<path d="M108.702 55.4873H63.5129C62.8936 55.4873 62.3916 55.9893 62.3916 56.6086C62.3916 57.2279 62.8936 57.7299 63.5129 57.7299H108.702C109.322 57.7299 109.824 57.2279 109.824 56.6086C109.824 55.9893 109.322 55.4873 108.702 55.4873Z" fill="#1DC895"/>
<path d="M108.702 61.3184H63.5129C62.8936 61.3184 62.3916 61.8204 62.3916 62.4397C62.3916 63.0589 62.8936 63.5609 63.5129 63.5609H108.702C109.322 63.5609 109.824 63.0589 109.824 62.4397C109.824 61.8204 109.322 61.3184 108.702 61.3184Z" fill="#1DC895"/>
<path d="M108.702 67.1494H63.5129C62.8936 67.1494 62.3916 67.6514 62.3916 68.2707C62.3916 68.89 62.8936 69.392 63.5129 69.392H108.702C109.322 69.392 109.824 68.89 109.824 68.2707C109.824 67.6514 109.322 67.1494 108.702 67.1494Z" fill="#1DC895"/>
<path d="M58.5358 58.4007C59.3441 58.4007 59.9994 57.7455 59.9994 56.9372C59.9994 56.1289 59.3441 55.4736 58.5358 55.4736C57.7275 55.4736 57.0723 56.1289 57.0723 56.9372C57.0723 57.7455 57.7275 58.4007 58.5358 58.4007Z" fill="#1DC895"/>
<path d="M108.702 30.3633H63.5129C62.8936 30.3633 62.3916 30.8653 62.3916 31.4846C62.3916 32.1038 62.8936 32.6059 63.5129 32.6059H108.702C109.322 32.6059 109.824 32.1038 109.824 31.4846C109.824 30.8653 109.322 30.3633 108.702 30.3633Z" fill="#F3F3F3"/>
<path d="M108.702 36.1943H63.5129C62.8936 36.1943 62.3916 36.6964 62.3916 37.3156C62.3916 37.9349 62.8936 38.4369 63.5129 38.4369H108.702C109.322 38.4369 109.824 37.9349 109.824 37.3156C109.824 36.6964 109.322 36.1943 108.702 36.1943Z" fill="#F3F3F3"/>
<path d="M108.702 42.0244H63.5129C62.8936 42.0244 62.3916 42.5264 62.3916 43.1457C62.3916 43.765 62.8936 44.267 63.5129 44.267H108.702C109.322 44.267 109.824 43.765 109.824 43.1457C109.824 42.5264 109.322 42.0244 108.702 42.0244Z" fill="#F3F3F3"/>
<path d="M58.5358 33.0326C59.3441 33.0326 59.9994 32.3773 59.9994 31.569C59.9994 30.7607 59.3441 30.1055 58.5358 30.1055C57.7275 30.1055 57.0723 30.7607 57.0723 31.569C57.0723 32.3773 57.7275 33.0326 58.5358 33.0326Z" fill="#F3F3F3"/>
<path d="M108.702 80.8564H63.5129C62.8936 80.8564 62.3916 81.3585 62.3916 81.9777C62.3916 82.597 62.8936 83.099 63.5129 83.099H108.702C109.322 83.099 109.824 82.597 109.824 81.9777C109.824 81.3585 109.322 80.8564 108.702 80.8564Z" fill="#F3F3F3"/>
<path d="M108.702 86.6865H63.5129C62.8936 86.6865 62.3916 87.1885 62.3916 87.8078C62.3916 88.4271 62.8936 88.9291 63.5129 88.9291H108.702C109.322 88.9291 109.824 88.4271 109.824 87.8078C109.824 87.1885 109.322 86.6865 108.702 86.6865Z" fill="#F3F3F3"/>
<path d="M108.702 92.5176H63.5129C62.8936 92.5176 62.3916 93.0196 62.3916 93.6389C62.3916 94.2581 62.8936 94.7602 63.5129 94.7602H108.702C109.322 94.7602 109.824 94.2581 109.824 93.6389C109.824 93.0196 109.322 92.5176 108.702 92.5176Z" fill="#F3F3F3"/>
<path d="M58.5358 83.5257C59.3441 83.5257 59.9994 82.8705 59.9994 82.0622C59.9994 81.2539 59.3441 80.5986 58.5358 80.5986C57.7275 80.5986 57.0723 81.2539 57.0723 82.0622C57.0723 82.8705 57.7275 83.5257 58.5358 83.5257Z" fill="#F3F3F3"/>
</svg>
