<svg width="277" height="169" viewBox="0 0 277 169" fill="none" xmlns="http://www.w3.org/2000/svg">
<path d="M273.339 94.553L273.339 94.5529L276.401 45.6117L276.9 45.6429L276.401 45.6117C277.899 21.688 262.21 1.41933 242.449 1.34406L242.449 1.34406L36.3916 0.500239C17.8833 0.424967 2.56839 18.2217 2.14658 40.7172L0.509186 126.377C0.0238342 151.956 18.7547 171.701 39.5608 168.066C39.5609 168.066 39.561 168.066 39.5611 168.066L244.193 132.191C259.965 129.428 272.137 113.843 273.339 94.553Z" stroke="#1DC895"/>
<path opacity="0.15" d="M13.6556 59.179V49.6956C13.6556 44.7291 14.249 40.6415 15.4562 37.4531C16.6634 34.2647 18.7095 31.5669 21.615 29.3391C24.5205 27.1113 27.7943 25.6398 31.4159 24.8835V32.4866C28.8378 33.9786 27.3646 35.9611 27.0168 38.4341H31.4159V59.179H13.6556ZM37.3906 59.179V49.6956C37.3906 44.7291 37.9839 40.6415 39.1912 37.4531C40.3984 34.2647 42.4445 31.5669 45.309 29.3391C48.1941 27.1113 51.4678 25.6398 55.1304 24.8835V32.4866C52.5523 33.9786 51.0791 35.9611 50.7312 38.4341H55.1304V59.179H37.3906Z" fill="#18A97D"/>
<path opacity="0.15" d="M222.74 89V98.4834C222.74 103.409 222.146 107.476 220.98 110.685C219.793 113.894 217.768 116.592 214.862 118.799C211.957 121.006 208.663 122.498 205 123.275V115.611C207.619 114.18 209.113 112.197 209.461 109.724H205V89H222.74ZM246.454 89V98.4834C246.454 103.409 245.861 107.476 244.695 110.685C243.508 113.894 241.482 116.592 238.577 118.799C235.671 121.006 232.377 122.498 228.714 123.275V115.611C231.293 114.18 232.745 112.197 233.114 109.724H228.714V89H246.454Z" fill="#18A97D"/>
</svg>
