<svg width="16" height="16" viewBox="0 0 16 16" fill="none" xmlns="http://www.w3.org/2000/svg">
<path d="M10.165 8.11516L11.805 9.75516C12.065 10.0152 12.065 10.4352 11.805 10.6952C11.545 10.9552 11.125 10.9552 10.865 10.6952L8.745 8.58183C8.485 8.32183 8.485 7.90183 8.745 7.64183L10.865 5.5285C11.125 5.2685 11.545 5.2685 11.805 5.5285C12.065 5.7885 12.065 6.2085 11.805 6.4685L10.165 8.11516ZM5.49167 8.11516L7.13167 6.47516C7.39167 6.21516 7.39167 5.79516 7.13167 5.53516C6.87167 5.27516 6.45167 5.27516 6.19167 5.53516L4.07167 7.6485C3.81167 7.9085 3.81167 8.3285 4.07167 8.5885L6.185 10.7018C6.445 10.9618 6.865 10.9618 7.125 10.7018C7.385 10.4418 7.385 10.0218 7.125 9.76183L5.49167 8.11516Z" fill="#757575"/>
</svg>
