<svg width="12" height="12" viewBox="0 0 12 12" fill="none" xmlns="http://www.w3.org/2000/svg">
<path d="M5.04 5.43C5.065 5.265 5.12 5.12 5.19 4.995C5.26 4.87 5.36 4.765 5.485 4.685C5.605 4.61 5.755 4.575 5.94 4.57C6.055 4.575 6.16 4.595 6.255 4.635C6.355 4.68 6.445 4.74 6.515 4.815C6.585 4.89 6.64 4.98 6.685 5.08C6.73 5.18 6.75 5.29 6.755 5.4H7.65C7.64 5.165 7.595 4.95 7.51 4.755C7.425 4.56 7.31 4.39 7.16 4.25C7.01 4.11 6.83 4 6.62 3.92C6.41 3.84 6.18 3.805 5.925 3.805C5.6 3.805 5.315 3.86 5.075 3.975C4.835 4.09 4.635 4.24 4.475 4.435C4.315 4.63 4.195 4.855 4.12 5.115C4.045 5.375 4 5.645 4 5.935V6.07C4 6.36 4.04 6.63 4.115 6.89C4.19 7.15 4.31 7.375 4.47 7.565C4.63 7.755 4.83 7.91 5.07 8.02C5.31 8.13 5.595 8.19 5.92 8.19C6.155 8.19 6.375 8.15 6.58 8.075C6.785 8 6.965 7.895 7.12 7.76C7.275 7.625 7.4 7.47 7.49 7.29C7.58 7.11 7.635 6.92 7.64 6.715H6.745C6.74 6.82 6.715 6.915 6.67 7.005C6.625 7.095 6.565 7.17 6.49 7.235C6.415 7.3 6.33 7.35 6.23 7.385C6.135 7.42 6.035 7.43 5.93 7.435C5.75 7.43 5.6 7.395 5.485 7.32C5.36 7.24 5.26 7.135 5.19 7.01C5.12 6.885 5.065 6.735 5.04 6.57C5.015 6.405 5 6.235 5 6.07V5.935C5 5.76 5.015 5.595 5.04 5.43ZM6 1C3.24 1 1 3.24 1 6C1 8.76 3.24 11 6 11C8.76 11 11 8.76 11 6C11 3.24 8.76 1 6 1ZM6 10C3.795 10 2 8.205 2 6C2 3.795 3.795 2 6 2C8.205 2 10 3.795 10 6C10 8.205 8.205 10 6 10Z" fill="#757575"/>
</svg>
