<svg width="12" height="12" viewBox="0 0 12 12" fill="none" xmlns="http://www.w3.org/2000/svg">
<path d="M1.96 11L1.26 10.3L10.661 0.92L11.361 1.613L1.96 11ZM9.261 11.21C8.799 11.21 8.37667 11.098 7.994 10.874C7.616 10.6453 7.31267 10.342 7.084 9.964C6.85533 9.58133 6.741 9.15667 6.741 8.69C6.741 8.23267 6.85767 7.81267 7.091 7.43C7.32433 7.04733 7.63233 6.74167 8.015 6.513C8.39767 6.28433 8.813 6.17 9.261 6.17C9.723 6.17 10.1453 6.28433 10.528 6.513C10.9107 6.737 11.214 7.04033 11.438 7.423C11.6667 7.801 11.781 8.22333 11.781 8.69C11.781 9.15667 11.6667 9.58133 11.438 9.964C11.214 10.342 10.9107 10.6453 10.528 10.874C10.1453 11.098 9.723 11.21 9.261 11.21ZM9.261 10.279C9.54567 10.279 9.80933 10.2067 10.052 10.062C10.2947 9.91733 10.4883 9.726 10.633 9.488C10.7777 9.24533 10.85 8.97933 10.85 8.69C10.85 8.40067 10.7777 8.137 10.633 7.899C10.4883 7.65633 10.2947 7.46267 10.052 7.318C9.80933 7.17333 9.54567 7.101 9.261 7.101C8.97167 7.101 8.70567 7.17333 8.463 7.318C8.225 7.46267 8.03133 7.65633 7.882 7.899C7.73733 8.137 7.665 8.40067 7.665 8.69C7.665 8.97933 7.73733 9.24533 7.882 9.488C8.03133 9.726 8.225 9.91733 8.463 10.062C8.70567 10.2067 8.97167 10.279 9.261 10.279ZM3.36 5.75C2.898 5.75 2.47567 5.638 2.093 5.414C1.71033 5.18533 1.40467 4.882 1.176 4.504C0.952 4.12133 0.84 3.69667 0.84 3.23C0.84 2.77267 0.956667 2.35267 1.19 1.97C1.42333 1.58733 1.73133 1.28167 2.114 1.053C2.49667 0.824333 2.912 0.71 3.36 0.71C3.822 0.71 4.242 0.824333 4.62 1.053C5.00267 1.277 5.30833 1.58033 5.537 1.963C5.76567 2.341 5.88 2.76333 5.88 3.23C5.88 3.69667 5.76567 4.12133 5.537 4.504C5.30833 4.882 5.00267 5.18533 4.62 5.414C4.242 5.638 3.822 5.75 3.36 5.75ZM3.36 4.819C3.64933 4.819 3.913 4.74667 4.151 4.602C4.39367 4.45733 4.58733 4.266 4.732 4.028C4.87667 3.78533 4.949 3.51933 4.949 3.23C4.949 2.94067 4.87667 2.677 4.732 2.439C4.58733 2.19633 4.39367 2.00267 4.151 1.858C3.913 1.71333 3.64933 1.641 3.36 1.641C3.07067 1.641 2.80467 1.71333 2.562 1.858C2.324 2.00267 2.13267 2.19633 1.988 2.439C1.84333 2.677 1.771 2.94067 1.771 3.23C1.771 3.51933 1.84333 3.78533 1.988 4.028C2.13267 4.266 2.324 4.45733 2.562 4.602C2.80467 4.74667 3.07067 4.819 3.36 4.819Z" fill="#757575"/>
</svg>
