<svg width="314" height="236" viewBox="0 0 314 236" fill="none" xmlns="http://www.w3.org/2000/svg">
<g clip-path="url(#clip0_3576_22231)">
<path d="M262.685 58.4519C249.206 44.6168 229.065 34.8154 207.308 33.7614C191.83 33.0141 176.063 36.2238 160.911 33.5315C149.643 31.5291 139.664 26.4319 129.079 22.7241C109.86 15.9981 87.9307 13.919 67.6643 18.1539C47.3882 22.3887 30.1694 41.5892 20.8053 56.7273C2.7886 85.8441 -16.9394 179.058 99.6598 217.498C122.714 225.095 148.307 227.97 172.89 224.731C203.953 220.65 230.411 205.081 252.658 187.106C283.836 161.918 304.814 101.691 262.685 58.4519Z" fill="#F0FDF9"/>
<path d="M169.887 188.921V57.2293C169.887 53.0453 173.282 49.6502 177.466 49.6502H288.232C292.416 49.6502 295.811 53.0453 295.811 57.2293V185.268C295.811 192.644 289.827 198.627 282.452 198.627H179.585C174.23 198.627 169.887 194.284 169.887 188.921Z" fill="#18A87C"/>
<path d="M291.147 55.2969V184.258C291.147 187.963 289.126 191.208 286.13 192.927C284.658 193.778 282.956 194.257 281.148 194.257H175.231C169.708 194.257 165.223 189.78 165.223 184.249V55.2969C165.223 53.4796 165.71 51.7776 166.552 50.2973C167.04 49.4463 167.652 48.6751 168.379 48.0014C170.16 46.3171 172.572 45.2711 175.222 45.2711H281.139C286.662 45.28 291.147 49.7654 291.147 55.2969Z" fill="white"/>
<g opacity="0.6314">
<g opacity="0.6314">
<g opacity="0.6314">
<path opacity="0.6314" d="M182.181 72.0255L244.855 72.0255V66.76L182.181 66.76V72.0255Z" fill="#1DC895"/>
<path opacity="0.6314" d="M253.081 72.0255H274.613V66.76H253.081V72.0255Z" fill="#1DC895"/>
</g>
<g opacity="0.6314">
<path opacity="0.6314" d="M274.619 88.0867H211.945V93.3522H274.619V88.0867Z" fill="#1DC895"/>
<path opacity="0.6314" d="M203.72 88.0867H182.188V93.3522H203.72V88.0867Z" fill="#1DC895"/>
</g>
<path opacity="0.6314" d="M182.189 82.6901L274.613 82.6901V77.4246L182.189 77.4246V82.6901Z" fill="#1DC895"/>
<path opacity="0.6314" d="M182.187 104.019L253.965 104.019V98.7538L182.187 98.7538V104.019Z" fill="#1DC895"/>
<path opacity="0.6314" d="M182.189 118.975L274.613 118.975V113.709L182.189 113.709V118.975Z" fill="#1DC895"/>
<path opacity="0.6314" d="M182.187 129.689H253.965V124.424L182.187 124.424V129.689Z" fill="#1DC895"/>
</g>
<path opacity="0.6314" d="M226.246 139.27H182.188V174.09H226.246V139.27Z" fill="#1DC895"/>
<path opacity="0.6314" d="M274.611 139.27H232.84V174.09H274.611V139.27Z" fill="#1DC895"/>
</g>
<path d="M60.9023 33.6763V16.0448C60.9023 15.0342 61.7268 14.2098 62.7374 14.2098H99.0919C100.102 14.2098 100.927 15.0254 100.927 16.0448V33.6852C100.927 34.6957 100.102 35.5201 99.0919 35.5201H62.7374C61.7268 35.5113 60.9023 34.6869 60.9023 33.6763Z" fill="#F5842D"/>
<path d="M93.1186 42.2483L92.3208 35.0237H83.2344L93.1186 42.2483Z" fill="#F5842D"/>
<path d="M69.6875 24.865C69.6875 23.6417 70.6804 22.64 71.9126 22.64C73.1359 22.64 74.1376 23.6328 74.1376 24.865C74.1376 26.0883 73.1448 27.09 71.9126 27.09C70.6804 27.0811 69.6875 26.0883 69.6875 24.865Z" fill="white"/>
<path d="M78.8281 24.865C78.8281 23.6417 79.821 22.64 81.0532 22.64C82.2854 22.64 83.2783 23.6328 83.2783 24.865C83.2783 26.0883 82.2854 27.09 81.0532 27.09C79.821 27.09 78.8281 26.0883 78.8281 24.865Z" fill="white"/>
<path d="M87.9766 24.865C87.9766 23.6417 88.9694 22.64 90.2016 22.64C91.425 22.64 92.4267 23.6328 92.4267 24.865C92.4267 26.0883 91.4338 27.09 90.2016 27.09C88.9694 27.0811 87.9766 26.0883 87.9766 24.865Z" fill="white"/>
<path d="M191.76 58.5095C191.76 51.0456 185.714 45 178.25 45H154.51C147.046 45 141 51.0456 141 58.5095C141 65.9734 147.046 72.019 154.51 72.019H178.25C185.705 72.0102 191.76 65.9646 191.76 58.5095Z" fill="#18A87C"/>
<path d="M150.895 80.5644L151.914 71.3985H163.438L150.895 80.5644Z" fill="#18A87C"/>
<path d="M177.799 61.3284C179.356 61.3284 180.618 60.0664 180.618 58.5095C180.618 56.9527 179.356 55.6906 177.799 55.6906C176.243 55.6906 174.98 56.9527 174.98 58.5095C174.98 60.0664 176.243 61.3284 177.799 61.3284Z" fill="white"/>
<path d="M169.021 58.5095C169.021 56.9494 167.762 55.6906 166.202 55.6906C164.642 55.6906 163.383 56.9494 163.383 58.5095C163.383 60.0697 164.642 61.3284 166.202 61.3284C167.762 61.3196 169.021 60.0608 169.021 58.5095Z" fill="white"/>
<path d="M154.608 61.3284C156.165 61.3284 157.427 60.0664 157.427 58.5095C157.427 56.9527 156.165 55.6906 154.608 55.6906C153.051 55.6906 151.789 56.9527 151.789 58.5095C151.789 60.0664 153.051 61.3284 154.608 61.3284Z" fill="white"/>
<path d="M203.224 25.1309L196.78 32.0186L199.324 40.2272C199.342 40.2715 199.333 40.3158 199.315 40.3513C199.28 40.4577 199.138 40.5463 199.023 40.4754L190.583 36.3357L182.312 40.3956C182.073 40.502 181.816 40.2892 181.896 40.041L184.369 32.0186L177.951 25.1664C177.756 24.9536 177.862 24.6079 178.146 24.5547L182.569 23.6062L186.497 22.7641L190.344 16.1068C190.441 15.9118 190.716 15.9118 190.823 16.1068L194.661 22.7641L203.047 24.5636C203.304 24.6168 203.411 24.9359 203.224 25.1309Z" fill="#FCCE08"/>
<path d="M189.288 17.9329L186.576 22.7286L178.456 24.537C178.172 24.599 178.057 24.9448 178.243 25.1664L179.883 27.152" stroke="#18A87C" stroke-miterlimit="10"/>
<path d="M191.699 36.965L197.275 39.6067" stroke="#18A87C" stroke-miterlimit="10"/>
<path d="M232.612 25.1309L226.167 32.0186L228.703 40.2272C228.721 40.2715 228.712 40.3158 228.694 40.3513C228.659 40.4577 228.517 40.5463 228.401 40.4754L219.962 36.3357L211.691 40.3956C211.452 40.502 211.195 40.2892 211.275 40.041L213.748 32.0186L207.33 25.1664C207.135 24.9536 207.241 24.6079 207.525 24.5547L211.948 23.6062L215.875 22.7641L219.723 16.1068C219.82 15.9118 220.095 15.9118 220.201 16.1068L224.04 22.7641L232.426 24.5636C232.692 24.6168 232.789 24.9359 232.612 25.1309Z" fill="#FCCE08"/>
<path d="M218.667 17.9329L215.955 22.7286L207.835 24.537C207.551 24.599 207.436 24.9448 207.622 25.1664L209.262 27.152" stroke="#18A87C" stroke-miterlimit="10"/>
<path d="M261.991 25.1309L255.546 32.0186L258.082 40.2272C258.099 40.2715 258.091 40.3158 258.073 40.3513C258.037 40.4577 257.896 40.5463 257.78 40.4754L249.341 36.3357L241.07 40.3956C240.831 40.502 240.574 40.2892 240.654 40.041L243.127 32.0186L236.709 25.1664C236.514 24.9536 236.62 24.6079 236.904 24.5547L241.327 23.6062L245.254 22.7641L249.102 16.1068C249.199 15.9118 249.474 15.9118 249.58 16.1068L253.419 22.7641L261.805 24.5636C262.071 24.6168 262.177 24.9359 261.991 25.1309Z" fill="#FCCE08"/>
<path d="M249.004 16.3462L245.334 22.7286L237.214 24.537C236.93 24.5991 236.815 24.9448 237.001 25.1664L238.641 27.152" stroke="#18A87C" stroke-miterlimit="10"/>
<path d="M250.465 36.9651L256.032 39.6067" stroke="#18A87C" stroke-miterlimit="10"/>
<path d="M217.208 204.137L235.082 220.014L303.891 142.557L286.017 126.68L217.208 204.137Z" fill="#FBCD05"/>
<path d="M307.677 138.286L311.383 134.12C315.186 129.839 314.796 123.288 310.514 119.485L308.138 117.375C303.856 113.572 297.305 113.962 293.502 118.244L289.797 122.41L307.677 138.286Z" fill="#FCCE08"/>
<g opacity="0.1412">
<path opacity="0.1412" d="M229.57 215.106L298.379 137.648" stroke="#8C753F" stroke-width="3" stroke-miterlimit="10"/>
<path opacity="0.1412" d="M222.719 209.025L291.536 131.558" stroke="#8C753F" stroke-width="3" stroke-miterlimit="10"/>
</g>
<path d="M286.021 126.679L303.895 142.556L306.638 139.468L288.764 123.591L286.021 126.679Z" fill="#18A87C"/>
<path d="M288.587 123.791L306.461 139.668L308.162 137.753L290.288 121.876L288.587 123.791Z" fill="#7AC143"/>
<path d="M217.203 204.123L235.084 220L220.138 225.221L214.083 227.331C213.134 227.659 212.186 226.825 212.408 225.841L213.79 219.574L217.203 204.123Z" fill="#FFE29E"/>
<path d="M213.783 219.583C215.201 219.813 216.593 220.452 217.763 221.498C218.942 222.544 219.731 223.838 220.13 225.221L214.075 227.331C213.127 227.659 212.178 226.825 212.4 225.841L213.783 219.583Z" fill="#1DC895"/>
<path d="M25.4961 49.5083C25.4961 48.1964 26.5599 47.1326 27.8719 47.1326C29.1838 47.1326 30.2476 48.1964 30.2476 49.5083C30.2476 50.8203 29.1838 51.884 27.8719 51.884C26.5599 51.8929 25.4961 50.8291 25.4961 49.5083Z" stroke="#757575" stroke-miterlimit="10"/>
<path d="M281.562 22.5159C281.562 21.2039 282.626 20.1402 283.938 20.1402C285.25 20.1402 286.314 21.2039 286.314 22.5159C286.314 23.8278 285.25 24.8916 283.938 24.8916C282.626 24.8916 281.562 23.8278 281.562 22.5159Z" fill="#1DC895"/>
<path d="M2.37577 72.0508C3.68787 72.0508 4.75153 70.9872 4.75153 69.6751C4.75153 68.363 3.68787 67.2994 2.37577 67.2994C1.06367 67.2994 0 68.363 0 69.6751C0 70.9872 1.06367 72.0508 2.37577 72.0508Z" fill="#18A87C"/>
<path d="M21.5948 44.6329C23.7441 44.6329 25.4864 42.8906 25.4864 40.7413C25.4864 38.5921 23.7441 36.8498 21.5948 36.8498C19.4455 36.8498 17.7031 38.5921 17.7031 40.7413C17.7031 42.8906 19.4455 44.6329 21.5948 44.6329Z" fill="#18A87C"/>
<path d="M171.038 235.548C173.285 235.548 175.107 233.726 175.107 231.479C175.107 229.232 173.285 227.41 171.038 227.41C168.79 227.41 166.969 229.232 166.969 231.479C166.969 233.726 168.79 235.548 171.038 235.548Z" stroke="#1DC895" stroke-miterlimit="10"/>
<path d="M296.129 13.5184C296.129 11.2668 297.955 9.44958 300.198 9.44958C302.45 9.44958 304.267 11.2757 304.267 13.5184C304.267 15.77 302.441 17.5872 300.198 17.5872C297.946 17.5872 296.129 15.77 296.129 13.5184Z" stroke="#F5842D" stroke-miterlimit="10"/>
<path d="M138.479 136.533H22V219.998H138.479V136.533Z" fill="#202020"/>
<path opacity="0.3" d="M149.822 107.025H128.273V87.2308C128.273 83.2374 131.49 80 135.458 80C137.442 80 139.24 80.8105 140.539 82.1183C141.821 83.4087 142.626 85.1954 142.643 87.1643V87.2308L142.637 99.7945C142.637 99.8555 142.637 99.921 142.642 99.9821V100.363L142.664 100.352C142.944 104.086 146.04 107.025 149.822 107.025Z" fill="#18A87C"/>
<path opacity="0.3" d="M157 95.4259V99.7999C157 101.796 156.201 103.606 154.896 104.907C153.603 106.219 151.804 107.025 149.821 107.025C146.039 107.025 142.943 104.086 142.664 100.352L157 95.4259Z" fill="#1DC895"/>
<path d="M135.458 80C135.304 80 135.157 80.0055 135.008 80.0164C134.91 80.0218 134.817 80.0273 134.723 80.0382C134.619 80.0491 134.521 80.06 134.417 80.0764C134.356 80.0818 134.296 80.0927 134.236 80.1036C134.159 80.1145 134.082 80.1309 134.011 80.1473C133.902 80.1691 133.798 80.1909 133.688 80.2192C133.534 80.2574 133.381 80.3021 133.228 80.3567C133.151 80.3785 133.074 80.4069 133.003 80.4341C132.932 80.4559 132.855 80.4898 132.784 80.517C132.68 80.5552 132.582 80.5999 132.483 80.649C132.395 80.6872 132.307 80.7265 132.22 80.7755C132.198 80.7865 132.17 80.7974 132.143 80.8137C132.066 80.8519 131.989 80.8966 131.913 80.9403C131.611 81.1115 131.321 81.3046 131.052 81.5195C130.975 81.5805 130.893 81.646 130.822 81.7071C130.735 81.7791 130.658 81.85 130.575 81.9274C130.493 82.0049 130.416 82.0823 130.34 82.1587C130.127 82.379 129.924 82.6113 129.737 82.8589C129.655 82.9691 129.578 83.0738 129.502 83.184C129.262 83.5538 129.052 83.9399 128.873 84.3479C128.829 84.4471 128.79 84.5518 128.747 84.6566C128.632 84.9707 128.533 85.2968 128.456 85.6274C128.435 85.743 128.413 85.8531 128.39 85.9633C128.352 86.1891 128.319 86.4214 128.302 86.6527V188.079H32.2461V91.2733C32.2461 85.046 37.2612 80 43.448 80H135.458Z" fill="white"/>
<g opacity="0.3">
<path d="M116.49 90.3352H43.6016V94.1955H116.49V90.3352Z" fill="#1DC895"/>
<path d="M110.842 101.642H43.6016V105.503H110.842V101.642Z" fill="#1DC895"/>
<path d="M107.298 112.948H43.6016V116.809H107.298V112.948Z" fill="#1DC895"/>
<path d="M116.49 124.254H43.6016V128.114H116.49V124.254Z" fill="#1DC895"/>
<path d="M111.285 135.699H71.7695V139.559H111.285V135.699Z" fill="#1DC895"/>
</g>
<path d="M79.7199 157.377C79.2842 157.377 78.8821 157.228 78.6068 156.846C78.2686 156.375 78.2924 155.73 78.3087 155.303L78.6805 145.327L79.2278 145.348L78.8561 155.324C78.8387 155.789 78.8409 156.231 79.0512 156.523C79.5172 157.17 80.6369 156.61 80.8569 156.491C81.9603 155.896 82.7526 154.774 83.5189 153.69C84.3708 152.485 85.252 151.239 86.5841 150.653C87.3742 150.305 87.9563 150.816 88.4234 151.223C88.689 151.454 88.9394 151.672 89.2038 151.752C89.9008 151.959 90.5944 151.778 91.3282 151.584C91.9764 151.413 92.6495 151.235 93.3399 151.343C93.9718 151.44 94.4812 151.693 94.9744 151.938C95.7027 152.3 96.3325 152.614 97.2429 152.391C98.4981 152.087 99.6643 151.368 100.792 150.672C101.119 150.47 101.444 150.269 101.774 150.076C103.041 149.336 104.946 148.401 106.841 148.838L106.718 149.376C105.009 148.983 103.235 149.859 102.048 150.554C101.723 150.744 101.401 150.944 101.077 151.142C99.9125 151.86 98.7094 152.603 97.3697 152.927C96.2653 153.194 95.4838 152.808 94.7305 152.432C94.2753 152.207 93.8038 151.972 93.2564 151.888C92.6776 151.8 92.0891 151.955 91.4659 152.117C90.6909 152.321 89.8932 152.532 89.0467 152.281C88.6684 152.167 88.3595 151.899 88.0625 151.639C87.5737 151.213 87.2518 150.962 86.8009 151.158C85.6075 151.683 84.8087 152.813 83.9633 154.01C83.1601 155.145 82.3299 156.32 81.1138 156.977C80.6835 157.209 80.1827 157.377 79.7199 157.377Z" fill="#202020"/>
<path d="M128.3 140.028V188.083H32.2461V135.843L62.251 160.965C63.9061 162.354 66.076 162.884 68.2134 162.58C68.8323 162.492 69.4686 162.459 70.1037 162.475L90.5564 163.055C91.2631 163.076 91.9644 163.165 92.6505 163.314C94.7716 163.778 96.9914 163.352 98.7386 162.051L128.3 140.028Z" fill="#F0FDF9"/>
<path d="M65.7979 171.135L64.9969 172.028L28.8486 212.367L22.0039 220V136.532L65.7979 171.135Z" fill="#1DC895"/>
<path d="M138.479 136.533L94.6836 171.135L138.479 219.998V136.533Z" fill="#1DC895"/>
<path d="M64.9969 172.028L28.8486 212.367L22.0039 213.883V199.053C40.0721 186.02 60.3449 170.908 64.9753 170.583L64.9969 172.028Z" fill="#18A87C"/>
<path d="M95.4844 172.028L131.633 212.367L138.477 213.883V199.053C120.409 186.02 100.136 170.908 95.5061 170.583L95.4844 172.028Z" fill="#18A87C"/>
<path d="M138.479 219.998H22L22.0217 209.018L62.1576 172.375C64.2636 170.452 67.0058 169.388 69.8488 169.388H90.3102C93.1109 169.388 95.8152 170.422 97.9103 172.292L138.593 208.639L138.479 219.998Z" fill="#1DC895"/>
</g>
<defs>
<clipPath id="clip0_3576_22231">
<rect width="314" height="236" fill="white"/>
</clipPath>
</defs>
</svg>
