<svg width="200" height="48" viewBox="0 0 200 48" fill="none" xmlns="http://www.w3.org/2000/svg">
<g clip-path="url(#clip0_3550_21462)">
<path fill-rule="evenodd" clip-rule="evenodd" d="M9.70312 47.973C11.4824 40.7393 13.2351 33.4694 14.961 26.1634L16.7626 35.3863C27.2253 28.0483 38.6604 22.2578 50.7253 18.1882C35.9963 26.5227 22.2358 36.5137 9.70312 47.973Z" fill="#18A87C"/>
<path fill-rule="evenodd" clip-rule="evenodd" d="M31.961 17.1439L44.6787 18.1068L36.7518 21.4841L29.252 20.928L25.0617 10.5115L20.8714 20.928L9.83519 21.7553L12.5309 24.0747L11.49 28.3877L0 18.5002L18.1757 17.1439L25.0617 0L31.961 17.1439Z" fill="#313131"/>
<path fill-rule="evenodd" clip-rule="evenodd" d="M40.2598 47.9866L36.4832 37.7464L31.8125 41.2185L40.2598 47.9866Z" fill="#313131"/>
<path fill-rule="evenodd" clip-rule="evenodd" d="M30.4414 34.3148L37.7678 37.2988L31.0152 42.3036L30.4414 34.3148Z" fill="#313131"/>
<path fill-rule="evenodd" clip-rule="evenodd" d="M58.0117 41.3573V19.4799C61.6398 17.952 65.5214 17.1418 69.4483 17.0928V21.1618C67.0329 21.202 64.6312 21.539 62.2954 22.1655V41.398L58.0117 41.3573ZM72.6911 29.693C72.6911 21.3019 76.143 17.1019 83.0468 17.0928C84.4475 17.0314 85.8448 17.2797 87.1419 17.8207C88.4391 18.3616 89.6053 19.1822 90.5599 20.2259C92.5119 22.5543 93.5145 25.5529 93.3624 28.608C93.3624 29.7473 93.3624 30.8323 93.2289 31.8767H77.0949C77.6154 35.9457 79.7639 38.0479 83.7674 38.0479C86.5724 38.1331 89.3548 37.5135 91.8677 36.244V40.2316C89.2612 41.2995 86.4705 41.8253 83.6606 41.7778H83.5272C82.2376 41.7869 80.953 41.6134 79.7105 41.2624C78.4905 40.8806 77.344 40.2888 76.3209 39.5128C75.0894 38.5579 74.1613 37.2561 73.6519 35.7693C72.9785 33.8185 72.6575 31.7599 72.7045 29.693H72.6911ZM77.0015 27.9569H89.0119C88.9634 27.1845 88.8291 26.4201 88.6116 25.6783C88.389 24.9101 88.0753 24.1723 87.6774 23.4811C87.2477 22.7165 86.6139 22.0911 85.8492 21.6772C84.965 21.223 83.9837 20.9993 82.9934 21.0261C82.1999 20.9572 81.4011 21.0594 80.6491 21.3258C79.8971 21.5923 79.2089 22.017 78.6296 22.5724C77.5199 24.1551 76.9313 26.0542 76.9481 27.9976L77.0015 27.9569ZM95.9513 17.4862H100.542L107.214 36.0948L113.887 17.4862H118.477L109.35 41.3573H104.932L96.0047 17.4862H95.9513ZM121.667 29.693C121.667 21.3019 125.119 17.1019 132.023 17.0928C133.423 17.0314 134.821 17.2797 136.118 17.8207C137.415 18.3616 138.581 19.1822 139.536 20.2259C141.488 22.5543 142.49 25.5529 142.338 28.608C142.338 29.7473 142.338 30.8323 142.205 31.8767H126.071C126.591 35.9457 128.806 38.0479 132.743 38.0479C135.548 38.1331 138.331 37.5135 140.844 36.244V40.2316C138.241 41.298 135.455 41.8238 132.65 41.7778H132.503C131.213 41.7869 129.929 41.6134 128.686 41.2624C127.466 40.8806 126.32 40.2888 125.297 39.5128C124.085 38.5529 123.18 37.2505 122.694 35.7693C122.009 33.8211 121.684 31.7613 121.734 29.693H121.667ZM125.977 27.9569H137.988C137.939 27.1845 137.805 26.4201 137.587 25.6783C137.365 24.9101 137.051 24.1723 136.653 23.4811C136.223 22.7165 135.59 22.0911 134.825 21.6772C133.941 21.223 132.959 20.9993 131.969 21.0261C131.178 20.9566 130.381 21.0585 129.631 21.325C128.881 21.5915 128.195 22.0167 127.619 22.5724C126.498 24.1505 125.905 26.0517 125.924 27.9976L125.977 27.9569ZM145.528 17.4862H149.905L155.55 35.1183L160.727 17.4862H164.731L169.975 35.1183L174.886 17.4862H179.263L171.857 41.3573H167.854L162.516 24.2135L157.178 41.3573H152.854L145.461 17.4862H145.528ZM183.747 24.2678C183.729 23.3269 183.903 22.3925 184.259 21.5238C184.615 20.6552 185.145 19.8714 185.816 19.2222C187.58 17.714 189.856 16.969 192.155 17.1471C194.338 17.1638 196.487 17.7028 198.427 18.7204V22.491C196.633 21.6218 194.675 21.1591 192.688 21.1346C189.579 21.1346 188.031 22.1519 188.031 24.1864C188.06 24.5539 188.191 24.9056 188.408 25.2008C188.625 25.496 188.92 25.7227 189.259 25.8546C190.214 26.3446 191.216 26.7354 192.248 27.0211C193.435 27.3562 194.602 27.7593 195.744 28.2282C196.94 28.7256 197.975 29.5523 198.734 30.6153C199.588 31.8217 200.029 33.2799 199.988 34.7656C199.997 35.7034 199.812 36.6326 199.444 37.4926C199.076 38.3526 198.534 39.1241 197.853 39.7569C196.438 41.1584 194.241 41.8547 191.261 41.8456C188.901 41.8835 186.571 41.3044 184.495 40.1638V36.1762C186.473 37.3263 188.714 37.9295 190.994 37.9259H191.074C192.276 38.0003 193.474 37.7125 194.517 37.0985C194.876 36.8783 195.174 36.5683 195.382 36.1979C195.59 35.8275 195.701 35.4091 195.704 34.9827C195.716 34.5138 195.608 34.0499 195.39 33.6363C195.173 33.2227 194.853 32.8734 194.463 32.6227C193.554 31.9935 192.542 31.5342 191.474 31.2663C190.3 30.9408 189.112 30.5611 187.951 30.1542C186.793 29.7467 185.762 29.0355 184.962 28.0926C184.086 27.0047 183.661 25.6141 183.774 24.2135L183.747 24.2678Z" fill="#313131"/>
</g>
<defs>
<clipPath id="clip0_3550_21462">
<rect width="200" height="47.973" fill="white"/>
</clipPath>
</defs>
</svg>
