<svg width="150" height="36" viewBox="0 0 150 36" fill="none" xmlns="http://www.w3.org/2000/svg">
<g clip-path="url(#clip0_3554_21657)">
<path fill-rule="evenodd" clip-rule="evenodd" d="M7.27734 35.9797C8.61183 30.5544 9.92631 25.1021 11.2208 19.6225L12.5719 26.5397C20.4189 21.0362 28.9953 16.6933 38.044 13.6412C26.9972 19.892 16.6769 27.3853 7.27734 35.9797Z" fill="white"/>
<path fill-rule="evenodd" clip-rule="evenodd" d="M23.9708 12.8579L33.509 13.5801L27.5639 16.1131L21.939 15.696L18.7963 7.8836L15.6536 15.696L7.37639 16.3165L9.39814 18.056L8.61747 21.2908L0 13.8751L13.6318 12.8579L18.7963 0L23.9708 12.8579Z" fill="white"/>
<path fill-rule="evenodd" clip-rule="evenodd" d="M30.1949 35.9899L27.3624 28.3098L23.8594 30.9139L30.1949 35.9899Z" fill="white"/>
<path fill-rule="evenodd" clip-rule="evenodd" d="M22.8281 25.7361L28.3229 27.9741L23.2585 31.7277L22.8281 25.7361Z" fill="white"/>
<path fill-rule="evenodd" clip-rule="evenodd" d="M43.5078 31.018V14.6099C46.2289 13.464 49.1401 12.8564 52.0852 12.8196V15.8713C50.2737 15.9015 48.4724 16.1543 46.7206 16.6241V31.0485L43.5078 31.018ZM54.5174 22.2698C54.5174 15.9764 57.1063 12.8264 62.2841 12.8196C63.3347 12.7735 64.3826 12.9598 65.3555 13.3655C66.3283 13.7712 67.203 14.3867 67.919 15.1694C69.383 16.9157 70.1349 19.1647 70.0208 21.456C70.0208 22.3104 70.0208 23.1242 69.9207 23.9075H57.8202C58.2106 26.9592 59.822 28.5359 62.8246 28.5359C64.9283 28.5998 67.0151 28.1351 68.8998 27.183V30.1737C66.945 30.9746 64.8519 31.3689 62.7445 31.3334H62.6444C61.6772 31.3402 60.7138 31.2101 59.7819 30.9468C58.8669 30.6604 58.007 30.2166 57.2397 29.6346C56.3161 28.9184 55.62 27.942 55.238 26.827C54.7329 25.3638 54.4921 23.8199 54.5274 22.2698H54.5174ZM57.7502 20.9677H66.758C66.7216 20.3883 66.6209 19.815 66.4577 19.2587C66.2908 18.6826 66.0555 18.1292 65.7571 17.6108C65.4348 17.0374 64.9594 16.5683 64.3859 16.2579C63.7228 15.9173 62.9868 15.7495 62.2441 15.7696C61.649 15.7179 61.0498 15.7945 60.4858 15.9943C59.9219 16.1942 59.4057 16.5128 58.9712 16.9293C58.1389 18.1163 57.6975 19.5406 57.7101 20.9982L57.7502 20.9677ZM71.9625 13.1146H75.4055L80.4098 27.0711L85.4141 13.1146H88.8571L82.0112 31.018H78.6983L72.0025 13.1146H71.9625ZM91.2492 22.2698C91.2492 15.9764 93.8381 12.8264 99.0159 12.8196C100.067 12.7735 101.114 12.9598 102.087 13.3655C103.06 13.7712 103.935 14.3867 104.651 15.1694C106.115 16.9157 106.867 19.1647 106.753 21.456C106.753 22.3104 106.753 23.1242 106.653 23.9075H94.5521C94.9424 26.9592 96.6038 28.5359 99.5564 28.5359C101.66 28.5998 103.747 28.1351 105.632 27.183V30.1737C103.68 30.9735 101.59 31.3678 99.4863 31.3334H99.3762C98.4091 31.3402 97.4456 31.2101 96.5138 30.9468C95.5987 30.6604 94.7388 30.2166 93.9715 29.6346C93.063 28.9146 92.384 27.9379 92.0199 26.827C91.5061 25.3658 91.2618 23.8209 91.2992 22.2698H91.2492ZM94.482 20.9677H103.49C103.453 20.3883 103.353 19.815 103.19 19.2587C103.023 18.6826 102.787 18.1292 102.489 17.6108C102.167 17.0374 101.691 16.5683 101.118 16.2579C100.455 15.9173 99.7186 15.7495 98.9759 15.7696C98.3823 15.7174 97.7845 15.7938 97.2221 15.9937C96.6597 16.1936 96.1453 16.5125 95.7131 16.9293C94.8728 18.1129 94.4274 19.5387 94.442 20.9982L94.482 20.9677ZM109.145 13.1146H112.428L116.661 26.3387L120.545 13.1146H123.547L127.481 26.3387L131.164 13.1146H134.447L128.892 31.018H125.889L121.886 18.1601L117.882 31.018H114.639L109.095 13.1146H109.145ZM137.81 18.2008C137.796 17.4952 137.926 16.7943 138.194 16.1428C138.461 15.4914 138.858 14.9035 139.361 14.4167C140.684 13.2855 142.391 12.7267 144.115 12.8603C145.752 12.8728 147.364 13.2771 148.819 14.0403V16.8682C147.474 16.2164 146.005 15.8693 144.515 15.851C142.183 15.851 141.022 16.6139 141.022 18.1398C141.044 18.4154 141.142 18.6791 141.305 18.9006C141.468 19.122 141.689 19.292 141.943 19.391C142.66 19.7584 143.411 20.0515 144.185 20.2658C145.075 20.5172 145.951 20.8194 146.807 21.1711C147.704 21.5442 148.481 22.1642 149.049 22.9615C149.69 23.8662 150.021 24.9599 149.99 26.0742C149.997 26.7775 149.858 27.4744 149.582 28.1194C149.306 28.7644 148.899 29.3431 148.389 29.8177C147.328 30.8688 145.68 31.391 143.444 31.3842C141.675 31.4126 139.927 30.9783 138.37 30.1228V27.1322C139.854 27.9947 141.535 28.4471 143.244 28.4444H143.304C144.206 28.5002 145.105 28.2843 145.887 27.8239C146.156 27.6587 146.379 27.4262 146.535 27.1484C146.691 26.8706 146.775 26.5568 146.777 26.237C146.786 25.8853 146.705 25.5374 146.542 25.2272C146.378 24.917 146.139 24.6551 145.847 24.467C145.165 23.9951 144.405 23.6506 143.605 23.4497C142.724 23.2056 141.833 22.9208 140.962 22.6156C140.094 22.31 139.321 21.7766 138.72 21.0694C138.064 20.2535 137.745 19.2105 137.83 18.1601L137.81 18.2008Z" fill="white"/>
</g>
<defs>
<clipPath id="clip0_3554_21657">
<rect width="150" height="35.9797" fill="white"/>
</clipPath>
</defs>
</svg>
