<svg width="20" height="16" viewBox="0 0 20 16" fill="none" xmlns="http://www.w3.org/2000/svg">
<path d="M19.8008 4.00006C19.8008 4.00006 19.6055 2.62115 19.0039 2.01569C18.2422 1.21881 17.3906 1.2149 17 1.16803C14.2031 0.964905 10.0039 0.964905 10.0039 0.964905H9.99609C9.99609 0.964905 5.79688 0.964905 3 1.16803C2.60938 1.2149 1.75781 1.21881 0.996094 2.01569C0.394531 2.62115 0.203125 4.00006 0.203125 4.00006C0.203125 4.00006 0 5.62116 0 7.23834V8.75397C0 10.3712 0.199219 11.9922 0.199219 11.9922C0.199219 11.9922 0.394531 13.3712 0.992187 13.9766C1.75391 14.7735 2.75391 14.7462 3.19922 14.8321C4.80078 14.9844 10 15.0313 10 15.0313C10 15.0313 14.2031 15.0235 17 14.8243C17.3906 14.7774 18.2422 14.7735 19.0039 13.9766C19.6055 13.3712 19.8008 11.9922 19.8008 11.9922C19.8008 11.9922 20 10.3751 20 8.75397V7.23834C20 5.62116 19.8008 4.00006 19.8008 4.00006ZM7.93359 10.5938V4.97272L13.3359 7.79303L7.93359 10.5938Z" fill="#18A87C"/>
</svg>
