<svg width="914" height="293" viewBox="0 0 914 293" fill="none" xmlns="http://www.w3.org/2000/svg">
<path d="M91.4415 239.619C94.8901 239.619 97.6857 236.661 97.6857 233.012C97.6857 229.364 94.8901 226.406 91.4415 226.406C87.9929 226.406 85.1973 229.364 85.1973 233.012C85.1973 236.661 87.9929 239.619 91.4415 239.619Z" fill="#F0FDF9"/>
<path d="M99.7835 182.638C99.8065 181.194 98.7187 180.004 97.3538 179.979C95.9889 179.955 94.8637 181.106 94.8406 182.55C94.8175 183.994 95.9053 185.184 97.2703 185.209C98.6352 185.233 99.7604 184.082 99.7835 182.638Z" fill="#F0FDF9"/>
<path d="M253.863 38.8725C256.234 38.8725 258.156 36.839 258.156 34.3306C258.156 31.8222 256.234 29.7888 253.863 29.7888C251.492 29.7888 249.57 31.8222 249.57 34.3306C249.57 36.839 251.492 38.8725 253.863 38.8725Z" fill="#F0FDF9"/>
<path d="M409.172 35.0581C409.172 37.9681 406.942 40.3275 404.191 40.3275C401.441 40.3275 399.211 37.9681 399.211 35.0581C399.211 32.1482 401.441 29.7888 404.191 29.7888C406.942 29.7888 409.172 32.1482 409.172 35.0581Z" fill="#F0FDF9"/>
<path d="M440.657 85.9624C440.657 89.2852 438.111 91.9789 434.97 91.9789C431.829 91.9789 429.283 89.2852 429.283 85.9624C429.283 82.6396 431.829 79.9459 434.97 79.9459C438.111 79.9262 440.657 82.6199 440.657 85.9624Z" fill="#F0FDF9"/>
<path d="M591.592 79.9458C595.04 79.9458 597.836 76.9881 597.836 73.3395C597.836 69.6909 595.04 66.7332 591.592 66.7332C588.143 66.7332 585.348 69.6909 585.348 73.3395C585.348 76.9881 588.143 79.9458 591.592 79.9458Z" fill="#F0FDF9"/>
<path d="M522.387 46.2456C522.387 47.7203 521.253 48.9 519.878 48.9C518.484 48.9 517.369 47.7006 517.369 46.2456C517.369 44.7907 518.503 43.5913 519.878 43.5913C521.272 43.5716 522.387 44.771 522.387 46.2456Z" fill="#F0FDF9"/>
<path d="M660.798 90.2486C660.798 92.608 658.977 94.5348 656.747 94.5348C654.517 94.5348 652.695 92.608 652.695 90.2486C652.695 87.8892 654.517 85.9623 656.747 85.9623C658.995 85.9623 660.798 87.8695 660.798 90.2486Z" fill="#F0FDF9"/>
<path d="M768.738 170.409C768.738 172.965 766.769 175.049 764.353 175.049C761.937 175.049 759.967 172.965 759.967 170.409C759.967 167.853 761.937 165.769 764.353 165.769C766.769 165.789 768.738 167.853 768.738 170.409Z" fill="#F0FDF9"/>
<path d="M765.022 285.706C765.022 289.736 761.937 293 758.127 293C754.317 293 751.232 289.736 751.232 285.706C751.232 281.675 754.317 278.411 758.127 278.411C761.937 278.411 765.022 281.675 765.022 285.706Z" fill="#F0FDF9"/>
<path d="M621.617 30.6378C622.126 34.4411 624.957 37.4367 628.552 37.9752C624.957 38.5137 622.126 41.5093 621.617 45.3126C621.108 41.5093 618.277 38.5137 614.682 37.9752C618.277 37.4367 621.108 34.4495 621.617 30.6378Z" fill="#F0FDF9"/>
<path d="M905.662 104.189C906.059 107.142 908.246 109.456 911.038 109.877C908.246 110.298 906.059 112.612 905.662 115.565C905.264 112.612 903.077 110.298 900.285 109.877C903.077 109.456 905.272 107.134 905.662 104.189Z" fill="#F0FDF9"/>
<path d="M581.884 232.619C582.282 235.573 584.469 237.887 587.261 238.307C584.469 238.728 582.282 241.042 581.884 243.996C581.487 241.042 579.299 238.728 576.508 238.307C579.299 237.887 581.487 235.564 581.884 232.619Z" fill="#F0FDF9"/>
<path d="M908.621 223.372C909.018 226.325 911.205 228.639 913.997 229.06C911.205 229.481 909.018 231.795 908.621 234.748C908.223 231.795 906.036 229.481 903.244 229.06C906.036 228.639 908.231 226.325 908.621 223.372Z" fill="#F0FDF9"/>
<path d="M581.884 119.907C582.202 122.297 583.975 124.173 586.234 124.51C583.975 124.846 582.202 126.723 581.884 129.113C581.566 126.723 579.792 124.846 577.533 124.51C579.784 124.173 581.558 122.297 581.884 119.907Z" fill="#F0FDF9"/>
<path d="M761.001 11.9155C761.319 14.3052 763.093 16.1817 765.351 16.5183C763.093 16.8548 761.319 18.7313 761.001 21.121C760.683 18.7313 758.909 16.8548 756.65 16.5183C758.909 16.1817 760.683 14.3052 761.001 11.9155Z" fill="#F0FDF9"/>
<path d="M880.357 32.3291C880.866 36.1324 883.689 39.1196 887.284 39.6581C883.689 40.1966 880.866 43.1838 880.357 46.9871C879.848 43.1838 877.025 40.1966 873.43 39.6581C877.025 39.1196 879.848 36.1324 880.357 32.3291Z" fill="#F0FDF9"/>
<path d="M293.377 18.7222C292.868 22.5256 290.037 25.5211 286.442 26.0597C290.037 26.5982 292.868 29.5938 293.377 33.3971C293.886 29.5938 296.718 26.5982 300.312 26.0597C296.718 25.5211 293.886 22.534 293.377 18.7222Z" fill="#F0FDF9"/>
<path d="M9.33454 92.2733C8.93688 95.2268 6.74972 97.5408 3.95812 97.9615C6.74972 98.3822 8.93688 100.696 9.33454 103.65C9.7322 100.696 11.9193 98.3822 14.7109 97.9615C11.9193 97.5408 9.72425 95.2184 9.33454 92.2733Z" fill="#F0FDF9"/>
<path d="M333.112 220.704C332.714 223.657 330.527 225.971 327.735 226.392C330.527 226.813 332.714 229.127 333.112 232.08C333.51 229.127 335.697 226.813 338.488 226.392C335.697 225.971 333.51 223.649 333.112 220.704Z" fill="#F0FDF9"/>
<path d="M6.3736 211.456C5.97594 214.41 3.78878 216.724 0.997179 217.144C3.78878 217.565 5.97594 219.879 6.3736 222.833C6.77127 219.879 8.9584 217.565 11.75 217.144C8.9584 216.724 6.76331 214.41 6.3736 211.456Z" fill="#F0FDF9"/>
<path d="M333.112 107.992C332.794 110.381 331.021 112.258 328.762 112.594C331.021 112.931 332.794 114.807 333.112 117.197C333.431 114.807 335.204 112.931 337.463 112.594C335.212 112.258 333.439 110.381 333.112 107.992Z" fill="#F0FDF9"/>
<path d="M153.995 0C153.677 2.38972 151.904 4.26615 149.645 4.60273C151.904 4.93931 153.677 6.81574 153.995 9.20545C154.313 6.81574 156.087 4.93931 158.346 4.60273C156.087 4.26615 154.313 2.38972 153.995 0Z" fill="#F0FDF9"/>
<path d="M34.6391 20.4136C34.1301 24.2169 31.3067 27.2041 27.7118 27.7426C31.3067 28.2811 34.1301 31.2683 34.6391 35.0716C35.1481 31.2683 37.9715 28.2811 41.5664 27.7426C37.9715 27.2041 35.1481 24.2169 34.6391 20.4136Z" fill="#F0FDF9"/>
<path d="M101.346 172.36C101.494 172.446 101.551 172.633 101.473 172.787C101.102 173.544 100.696 174.304 100.27 175.042C100.074 175.382 99.8695 175.717 99.6699 176.043C99.5707 176.196 99.3719 176.236 99.2236 176.15C99.0718 176.051 99.02 175.856 99.1191 175.703C99.3187 175.376 99.5183 175.05 99.7097 174.718C100.126 173.998 100.522 173.254 100.889 172.505C100.971 172.343 101.163 172.277 101.316 172.354C101.33 172.35 101.338 172.355 101.346 172.36ZM97.7212 178.277C97.7294 178.281 97.7459 178.291 97.7542 178.296C97.9012 178.403 97.927 178.605 97.8196 178.753C97.0802 179.729 96.2818 180.694 95.4353 181.608C95.3163 181.738 95.1105 181.752 94.9731 181.628C94.8439 181.51 94.8312 181.303 94.955 181.165C95.7837 180.262 96.5677 179.323 97.2893 178.359C97.3953 178.232 97.5811 178.196 97.7212 178.277ZM93.0571 183.406C93.0818 183.42 93.11 183.447 93.1299 183.47C93.2496 183.605 93.2411 183.81 93.1055 183.931C92.2088 184.761 91.2496 185.566 90.2635 186.322C90.1245 186.43 89.9167 186.409 89.8149 186.262C89.7083 186.123 89.738 185.919 89.8818 185.804C90.8501 185.059 91.7914 184.266 92.6786 183.452C92.7833 183.347 92.9417 183.339 93.0571 183.406ZM87.5929 187.675C87.6341 187.699 87.6705 187.731 87.6974 187.779C87.7992 187.926 87.7564 188.134 87.6009 188.232C86.5859 188.905 85.5132 189.545 84.4301 190.146C84.2712 190.231 84.0742 190.173 83.9902 190.014C83.9062 189.855 83.9655 189.657 84.1244 189.572C85.2027 188.979 86.2494 188.346 87.2596 187.681C87.3664 187.61 87.494 187.618 87.5929 187.675ZM81.5487 191.046C81.6064 191.079 81.6545 191.129 81.6848 191.191C81.7558 191.353 81.6883 191.546 81.5259 191.618C80.4138 192.136 79.2653 192.622 78.1113 193.06C77.9406 193.128 77.758 193.044 77.6918 192.873C77.6257 192.703 77.7096 192.519 77.8803 192.452C79.0213 192.017 80.1567 191.535 81.251 191.029C81.3435 190.982 81.458 190.993 81.5487 191.046ZM75.0815 193.532C75.1474 193.57 75.2072 193.637 75.228 193.716C75.2812 193.89 75.1889 194.069 75.0148 194.123C73.8483 194.488 72.6501 194.813 71.4415 195.098C71.264 195.139 71.0957 195.031 71.0556 194.853C71.0154 194.675 71.1241 194.506 71.3017 194.465C72.4842 194.186 73.6741 193.857 74.8277 193.496C74.9141 193.479 75.0074 193.489 75.0815 193.532ZM68.3519 195.159C68.4343 195.207 68.4894 195.283 68.5088 195.382C68.5407 195.555 68.419 195.728 68.2462 195.761C67.0382 195.969 65.8068 196.142 64.5862 196.277C64.41 196.297 64.2513 196.172 64.229 195.983C64.2101 195.806 64.3353 195.646 64.5245 195.623C65.732 195.491 66.9504 195.322 68.1454 195.117C68.214 195.113 68.2943 195.126 68.3519 195.159ZM61.4759 195.918C61.5665 195.97 61.6284 196.072 61.6383 196.188C61.6441 196.368 61.5025 196.519 61.3311 196.53C60.1028 196.583 58.8512 196.601 57.6365 196.573C57.4534 196.567 57.3173 196.422 57.3244 196.239C57.3268 196.063 57.4767 195.918 57.6598 195.924C58.8663 195.947 60.0919 195.936 61.3119 195.878C61.3674 195.877 61.4264 195.889 61.4759 195.918ZM5.61039 167.409C5.65983 167.437 5.6997 167.482 5.72655 167.531C6.322 168.593 6.95653 169.644 7.628 170.651C7.72981 170.798 7.68702 171.005 7.53154 171.103C7.38429 171.206 7.17777 171.164 7.08074 171.009C6.40582 169.989 5.76784 168.925 5.15591 167.853C5.07191 167.694 5.11814 167.5 5.28186 167.407C5.39217 167.349 5.51151 167.352 5.61039 167.409ZM54.5692 195.797C54.6763 195.859 54.7417 195.974 54.7337 196.102C54.7183 196.281 54.565 196.413 54.3866 196.398C53.1889 196.303 51.9466 196.172 50.7186 196.015C50.545 195.992 50.4185 195.831 50.4422 195.657C50.4658 195.482 50.6274 195.355 50.801 195.378C52.0207 195.53 53.25 195.665 54.4395 195.755C54.482 195.757 54.528 195.773 54.5692 195.797ZM47.7089 194.929C47.8243 194.996 47.8884 195.132 47.8674 195.264C47.8389 195.446 47.6656 195.556 47.4921 195.533C46.2846 195.322 45.0701 195.085 43.8748 194.815C43.6978 194.779 43.5891 194.606 43.6257 194.428C43.6624 194.25 43.8357 194.14 44.0127 194.176C45.1998 194.442 46.4012 194.682 47.6005 194.889C47.6382 194.9 47.676 194.91 47.7089 194.929ZM9.39039 173.193C9.42335 173.212 9.45977 173.244 9.48316 173.279C10.2128 174.242 10.9898 175.199 11.7825 176.109C11.9021 176.245 11.8854 176.445 11.7498 176.566C11.6143 176.686 11.4147 176.67 11.295 176.535C10.4859 175.615 9.70067 174.653 8.9593 173.673C8.85271 173.534 8.88246 173.33 9.02625 173.214C9.14266 173.127 9.27503 173.126 9.39039 173.193ZM40.964 193.443C41.0876 193.515 41.1551 193.664 41.1163 193.808C41.0714 193.981 40.8899 194.086 40.7176 194.041C39.5298 193.72 38.3398 193.365 37.1806 192.994C37.0132 192.941 36.9223 192.756 36.9754 192.588C37.0286 192.42 37.2136 192.328 37.381 192.38C38.5271 192.755 39.7007 193.101 40.8885 193.422C40.9146 193.415 40.9393 193.429 40.964 193.443ZM13.9236 178.395C13.9483 178.409 13.9731 178.424 13.993 178.446C14.8404 179.3 15.7399 180.14 16.6551 180.933C16.7843 181.052 16.8101 181.255 16.6862 181.393C16.5672 181.523 16.3649 181.55 16.2275 181.427C15.2958 180.624 14.3928 179.771 13.5289 178.907C13.4045 178.78 13.4048 178.571 13.5321 178.445C13.6368 178.34 13.8 178.324 13.9236 178.395ZM34.3913 191.317C34.5231 191.393 34.5893 191.564 34.5327 191.719C34.4665 191.891 34.2781 191.97 34.1154 191.909C32.9602 191.474 31.816 191.001 30.7025 190.513C30.5364 190.439 30.4715 190.247 30.5411 190.088C30.6155 189.921 30.8075 189.855 30.9653 189.924C32.0658 190.416 33.2066 190.876 34.3405 191.31C34.3535 191.306 34.3748 191.307 34.3913 191.317ZM19.116 182.951C19.1242 182.955 19.1407 182.965 19.1489 182.97C20.1024 183.697 21.1032 184.418 22.1196 185.094C22.2714 185.192 22.3102 185.391 22.2111 185.544C22.1119 185.697 21.9131 185.737 21.7613 185.638C20.7367 184.958 19.7277 184.232 18.7577 183.495C18.6107 183.388 18.5849 183.185 18.7005 183.042C18.7949 182.898 18.9759 182.87 19.116 182.951ZM28.0723 188.541C28.2206 188.627 28.2773 188.814 28.1994 188.968C28.1168 189.13 27.9249 189.196 27.7635 189.114C26.6588 188.554 25.5733 187.96 24.5268 187.356C24.3702 187.266 24.3184 187.07 24.4093 186.913C24.5002 186.755 24.6955 186.702 24.8521 186.793C25.8938 187.405 26.9629 187.989 28.0511 188.54C28.0558 188.532 28.0641 188.537 28.0723 188.541Z" fill="#18A97D"/>
<path d="M663.81 237.257C664.026 237.382 664.108 237.654 663.995 237.877C663.455 238.978 662.865 240.082 662.247 241.154C661.962 241.647 661.665 242.134 661.375 242.609C661.231 242.83 660.942 242.888 660.727 242.764C660.506 242.621 660.431 242.336 660.575 242.114C660.865 241.64 661.155 241.165 661.433 240.684C662.037 239.636 662.613 238.556 663.146 237.468C663.266 237.232 663.545 237.136 663.767 237.248C663.786 237.243 663.798 237.25 663.81 237.257ZM658.544 245.853C658.556 245.86 658.58 245.874 658.592 245.881C658.805 246.036 658.843 246.331 658.687 246.546C657.613 247.964 656.453 249.365 655.223 250.693C655.05 250.882 654.751 250.902 654.551 250.723C654.364 250.55 654.345 250.251 654.525 250.05C655.729 248.738 656.868 247.374 657.916 245.973C658.07 245.789 658.34 245.736 658.544 245.853ZM651.768 253.305C651.804 253.326 651.844 253.365 651.873 253.398C652.047 253.595 652.035 253.893 651.838 254.068C650.535 255.274 649.142 256.443 647.709 257.542C647.507 257.699 647.205 257.669 647.057 257.455C646.902 257.253 646.945 256.957 647.154 256.789C648.561 255.707 649.929 254.555 651.218 253.373C651.37 253.22 651.6 253.208 651.768 253.305ZM643.829 259.508C643.889 259.542 643.942 259.589 643.981 259.659C644.129 259.873 644.066 260.174 643.841 260.317C642.366 261.295 640.807 262.225 639.234 263.098C639.003 263.222 638.717 263.137 638.595 262.906C638.473 262.675 638.559 262.388 638.79 262.264C640.356 261.403 641.877 260.483 643.345 259.517C643.5 259.414 643.685 259.425 643.829 259.508ZM635.048 264.405C635.131 264.453 635.201 264.526 635.245 264.616C635.348 264.852 635.25 265.132 635.014 265.237C633.399 265.989 631.73 266.695 630.053 267.332C629.806 267.43 629.54 267.309 629.444 267.06C629.348 266.812 629.47 266.546 629.718 266.448C631.376 265.816 633.025 265.115 634.615 264.38C634.749 264.313 634.916 264.329 635.048 264.405ZM625.652 268.017C625.747 268.072 625.834 268.17 625.864 268.284C625.942 268.537 625.808 268.797 625.555 268.876C623.86 269.406 622.119 269.878 620.363 270.292C620.105 270.352 619.861 270.195 619.803 269.937C619.744 269.678 619.902 269.432 620.16 269.373C621.878 268.968 623.607 268.49 625.283 267.964C625.408 267.941 625.544 267.955 625.652 268.017ZM615.875 270.381C615.994 270.45 616.074 270.561 616.102 270.705C616.149 270.957 615.972 271.208 615.721 271.256C613.966 271.558 612.177 271.81 610.403 272.006C610.147 272.034 609.917 271.853 609.884 271.578C609.857 271.321 610.039 271.089 610.314 271.055C612.068 270.864 613.838 270.618 615.574 270.32C615.674 270.314 615.791 270.333 615.875 270.381ZM605.885 271.483C606.016 271.559 606.106 271.708 606.121 271.876C606.129 272.138 605.923 272.356 605.674 272.373C603.89 272.45 602.071 272.476 600.307 272.436C600.04 272.427 599.843 272.216 599.853 271.949C599.857 271.695 600.074 271.483 600.34 271.492C602.093 271.525 603.874 271.51 605.646 271.426C605.727 271.424 605.813 271.442 605.885 271.483ZM524.72 230.064C524.792 230.105 524.85 230.171 524.889 230.242C525.754 231.784 526.676 233.312 527.651 234.774C527.799 234.988 527.737 235.289 527.511 235.431C527.297 235.581 526.997 235.52 526.856 235.294C525.876 233.813 524.949 232.267 524.06 230.71C523.938 230.479 524.005 230.197 524.243 230.061C524.403 229.977 524.576 229.981 524.72 230.064ZM595.85 271.308C596.006 271.397 596.101 271.565 596.089 271.751C596.067 272.01 595.844 272.203 595.585 272.182C593.845 272.044 592.04 271.852 590.256 271.625C590.004 271.592 589.82 271.357 589.854 271.104C589.888 270.851 590.123 270.666 590.375 270.699C592.148 270.919 593.934 271.116 595.662 271.247C595.723 271.25 595.79 271.273 595.85 271.308ZM585.883 270.047C586.051 270.144 586.144 270.342 586.113 270.533C586.072 270.798 585.82 270.958 585.568 270.925C583.814 270.618 582.049 270.274 580.313 269.881C580.056 269.829 579.898 269.577 579.951 269.319C580.004 269.061 580.256 268.901 580.513 268.953C582.238 269.339 583.983 269.689 585.726 269.988C585.78 270.004 585.835 270.02 585.883 270.047ZM530.212 238.467C530.26 238.495 530.313 238.541 530.347 238.593C531.407 239.992 532.536 241.382 533.687 242.705C533.861 242.901 533.837 243.192 533.64 243.368C533.443 243.543 533.153 243.52 532.979 243.323C531.803 241.986 530.663 240.589 529.585 239.165C529.431 238.963 529.474 238.667 529.683 238.499C529.852 238.372 530.044 238.37 530.212 238.467ZM576.084 267.889C576.263 267.992 576.361 268.209 576.305 268.418C576.24 268.669 575.976 268.822 575.726 268.757C574 268.291 572.271 267.774 570.587 267.235C570.344 267.159 570.212 266.89 570.289 266.646C570.366 266.401 570.635 266.268 570.878 266.344C572.543 266.888 574.248 267.391 575.974 267.857C576.012 267.847 576.048 267.868 576.084 267.889ZM536.798 246.026C536.834 246.046 536.87 246.067 536.899 246.1C538.13 247.34 539.437 248.56 540.766 249.713C540.954 249.886 540.992 250.18 540.812 250.381C540.639 250.57 540.345 250.609 540.145 250.43C538.791 249.263 537.48 248.024 536.225 246.77C536.044 246.585 536.044 246.281 536.229 246.098C536.381 245.945 536.618 245.922 536.798 246.026ZM566.534 264.799C566.726 264.91 566.822 265.158 566.74 265.383C566.644 265.633 566.37 265.747 566.134 265.659C564.455 265.027 562.793 264.34 561.175 263.631C560.934 263.524 560.84 263.245 560.941 263.014C561.049 262.772 561.328 262.676 561.557 262.776C563.156 263.49 564.813 264.158 566.461 264.789C566.48 264.783 566.511 264.785 566.534 264.799ZM544.342 252.644C544.354 252.651 544.378 252.665 544.39 252.672C545.775 253.728 547.229 254.776 548.706 255.757C548.926 255.901 548.982 256.19 548.838 256.412C548.694 256.634 548.406 256.692 548.185 256.548C546.696 255.56 545.23 254.505 543.821 253.435C543.608 253.28 543.57 252.985 543.738 252.777C543.875 252.567 544.138 252.527 544.342 252.644ZM557.354 260.767C557.569 260.891 557.652 261.163 557.539 261.387C557.419 261.623 557.14 261.718 556.905 261.599C555.3 260.785 553.723 259.922 552.203 259.045C551.975 258.913 551.9 258.629 552.032 258.4C552.164 258.172 552.448 258.095 552.675 258.226C554.189 259.116 555.742 259.964 557.323 260.765C557.33 260.753 557.342 260.76 557.354 260.767Z" fill="#18A97D"/>
<path d="M628.476 45.5185C628.324 45.5185 628.172 45.4351 628.075 45.2961C627.937 45.0737 627.992 44.7818 628.214 44.6428C629.707 43.6837 631.282 42.7801 632.886 41.96C633.121 41.8488 633.397 41.9322 633.522 42.1685C633.632 42.4048 633.549 42.6828 633.314 42.8079C631.739 43.6003 630.204 44.4899 628.725 45.4351C628.642 45.4907 628.559 45.5185 628.476 45.5185ZM686.729 41.265C686.48 41.265 686.259 41.0565 686.259 40.8063C686.259 40.5422 686.452 40.3337 686.715 40.3198C688.443 40.2781 690.198 40.0835 691.926 39.736C692.189 39.6804 692.424 39.8472 692.479 40.1113C692.535 40.3615 692.369 40.6117 692.106 40.6673C690.337 41.0287 688.526 41.2233 686.729 41.265C686.729 41.265 686.742 41.265 686.729 41.265ZM682.042 41.0287C682.029 41.0287 682.001 41.0287 681.987 41.0287C680.397 40.848 678.711 40.5839 676.679 40.1669C676.43 40.1113 676.264 39.8611 676.306 39.6109C676.361 39.3607 676.61 39.1939 676.859 39.2356C678.863 39.6387 680.522 39.9028 682.084 40.0835C682.347 40.1113 682.526 40.3476 682.499 40.6117C682.471 40.8619 682.277 41.0287 682.042 41.0287ZM637.392 40.9314C637.199 40.9314 637.033 40.8202 636.95 40.6395C636.853 40.4032 636.978 40.1252 637.213 40.0279C638.872 39.3746 640.586 38.7769 642.3 38.2904C642.549 38.2209 642.811 38.3599 642.88 38.6101C642.949 38.8603 642.811 39.1244 642.562 39.1939C640.876 39.6804 639.189 40.2503 637.558 40.9036C637.503 40.9175 637.448 40.9314 637.392 40.9314ZM696.557 39.4302C696.364 39.4302 696.184 39.3051 696.115 39.1105C696.032 38.8603 696.156 38.5962 696.405 38.5128C698.05 37.9289 699.654 37.1922 701.188 36.3443C701.409 36.2192 701.699 36.3026 701.824 36.525C701.948 36.7474 701.865 37.0393 701.644 37.1644C700.068 38.0402 698.409 38.7908 696.723 39.3885C696.654 39.4163 696.612 39.4302 696.557 39.4302ZM672.172 39.18C672.145 39.18 672.103 39.18 672.076 39.1661C670.237 38.7491 668.578 38.3877 666.878 38.0679C666.629 38.0262 666.449 37.7761 666.505 37.5119C666.546 37.2617 666.795 37.081 667.058 37.1366C668.772 37.4563 670.444 37.8317 672.297 38.2487C672.546 38.3043 672.712 38.5545 672.656 38.8186C672.587 39.0271 672.394 39.18 672.172 39.18ZM647.014 38.1097C646.792 38.1097 646.599 37.9567 646.557 37.7204C646.502 37.4702 646.682 37.22 646.931 37.1644C648.686 36.8308 650.469 36.5667 652.253 36.3999C652.515 36.3721 652.737 36.5667 652.764 36.8308C652.792 37.0949 652.598 37.3173 652.336 37.3451C650.594 37.5119 648.824 37.7621 647.11 38.0958C647.069 38.1097 647.041 38.1097 647.014 38.1097ZM662.302 37.4007C662.289 37.4007 662.275 37.4007 662.261 37.4007C660.561 37.2339 658.833 37.1366 657.119 37.1366H656.994C656.732 37.1366 656.524 36.9281 656.524 36.664C656.524 36.3999 656.732 36.1914 656.994 36.1914H657.119C658.874 36.1914 660.63 36.2748 662.358 36.4555C662.62 36.4833 662.8 36.7196 662.772 36.9698C662.745 37.22 662.551 37.4007 662.302 37.4007ZM705.349 34.6485C705.211 34.6485 705.072 34.579 704.976 34.4678C704.824 34.2593 704.865 33.9674 705.059 33.8006C706.455 32.7303 707.768 31.5348 708.943 30.2699C709.123 30.0753 709.413 30.0614 709.606 30.2421C709.8 30.4228 709.814 30.7147 709.634 30.9093C708.418 32.2298 707.063 33.4531 705.625 34.5512C705.542 34.6207 705.446 34.6485 705.349 34.6485ZM712.219 27.3509C712.122 27.3509 712.039 27.3231 711.957 27.2675C711.735 27.1146 711.68 26.8227 711.832 26.6141C712.8 25.1685 713.657 23.6256 714.389 22.0132C714.5 21.7769 714.777 21.6657 715.012 21.7769C715.247 21.8881 715.357 22.1661 715.247 22.4024C714.5 24.0565 713.615 25.655 712.62 27.1563C712.523 27.2814 712.371 27.3509 712.219 27.3509ZM716.435 18.2462C716.394 18.2462 716.352 18.2462 716.311 18.2323C716.062 18.1628 715.91 17.8987 715.993 17.6485C716.477 15.9527 716.822 14.2151 717.03 12.4776C717.057 12.2135 717.292 12.0328 717.555 12.0606C717.818 12.0884 717.997 12.3247 717.97 12.5888C717.762 14.3819 717.403 16.1751 716.905 17.9126C716.822 18.1072 716.643 18.2462 716.435 18.2462ZM717.679 8.26583C717.431 8.26583 717.223 8.05732 717.209 7.80711C717.154 6.04178 716.947 4.27645 716.601 2.56672C716.546 2.31652 716.712 2.06632 716.961 2.01071C717.223 1.95511 717.458 2.12191 717.514 2.37212C717.873 4.12355 718.094 5.94448 718.149 7.76542C718.163 8.02952 717.956 8.23802 717.693 8.25192C717.693 8.26582 717.679 8.26583 717.679 8.26583Z" fill="#18A97D"/>
<g clip-path="url(#clip0_798_5709)">
<path d="M787.201 149.49C787.161 149.49 787.111 149.48 787.071 149.46C786.901 149.39 786.821 149.19 786.891 149.01C786.931 148.92 786.971 148.83 787.011 148.73C787.091 148.56 787.291 148.48 787.461 148.56C787.631 148.64 787.711 148.84 787.631 149.01C787.591 149.1 787.551 149.18 787.521 149.27C787.461 149.41 787.341 149.49 787.201 149.49ZM789.051 146.3C788.981 146.3 788.911 146.28 788.841 146.23C788.691 146.12 788.661 145.9 788.771 145.75C789.521 144.76 790.421 143.8 791.461 142.9C791.601 142.78 791.821 142.79 791.941 142.93C792.061 143.07 792.051 143.29 791.911 143.41C790.911 144.28 790.041 145.21 789.321 146.16C789.261 146.25 789.161 146.3 789.051 146.3ZM794.411 141.45C794.301 141.45 794.191 141.4 794.131 141.3C794.031 141.14 794.071 140.93 794.231 140.83C795.241 140.16 796.371 139.5 797.591 138.87C797.761 138.78 797.961 138.85 798.051 139.02C798.141 139.19 798.071 139.39 797.901 139.48C796.701 140.1 795.591 140.75 794.601 141.41C794.541 141.43 794.471 141.45 794.411 141.45ZM800.811 138.03C800.681 138.03 800.561 137.96 800.501 137.83C800.421 137.66 800.501 137.46 800.671 137.38C801.511 137 802.361 136.63 803.191 136.27L804.201 135.83C804.371 135.75 804.571 135.83 804.651 136.01C804.731 136.18 804.651 136.38 804.471 136.46L803.451 136.9C802.621 137.26 801.771 137.63 800.931 138C800.901 138.02 800.851 138.03 800.811 138.03ZM807.441 135.09C807.311 135.09 807.191 135.02 807.131 134.9C807.051 134.73 807.121 134.53 807.291 134.45C808.581 133.84 809.691 133.26 810.681 132.68C810.841 132.59 811.051 132.64 811.151 132.8C811.241 132.96 811.191 133.17 811.031 133.27C810.021 133.86 808.891 134.45 807.591 135.07C807.541 135.08 807.491 135.09 807.441 135.09ZM813.701 131.43C813.601 131.43 813.501 131.38 813.431 131.3C813.321 131.15 813.351 130.94 813.501 130.82C813.931 130.49 814.351 130.16 814.741 129.82C815.291 129.34 815.811 128.82 816.311 128.28C816.441 128.14 816.651 128.13 816.791 128.26C816.931 128.39 816.941 128.6 816.811 128.74C816.301 129.3 815.751 129.84 815.191 130.34C814.791 130.69 814.361 131.04 813.921 131.37C813.841 131.41 813.771 131.43 813.701 131.43ZM818.611 126.14C818.551 126.14 818.481 126.12 818.431 126.09C818.271 125.99 818.221 125.78 818.331 125.62C819.001 124.57 819.591 123.43 820.071 122.25C820.141 122.08 820.341 121.99 820.511 122.06C820.681 122.13 820.771 122.33 820.701 122.5C820.201 123.72 819.601 124.89 818.901 125.98C818.831 126.08 818.721 126.14 818.611 126.14ZM821.421 119.48C821.391 119.48 821.371 119.48 821.341 119.47C821.161 119.43 821.051 119.24 821.091 119.06C821.391 117.83 821.591 116.57 821.681 115.31C821.691 115.12 821.861 114.98 822.041 115C822.231 115.01 822.371 115.18 822.351 115.36C822.251 116.66 822.051 117.96 821.741 119.22C821.711 119.38 821.571 119.48 821.421 119.48ZM822.031 112.28C821.851 112.28 821.701 112.14 821.691 111.96C821.601 110.69 821.401 109.43 821.091 108.21C821.041 108.03 821.161 107.84 821.341 107.8C821.521 107.75 821.711 107.87 821.751 108.05C822.061 109.3 822.271 110.6 822.371 111.91C822.381 112.1 822.241 112.26 822.061 112.27C822.051 112.28 822.041 112.28 822.031 112.28ZM820.331 105.26C820.201 105.26 820.071 105.18 820.021 105.05C819.511 103.88 818.891 102.77 818.181 101.74C818.071 101.59 818.111 101.37 818.271 101.27C818.421 101.16 818.641 101.2 818.741 101.35C819.481 102.41 820.121 103.56 820.641 104.77C820.711 104.94 820.641 105.14 820.461 105.22C820.421 105.25 820.381 105.26 820.331 105.26Z" fill="#18A87C"/>
<path d="M816.95 86.07L815.23 97.41L809.25 93.08L799.35 103.8L784.17 64.43L832.07 81.81L824.58 84.7L816.95 86.07Z" fill="#F0FDF9"/>
<path d="M799.41 104.39C799.39 104.39 799.37 104.39 799.35 104.38C799.23 104.36 799.14 104.28 799.09 104.17L784.02 64.46C783.97 64.34 784 64.2 784.1 64.1C784.19 64.01 784.33 63.97 784.46 64.02L832.7 81.81C832.83 81.86 832.92 81.99 832.92 82.13C832.92 82.27 832.83 82.4 832.7 82.45C832.25 82.62 821.58 86.52 816.83 86.76C816.76 86.76 816.68 86.74 816.62 86.7C806.99 80.3 797.28 73.72 787.73 67.11C797.14 76.23 811.67 90.2 811.83 90.36C811.96 90.49 811.97 90.7 811.85 90.83L799.67 104.28C799.6 104.35 799.51 104.39 799.41 104.39ZM785.18 65.58L799.54 103.41L811.12 90.62C809.03 88.61 793.74 73.9 785.18 65.58ZM786.71 65.58C796.68 72.5 806.83 79.38 816.91 86.07C820.83 85.83 828.92 83.07 831.59 82.12L786.71 65.58Z" fill="#18A87C"/>
<path d="M815.461 97.83C815.341 97.83 815.221 97.76 815.161 97.65L811.411 90.8C811.321 90.64 811.381 90.43 811.551 90.34C811.711 90.25 811.921 90.31 812.011 90.47L815.281 96.44L816.751 86.87C816.781 86.68 816.951 86.56 817.141 86.59C817.331 86.62 817.451 86.79 817.421 86.98L815.801 97.54C815.781 97.68 815.671 97.8 815.521 97.82C815.501 97.83 815.481 97.83 815.461 97.83Z" fill="#18A87C"/>
<path d="M815.14 97.8C815.07 97.8 814.99 97.78 814.93 97.73L809.21 93.28C809.06 93.16 809.04 92.95 809.15 92.8C809.27 92.65 809.48 92.62 809.63 92.74L815.35 97.19C815.5 97.31 815.52 97.52 815.41 97.67C815.34 97.75 815.24 97.8 815.14 97.8Z" fill="#18A87C"/>
</g>
<g clip-path="url(#clip1_798_5709)">
<path d="M759.771 152.93C759.711 152.93 759.651 152.92 759.601 152.88C759.441 152.78 759.381 152.58 759.481 152.41C762.331 147.57 767.301 143.92 772.761 142.63C772.941 142.59 773.131 142.7 773.171 142.88C773.211 143.06 773.101 143.25 772.921 143.29C767.631 144.54 762.821 148.08 760.061 152.76C760.001 152.87 759.891 152.93 759.771 152.93Z" fill="#18A87C"/>
<path d="M757.34 149.89C757.31 149.89 757.29 149.89 757.26 149.88C757.08 149.84 756.97 149.65 757.01 149.47C757.71 146.6 759.35 143.97 761.62 142.08C761.76 141.96 761.98 141.98 762.1 142.12C762.22 142.27 762.2 142.48 762.06 142.6C759.9 144.4 758.34 146.9 757.67 149.63C757.63 149.79 757.49 149.89 757.34 149.89Z" fill="#18A87C"/>
<path d="M797.649 193.17C795.789 193.17 793.929 193.02 792.089 192.71C791.899 192.68 791.779 192.5 791.809 192.32C791.839 192.13 792.019 192.01 792.199 192.04C800.409 193.42 809.129 191.6 816.109 187.06C816.269 186.96 816.479 187 816.579 187.16C816.679 187.32 816.639 187.53 816.479 187.63C810.929 191.24 804.289 193.17 797.649 193.17Z" fill="#18A87C"/>
<path d="M763.25 194.59C765.07 191.04 765.32 186.45 763.88 182.66C762.94 180.18 761.36 178.12 760.09 175.85C758.82 173.58 757.84 170.85 758.34 167.98C758.66 165.96 759.1 163.95 759.82 162.08C761.72 157.17 765.46 153.47 769.65 151.24C773.84 149.02 778.46 148.15 783.1 147.66C787.46 147.29 791.83 147.03 796.2 146.98C801.48 146.92 806.9 147.19 811.76 149.58C814.15 150.75 816.34 152.54 817.99 154.88C819.64 157.22 820.74 160.12 820.91 163.16C822.42 189.25 793.77 180.06 782.41 182.67C778.72 181.98 774.93 183.42 771.77 185.75C768.61 188.08 765.98 191.26 763.25 194.59Z" fill="#F0FDF9"/>
<g opacity="0.1294">
<path opacity="0.1294" d="M820.629 167.38C820.599 167.32 820.569 167.27 820.529 167.22C820.439 167.46 820.349 167.7 820.259 167.93C819.879 168.9 819.409 169.76 818.829 170.58C818.319 171.29 817.909 172.08 817.329 172.72C817.309 172.74 817.279 172.77 817.259 172.79C816.559 173.85 815.939 174.44 814.649 175.55C814.199 175.93 811.229 178.45 806.539 178.87C805.639 178.95 804.749 179.08 803.849 179.07C803.649 179.07 801.479 179.33 800.349 179.5C798.479 179.78 796.589 179.84 794.709 179.95C792.109 180.26 789.499 180.32 786.889 180.34C785.149 180.36 783.409 180.18 781.659 180.22C779.879 180.27 778.109 180.53 776.359 180.96C774.529 181.54 773.129 181.9 770.959 183.2C769.889 183.85 768.879 184.63 767.889 185.45C767.269 186.03 766.539 186.58 766.169 187.42C766.209 187.32 766.209 187.27 766.059 187.53C765.589 188.36 765.669 188.08 765.459 188.59C765.469 188.55 765.489 188.51 765.499 188.47C765.029 189.37 764.489 190.2 763.959 191.04C763.899 191.36 763.839 191.69 763.789 192.01C763.759 192.2 763.719 192.38 763.689 192.57C763.909 193.05 764.409 193.35 764.869 193.23C765.459 192.33 766.099 191.48 766.789 190.68C767.779 189.54 768.819 188.47 769.889 187.44C771.019 186.35 772.159 185.41 773.509 184.73C774.839 184.06 776.249 183.49 777.679 183.14C778.399 182.97 779.139 182.84 779.869 182.76C780.449 182.69 781.039 182.68 781.619 182.64C781.749 182.6 781.879 182.57 782.009 182.56C782.579 182.52 783.169 182.58 783.729 182.76C784.509 182.7 785.319 182.47 786.049 182.43C787.289 182.37 788.519 182.3 789.749 182.16C792.499 181.85 795.229 181.77 797.999 181.88C798.249 181.89 798.469 181.95 798.659 182.06C799.709 182.03 800.749 181.86 801.799 181.88C802.189 181.89 802.509 182.03 802.749 182.24C803.519 182.11 804.299 182.01 805.079 182.01C805.389 182.01 805.649 182.1 805.869 182.24C808.479 181.92 811.059 181.14 812.599 180.35C815.159 179.12 818.069 176.79 819.619 172.43C819.999 171.29 820.249 170.1 820.539 168.93C820.619 168.57 820.689 168.21 820.719 167.85C820.669 168.41 820.809 167.57 820.629 167.38Z" fill="#18A87C"/>
</g>
<path d="M762.76 195.54C762.69 195.54 762.62 195.52 762.57 195.48C762.43 195.38 762.38 195.19 762.46 195.04C764.62 191.01 764.78 185.7 762.87 181.5C762.36 180.38 761.71 179.33 761.07 178.31C760.37 177.19 759.65 176.02 759.1 174.75C755.76 166.95 760.06 157.38 765.96 153C772.2 148.36 780.2 147.68 786.63 147.14C793.18 146.57 799.96 146 806.63 147.5C811.2 148.53 814.63 150.38 817.11 153.14C820.04 156.4 821.51 161.47 821.05 166.72C820.6 171.79 818.48 176.16 815.23 178.7C810.59 182.32 804.55 182.39 799.7 182.45L785.69 182.61C781.88 182.65 777.57 182.7 773.88 184.65C770.55 186.41 767.92 189.58 765.38 192.64C764.61 193.56 763.82 194.52 763.02 195.42C762.95 195.5 762.85 195.54 762.76 195.54ZM797.05 147.22C793.57 147.22 790.1 147.51 786.69 147.8C780.02 148.37 772.46 149.01 766.37 153.53C760.67 157.76 756.52 166.97 759.73 174.47C760.26 175.7 760.96 176.84 761.65 177.94C762.3 178.98 762.96 180.05 763.49 181.21C765.17 184.9 765.32 189.41 763.98 193.25C764.27 192.9 764.56 192.55 764.85 192.21C767.44 189.09 770.11 185.87 773.56 184.05C777.4 182.02 781.8 181.97 785.68 181.93L799.69 181.77C804.44 181.72 810.35 181.65 814.81 178.17C817.92 175.75 819.94 171.55 820.37 166.67C820.82 161.61 819.41 156.72 816.6 153.6C814.21 150.94 810.9 149.17 806.47 148.17C803.36 147.46 800.2 147.22 797.05 147.22Z" fill="#18A87C"/>
<path d="M778.719 168.97C777.289 168.97 776.119 167.63 776.119 165.98C776.119 164.33 777.289 162.99 778.719 162.99C780.149 162.99 781.319 164.33 781.319 165.98C781.319 167.63 780.149 168.97 778.719 168.97ZM778.719 163.67C777.659 163.67 776.799 164.7 776.799 165.98C776.799 167.25 777.659 168.29 778.719 168.29C779.779 168.29 780.639 167.26 780.639 165.98C780.629 164.71 779.769 163.67 778.719 163.67Z" fill="#FF4A32"/>
<path d="M789.491 168.97C788.061 168.97 786.891 167.63 786.891 165.98C786.891 164.33 788.061 162.99 789.491 162.99C790.921 162.99 792.091 164.33 792.091 165.98C792.091 167.63 790.921 168.97 789.491 168.97ZM789.491 163.67C788.431 163.67 787.571 164.7 787.571 165.98C787.571 167.25 788.431 168.29 789.491 168.29C790.551 168.29 791.411 167.26 791.411 165.98C791.411 164.71 790.551 163.67 789.491 163.67Z" fill="#FF4A32"/>
<path d="M800.36 168.97C798.93 168.97 797.76 167.63 797.76 165.98C797.76 164.33 798.93 162.99 800.36 162.99C801.79 162.99 802.96 164.33 802.96 165.98C802.96 167.63 801.8 168.97 800.36 168.97ZM800.36 163.67C799.3 163.67 798.44 164.7 798.44 165.98C798.44 167.25 799.3 168.29 800.36 168.29C801.42 168.29 802.28 167.26 802.28 165.98C802.28 164.71 801.42 163.67 800.36 163.67Z" fill="#FF4A32"/>
</g>
<g clip-path="url(#clip2_798_5709)">
<path d="M109.3 149.98C109.52 147.79 108.05 145.84 106.72 144.1C105.22 142.12 103.77 140.04 103.04 137.67C101.71 133.31 103.15 128.25 106.54 125.19C109.93 122.14 115.07 121.22 119.33 122.83C120.95 123.44 122.46 124.41 123.52 125.78C124.77 127.4 125.31 129.44 125.68 131.45C126.08 133.6 126.3 135.88 125.53 137.93C124.9 139.61 123.66 140.98 122.55 142.39C120.86 144.54 119.44 146.89 118.31 149.38C118.21 149.6 118.1 149.83 117.92 150C117.65 150.24 117.26 150.29 116.9 150.32C114.33 150.53 111.73 150.38 109.3 149.98Z" fill="#F0FDF9"/>
<path d="M66.5005 162C64.2905 159.04 63.7005 155.03 64.6205 151.45C65.5505 147.87 67.8905 144.75 70.8605 142.55C72.6305 141.24 74.6605 140.22 76.8305 139.8C79.0005 139.38 81.3205 139.58 83.2905 140.56C85.4905 141.66 87.1305 143.62 88.6105 145.58C89.4005 146.62 90.1605 147.68 90.8005 148.81C91.4905 150.03 92.0305 151.34 92.6105 152.55C91.9005 151.1 91.9705 149.35 92.5705 147.85C93.1705 146.35 94.2505 145.09 95.4905 144.05C97.2105 142.6 99.2805 141.54 101.501 141.18C102.261 141.05 103.081 141.02 103.781 141.34C104.471 141.66 104.971 142.28 105.431 142.88C107.071 144.99 108.781 147.24 109.301 149.86C108.821 149.92 108.711 150.56 108.721 151.05C108.761 152.91 108.801 154.77 108.841 156.63C108.861 157.78 108.901 158.97 109.381 160.01C109.881 161.1 110.861 161.95 112.001 162.3C112.561 162.47 113.151 162.52 113.731 162.54C114.941 162.58 116.231 162.46 117.211 161.74C117.971 161.19 118.461 160.33 118.741 159.43C119.021 158.53 119.101 157.59 119.231 156.56C121.621 155.32 124.471 154.99 127.081 155.64C129.691 156.29 132.051 157.92 133.581 160.14C134.091 160.88 134.511 161.68 134.721 162.55C134.941 163.46 134.921 164.41 134.891 165.34C134.831 167.07 134.731 168.84 134.071 170.44C132.921 173.23 130.271 175.09 127.531 176.61C124.191 177.84 120.621 178.43 117.071 178.36C117.071 178.36 61.0705 177.59 60.9905 177.51C59.1105 177.88 57.1205 177.41 55.4905 176.4C53.8605 175.39 52.5805 173.88 51.6705 172.19C51.4205 171.73 51.1905 171.25 51.0305 170.76C50.2305 168.4 51.0005 165.67 52.6805 163.83C54.3705 161.99 56.8505 160.99 59.3505 160.83C61.8505 160.67 64.3405 161.28 66.5005 162Z" fill="#F0FDF9"/>
<path d="M55.5501 173.37C55.5001 173.37 55.4601 173.34 55.4401 173.3L53.7601 168.87C53.7401 168.81 53.7701 168.75 53.8301 168.72C53.8901 168.7 53.9501 168.73 53.9801 168.79L55.6601 173.22C55.6801 173.28 55.6501 173.34 55.5901 173.37C55.5801 173.37 55.5701 173.37 55.5501 173.37Z" fill="#18A87C"/>
<path d="M58.1701 175.5C58.1201 175.5 58.0801 175.47 58.0601 175.43L56.4301 171.37C56.4101 171.31 56.4401 171.25 56.4901 171.22C56.5501 171.2 56.6101 171.23 56.6401 171.28L58.2701 175.34C58.2901 175.4 58.2601 175.46 58.2101 175.49C58.2001 175.49 58.1901 175.5 58.1701 175.5Z" fill="#18A87C"/>
<path d="M59.5705 175.28C59.5305 175.28 59.4905 175.26 59.4705 175.22L58.7405 173.7C58.7105 173.64 58.7405 173.58 58.7905 173.55C58.8505 173.52 58.9105 173.55 58.9405 173.6L59.6705 175.12C59.7005 175.18 59.6705 175.24 59.6205 175.27C59.6105 175.27 59.5905 175.28 59.5705 175.28Z" fill="#18A87C"/>
<path d="M68.4596 161.82C68.4096 161.82 68.3696 161.79 68.3496 161.74C67.5896 159.47 67.0796 157.11 66.8196 154.73C66.8096 154.67 66.8596 154.61 66.9196 154.6C66.9796 154.59 67.0396 154.64 67.0396 154.7C67.2996 157.06 67.8096 159.41 68.5596 161.66C68.5796 161.72 68.5496 161.78 68.4896 161.8C68.4896 161.82 68.4696 161.82 68.4596 161.82Z" fill="#18A87C"/>
<path d="M70.6095 161.86C70.5695 161.86 70.5195 161.83 70.5095 161.79C69.9095 160.34 69.5495 158.81 69.4395 157.25C69.4395 157.19 69.4795 157.13 69.5495 157.13C69.6095 157.12 69.6695 157.17 69.6695 157.23C69.7795 158.77 70.1295 160.28 70.7295 161.7C70.7495 161.76 70.7295 161.82 70.6695 161.85C70.6395 161.86 70.6195 161.86 70.6095 161.86Z" fill="#18A87C"/>
<path d="M72.9495 162.45C72.8995 162.45 72.8595 162.42 72.8395 162.37L71.9495 159.82C71.9295 159.76 71.9595 159.7 72.0195 159.68C72.0795 159.66 72.1395 159.69 72.1595 159.75L73.0495 162.3C73.0695 162.36 73.0395 162.42 72.9795 162.44C72.9795 162.45 72.9595 162.45 72.9495 162.45Z" fill="#18A87C"/>
<path d="M95.3991 152.1C95.3491 152.1 95.2991 152.07 95.2891 152.02C94.9091 150.58 94.7491 149.09 94.8091 147.6C94.8091 147.54 94.8691 147.49 94.9291 147.49C94.9891 147.49 95.0391 147.55 95.0391 147.61C94.9791 149.08 95.1391 150.54 95.5091 151.97C95.5291 152.03 95.4891 152.09 95.4291 152.11C95.4191 152.1 95.4091 152.1 95.3991 152.1Z" fill="#18A87C"/>
<path d="M97.769 152.44C97.719 152.44 97.679 152.41 97.659 152.37C97.289 151.34 97.039 150.27 96.929 149.18C96.919 149.12 96.969 149.06 97.029 149.06C97.089 149.05 97.149 149.1 97.149 149.16C97.259 150.23 97.509 151.29 97.869 152.3C97.889 152.36 97.859 152.42 97.799 152.45C97.789 152.43 97.779 152.44 97.769 152.44Z" fill="#18A87C"/>
<path d="M99.7794 152.52C99.7294 152.52 99.6894 152.49 99.6694 152.44L99.0394 150.48C99.0194 150.42 99.0494 150.36 99.1094 150.34C99.1694 150.32 99.2294 150.35 99.2494 150.41L99.8794 152.37C99.8994 152.43 99.8694 152.49 99.8094 152.51C99.7994 152.51 99.7894 152.52 99.7794 152.52Z" fill="#18A87C"/>
<path d="M128.109 174.56C128.079 174.56 128.059 174.55 128.029 174.53C127.979 174.49 127.979 174.42 128.019 174.37C129.459 172.74 130.529 170.77 131.119 168.67C131.139 168.61 131.199 168.58 131.259 168.59C131.319 168.61 131.359 168.67 131.339 168.73C130.739 170.86 129.649 172.86 128.189 174.51C128.169 174.54 128.139 174.56 128.109 174.56Z" fill="#18A87C"/>
<path d="M125.75 174.5C125.72 174.5 125.7 174.49 125.67 174.47C125.62 174.43 125.62 174.36 125.66 174.31C126.61 173.26 127.39 172.08 128 170.8C128.03 170.74 128.09 170.72 128.15 170.75C128.21 170.78 128.23 170.84 128.2 170.9C127.59 172.2 126.79 173.39 125.83 174.46C125.81 174.49 125.78 174.5 125.75 174.5Z" fill="#18A87C"/>
<path d="M123.169 174.85C123.149 174.85 123.129 174.84 123.109 174.83C123.059 174.8 123.039 174.73 123.069 174.67L124.569 172.23C124.599 172.18 124.669 172.16 124.729 172.19C124.779 172.22 124.799 172.29 124.769 172.35L123.269 174.79C123.239 174.83 123.199 174.85 123.169 174.85Z" fill="#18A87C"/>
<path d="M108.989 150.22C112.329 150.51 115.699 150.47 119.039 150.1C119.259 152.92 119.469 155.81 118.749 158.54C118.389 159.88 117.739 161.24 116.539 161.91C115.109 162.71 113.339 162.34 111.749 161.93C111.139 161.77 110.499 161.59 110.009 161.19C109.009 160.36 108.939 158.88 108.939 157.57C108.949 155.04 108.969 152.51 108.989 150.22Z" fill="#F0FDF9"/>
<g opacity="0.1294">
<path opacity="0.1294" d="M126.56 133.01C126.29 132.73 125.81 132.8 125.62 133.13C125.49 133.46 125.53 133.3 125.47 133.78C125.46 133.84 125.46 133.9 125.45 133.97C125.41 134.16 125.29 134.8 125.24 134.94C125.32 134.75 125.32 134.76 125.23 134.96C124.78 136.2 124.69 136.56 124.12 137.56C123.97 137.85 123.7 138.51 123.17 139.19C122.54 140.07 120.8 141.73 119.8 143.17C119.51 143.58 118.86 144.5 118.77 144.66C118.77 144.66 118.77 144.67 118.76 144.67C118.39 145.16 118.01 145.64 117.73 146.19C117.18 147.3 117.23 147.28 116.88 148.08C116.68 148.61 116.35 149.3 116.39 149.84C116.39 149.88 116.4 149.92 116.41 149.96C116.22 150.28 116.15 150.68 116.27 151.11C116.6 152.19 116.61 153.44 116.55 155.42C116.48 157.48 116.61 157.85 116.09 159.71C115.79 160.6 116 160.07 115.57 160.94C115.47 161.15 115.31 161.35 115.3 161.6C115.11 162.69 116.58 163.23 117.2 162.39C118.11 161.37 118.53 160.02 118.82 158.72C119.09 157.03 119.15 155.55 119.42 153.69C119.53 152.89 119.47 152.07 119.4 151.27C119.32 150.76 119.31 150.18 118.95 149.77C118.86 149.78 118.76 149.8 118.67 149.81C118.51 149.83 118.35 149.85 118.18 149.87C118.87 147.5 119.42 146.18 120.68 144.42C121.51 143.4 122.43 142.46 123.3 141.48C124.13 140.6 124.87 139.62 125.43 138.55C125.74 137.8 125.69 137.87 125.88 137.33C125.91 137.24 125.86 137.36 125.83 137.42C125.95 137.15 126.05 136.88 126.15 136.61C126.32 136.19 126.41 135.75 126.47 135.3C126.47 135.3 126.47 135.29 126.48 135.28C126.67 134.41 126.97 133.48 126.56 133.01Z" fill="#18A87C"/>
</g>
<g opacity="0.1294">
<path opacity="0.1294" d="M116.82 148.24C116.84 148.18 116.87 148.13 116.89 148.09C116.9 148.07 116.91 148.05 116.91 148.03C116.88 148.09 116.85 148.16 116.82 148.24Z" fill="#18A87C"/>
</g>
<g opacity="0.1294">
<path opacity="0.1294" d="M133.309 171.3C133.529 171.02 133.749 170.73 133.959 170.44C134.349 169.86 134.709 169.27 135.039 168.66C135.129 168.3 135.259 167.95 135.369 167.57C135.419 167.4 135.449 167.22 135.469 167.05C135.449 166.58 135.429 166.11 135.389 165.65C135.299 164.63 135.149 163.62 134.929 162.62C134.779 163.04 134.659 163.37 134.579 163.55V163.54C134.229 164.31 133.809 165.05 133.379 165.77C132.829 166.84 132.279 167.92 131.559 168.9C131.289 169.34 129.189 171.63 127.819 172.7C126.699 173.52 125.359 174.32 123.889 175.08C122.359 175.41 121.159 175.61 120.759 175.64C119.449 175.82 118.129 175.77 116.819 175.68C114.989 175.59 115.549 175.59 113.849 175.44C110.509 175.2 107.159 175.06 103.819 175.21C99.7891 175.21 95.7691 175.28 91.7391 175.22C88.6791 175.2 85.6291 174.99 82.5691 175C79.8691 174.99 77.1891 175.22 74.4891 175.31C72.2091 175.4 69.9291 175.29 67.6491 175.34C65.9691 175.37 64.2991 175.55 62.6291 175.67C60.9791 175.76 59.3191 175.83 57.6691 175.95C57.1091 175.83 56.5591 175.7 56.0191 175.5C55.7791 175.48 54.0991 174.55 53.0991 173.9C52.6991 173.65 52.2791 173.41 51.8691 173.18C51.9591 173.3 52.0491 173.41 52.1391 173.54C52.4991 174.06 52.9391 174.72 53.3491 174.96C53.8391 175.26 54.1191 175.66 54.2191 176.1C54.7691 176.51 55.3291 176.89 55.9191 177.23C56.6991 177.22 57.4791 177.23 58.2591 177.3C59.5891 177.42 60.8991 177.65 62.2091 177.89C62.5591 177.95 62.9091 178.02 63.2491 178.08C63.9491 178.06 64.6491 178.01 65.3191 178.01C65.9791 178.01 66.6291 178.02 67.2891 178.03C68.2991 178.01 69.2991 178.01 70.3091 178.05C72.9591 178.15 75.5991 177.99 78.2491 177.92C83.0591 178.02 87.8691 178.29 92.6691 178.6C97.9191 178.93 103.179 178.88 108.439 178.72C108.949 178.71 109.459 178.72 109.969 178.74C110.179 178.66 110.419 178.62 110.689 178.63C112.339 178.67 113.969 178.38 115.609 178.35C117.239 178.32 118.739 178.81 120.319 178.26C122.099 177.64 123.919 177.44 125.759 177.34C126.059 177.04 126.479 176.84 127.029 176.82C127.629 176.8 128.209 176.63 128.779 176.43C130.349 175.52 131.739 174.39 132.889 172.93C133.569 172.06 134.149 171.11 134.629 170.12C134.429 170.3 134.239 170.48 134.039 170.66C133.719 170.93 133.489 171.14 133.309 171.3Z" fill="#18A87C"/>
</g>
<path d="M118.399 150.4C118.379 150.4 118.369 150.4 118.349 150.4C118.159 150.37 118.039 150.2 118.059 150.01C118.469 147.2 120.319 144.96 122.099 142.79C123.749 140.79 125.449 138.72 125.959 136.24C126.229 134.91 126.159 131.66 125.139 128.92C124.379 126.9 123.319 125.39 121.979 124.43C119.459 122.63 115.129 121.36 111.749 122.44C108.519 123.47 105.889 125.35 104.349 127.75C102.929 129.95 102.339 132.69 102.679 135.47C102.999 138.06 104.109 140.6 105.889 142.79C106.139 143.09 106.399 143.4 106.649 143.69C107.189 144.31 107.739 144.94 108.189 145.66C109.009 146.94 109.459 148.43 109.509 149.95C109.519 150.14 109.369 150.29 109.179 150.3C108.989 150.31 108.839 150.16 108.829 149.97C108.789 148.57 108.369 147.21 107.619 146.03C107.199 145.36 106.659 144.74 106.139 144.15C105.879 143.85 105.609 143.55 105.359 143.23C103.499 140.93 102.339 138.28 102.009 135.56C101.649 132.63 102.279 129.73 103.789 127.39C105.419 124.86 108.179 122.87 111.559 121.8C115.149 120.66 119.729 121.99 122.389 123.89C123.839 124.93 124.989 126.55 125.789 128.7C126.859 131.56 126.929 134.98 126.639 136.39C126.099 139.03 124.339 141.16 122.639 143.23C120.839 145.42 119.129 147.5 118.749 150.12C118.709 150.28 118.569 150.4 118.399 150.4Z" fill="#18A87C"/>
<path d="M115.66 150.28C115.47 150.28 115.32 150.13 115.32 149.94V149.9C115.31 147.25 115.4 144.48 115.58 141.67C115.65 140.47 115.75 139.37 116.05 138.32C115.27 138.09 114.57 137.59 114.1 137.01C114.06 136.96 114.02 136.9 113.97 136.85C113.9 137 113.82 137.14 113.74 137.29C113.1 138.44 112.39 139.03 111.56 139.12C111.36 139.14 111.16 139.13 110.96 139.09C111.17 139.8 111.32 140.51 111.45 141.19C112.01 144.04 112.27 146.96 112.23 149.87C112.23 150.06 112.08 150.21 111.89 150.21C111.7 150.21 111.55 150.05 111.55 149.87C111.59 147.01 111.33 144.14 110.78 141.33C110.62 140.53 110.43 139.68 110.16 138.84C110.06 138.8 109.96 138.75 109.87 138.71C108.78 138.19 107.42 137.43 106.68 136.17C106.34 135.6 106.3 135.04 106.57 134.65C106.88 134.21 107.48 134.13 107.91 134.28C108.33 134.42 108.64 134.74 108.88 135.02C109.73 136 110.29 137.15 110.7 138.33C110.96 138.42 111.22 138.48 111.47 138.45C112.07 138.39 112.61 137.91 113.13 136.97C113.27 136.71 113.41 136.44 113.54 136.17C113.13 135.36 112.89 134.37 112.81 133.17C112.74 132.24 112.74 130.87 113.47 129.79C113.72 129.42 114.04 129.26 114.36 129.35C114.6 129.42 114.74 129.61 114.82 129.74C115.47 130.78 115.36 132.06 115.22 132.93C115.04 134.04 114.73 135.11 114.29 136.13C114.39 136.29 114.49 136.45 114.61 136.59C115 137.08 115.6 137.5 116.24 137.69C116.25 137.67 116.25 137.66 116.26 137.64C116.75 136.4 117.62 135.3 118.71 134.52C118.93 134.36 119.21 134.2 119.53 134.25C119.79 134.28 120 134.43 120.13 134.66C120.36 135.08 120.25 135.7 120.05 136.1C119.49 137.23 118.78 137.96 117.93 138.28C117.52 138.43 117.1 138.48 116.69 138.45C116.39 139.46 116.3 140.53 116.22 141.72C116.05 144.52 115.96 147.27 115.97 149.91V149.96C116 150.13 115.85 150.28 115.66 150.28ZM107.5 134.87C107.36 134.87 107.22 134.92 107.15 135.02C106.98 135.26 107.21 135.68 107.28 135.81C107.86 136.79 108.87 137.43 109.85 137.92C109.49 137.03 109.02 136.19 108.39 135.45C108.2 135.23 107.98 135 107.71 134.91C107.64 134.88 107.57 134.87 107.5 134.87ZM119.45 134.91C119.36 134.91 119.23 134.99 119.13 135.07C118.18 135.74 117.41 136.7 116.96 137.78C117.21 137.78 117.47 137.74 117.72 137.64C118.4 137.38 118.99 136.76 119.47 135.79C119.61 135.51 119.65 135.14 119.56 134.97C119.54 134.93 119.52 134.92 119.47 134.91C119.46 134.91 119.46 134.91 119.45 134.91ZM114.2 130C114.17 130.02 114.11 130.07 114.05 130.16C113.58 130.85 113.41 131.79 113.5 133.11C113.56 133.95 113.7 134.67 113.92 135.28C114.22 134.48 114.44 133.66 114.57 132.81C114.76 131.6 114.67 130.73 114.26 130.08C114.23 130.03 114.21 130.01 114.2 130Z" fill="#FF4A32"/>
<path d="M114.4 162.94C113.93 162.94 113.52 162.9 113.23 162.85C112.21 162.7 109.74 162.13 108.92 160.06C108.63 159.32 108.61 158.51 108.6 157.79L108.48 150.07C108.48 149.97 108.52 149.88 108.59 149.81C108.66 149.74 108.76 149.71 108.86 149.72C110.81 149.93 117.28 149.96 119.04 149.77C119.13 149.76 119.22 149.79 119.29 149.84C119.36 149.9 119.41 149.98 119.41 150.07C119.67 153.01 119.6 155.38 119.14 158.5C119 159.46 118.8 160.55 118.14 161.39C117.17 162.66 115.59 162.94 114.4 162.94ZM109.17 150.44L109.28 157.78C109.29 158.47 109.3 159.18 109.55 159.81C110.23 161.55 112.42 162.04 113.32 162.17C114.23 162.3 116.46 162.45 117.61 160.98C118.16 160.27 118.34 159.32 118.47 158.41C118.91 155.43 118.99 153.24 118.76 150.48C116.71 150.64 111.39 150.62 109.17 150.44Z" fill="#18A87C"/>
<path d="M112.03 178.98C109.32 178.98 106.62 178.88 103.96 178.78C96.3297 178.49 88.5798 178.42 81.0798 178.36C73.1698 178.28 64.9997 178.21 57.1597 177.88C57.1297 177.88 57.1097 177.87 57.0797 177.87C54.8197 177.21 52.8097 174.97 51.5297 173.2C50.0897 171.23 49.6297 168.7 50.3297 166.59C50.8997 164.86 52.2597 163.29 54.1597 162.18C57.4297 160.26 61.7197 160 65.5897 161.44C63.2197 157.12 63.5597 151.26 66.5497 146.51C68.2297 143.84 70.7498 141.67 73.6597 140.41C76.7297 139.07 79.9497 138.89 82.7497 139.9C86.4197 141.23 89.4097 144.47 91.6497 149.57C91.7598 148.63 92.0698 147.68 92.5798 146.8C93.6898 144.86 95.4797 143.5 96.9097 142.53C97.9797 141.81 99.2697 141.03 100.73 140.73C102.31 140.4 103.88 140.75 104.91 141.65C105.05 141.77 105.07 141.99 104.94 142.13C104.82 142.27 104.6 142.29 104.46 142.16C103.59 141.4 102.25 141.12 100.87 141.4C99.5297 141.68 98.3097 142.41 97.2997 143.1C95.2597 144.48 93.9897 145.72 93.1797 147.14C92.3897 148.52 92.1197 150.07 92.4097 151.41C92.5497 151.79 92.6898 152.18 92.8298 152.58C92.8898 152.75 92.8097 152.93 92.6397 153C92.4797 153.07 92.2897 153 92.1997 152.84C91.9997 152.45 91.8497 152.04 91.7497 151.6C89.5197 145.66 86.4198 141.94 82.5197 140.53C76.4897 138.35 70.0897 142.17 67.1297 146.87C64.0697 151.74 63.8997 157.8 66.7097 161.96C66.7997 162.09 66.7898 162.25 66.6898 162.37C66.5898 162.49 66.4298 162.52 66.2898 162.46C62.4398 160.7 57.8097 160.81 54.5097 162.76C52.7597 163.79 51.4997 165.23 50.9897 166.8C50.3597 168.71 50.7797 171.01 52.0897 172.8C53.3097 174.47 55.1897 176.59 57.2497 177.21C65.0697 177.54 73.2198 177.61 81.1098 177.68C88.6097 177.75 96.3597 177.82 104.01 178.1C109.44 178.3 115.06 178.51 120.55 177.85C126.33 177.15 130.27 175.39 132.61 172.46C135.6 168.72 135.47 162.75 132.33 159.14C129.18 155.53 123.28 154.59 119.17 157.04C119.01 157.14 118.8 157.08 118.7 156.92C118.6 156.76 118.66 156.55 118.82 156.45C123.27 153.79 129.43 154.77 132.84 158.68C136.25 162.59 136.38 168.82 133.14 172.87C130.68 175.94 126.59 177.79 120.63 178.51C117.76 178.86 114.89 178.98 112.03 178.98Z" fill="#18A87C"/>
<path d="M61.3292 156.89C61.1992 156.89 61.0692 156.81 61.0192 156.69C59.3892 152.98 59.7492 148.39 61.9292 144.98C62.0292 144.82 62.2392 144.78 62.3992 144.88C62.5592 144.98 62.5992 145.19 62.4992 145.35C60.4292 148.57 60.0892 152.91 61.6392 156.42C61.7192 156.59 61.6392 156.79 61.4692 156.87C61.4192 156.88 61.3692 156.89 61.3292 156.89Z" fill="#18A87C"/>
<path d="M57.6706 157.58C57.5506 157.58 57.4306 157.51 57.3706 157.4C56.3606 155.5 55.7406 153.36 55.5806 151.22C55.5706 151.03 55.7106 150.87 55.8906 150.86C56.0806 150.85 56.2406 150.99 56.2506 151.17C56.4006 153.22 57.0006 155.26 57.9606 157.08C58.0506 157.25 57.9906 157.45 57.8206 157.54C57.7806 157.56 57.7306 157.58 57.6706 157.58Z" fill="#18A87C"/>
<path d="M130.401 129.99C130.251 129.99 130.111 129.89 130.071 129.73C130.021 129.55 130.131 129.37 130.311 129.32L133.651 128.35C134.071 128.23 134.261 128.44 134.321 128.54C134.381 128.65 134.391 128.77 134.341 128.88C134.231 129.13 134.221 129.15 130.471 129.97C130.451 129.99 130.431 129.99 130.401 129.99Z" fill="#18A87C"/>
<path d="M114.43 118.58C114.25 118.58 114.11 118.45 114.09 118.27L113.78 114.37C113.77 114.18 113.91 114.02 114.1 114C114.29 113.98 114.45 114.12 114.47 114.31L114.78 118.21C114.8 118.4 114.66 118.56 114.47 118.58C114.45 118.58 114.44 118.58 114.43 118.58Z" fill="#18A87C"/>
<path d="M102.9 123.57C102.84 123.57 102.78 123.56 102.73 123.52L99.8797 121.87C99.6397 121.73 99.5297 121.56 99.5397 121.35C99.5497 121.21 99.6197 121.09 99.7497 121.04C99.9897 120.92 100.1 120.87 103.1 122.95C103.25 123.05 103.29 123.26 103.19 123.41C103.12 123.51 103.01 123.57 102.9 123.57Z" fill="#18A87C"/>
<path d="M94.7196 135.86C94.5596 135.86 94.4096 135.74 94.3796 135.58C94.3496 135.39 94.4696 135.22 94.6596 135.19L98.3196 134.57C98.4996 134.54 98.6796 134.66 98.7096 134.85C98.7396 135.04 98.6196 135.21 98.4296 135.24L94.7696 135.86C94.7596 135.86 94.7396 135.86 94.7196 135.86Z" fill="#18A87C"/>
<path d="M123.829 121.34C123.759 121.34 123.689 121.32 123.629 121.28C123.479 121.17 123.439 120.96 123.549 120.81L125.669 117.85C125.789 117.7 125.999 117.66 126.149 117.77C126.299 117.88 126.339 118.09 126.229 118.24L124.109 121.2C124.039 121.3 123.939 121.34 123.829 121.34Z" fill="#18A87C"/>
<path d="M130.55 143.92C130.47 143.92 130.39 143.89 130.33 143.84L127.66 141.51C127.52 141.39 127.5 141.17 127.63 141.03C127.75 140.89 127.97 140.87 128.11 141L130.78 143.33C130.92 143.45 130.94 143.67 130.81 143.81C130.74 143.88 130.65 143.92 130.55 143.92Z" fill="#18A87C"/>
</g>
<line x1="525.497" y1="77.1836" x2="527.872" y2="85.4844" stroke="#18A87C" stroke-width="1.3" stroke-linecap="round"/>
<line x1="543.363" y1="74.2702" x2="541.236" y2="88.2362" stroke="#18A87C" stroke-width="1.3" stroke-linecap="round"/>
<line x1="573.095" y1="98.2476" x2="560.103" y2="104.473" stroke="#18A87C" stroke-width="1.3" stroke-linecap="round"/>
<line x1="572.304" y1="110.162" x2="563.503" y2="114.018" stroke="#18A87C" stroke-width="1.3" stroke-linecap="round"/>
<line x1="564.819" y1="76.1414" x2="551.624" y2="94.278" stroke="#18A87C" stroke-width="1.3" stroke-linecap="round"/>
<g clip-path="url(#clip3_798_5709)">
<path d="M89.1267 208.454C88.9404 208.131 89.0068 207.689 89.3134 207.432C89.6601 207.151 90.1529 207.216 90.4228 207.544C106.528 227.229 135.651 235.688 159.694 227.695C160.102 227.567 160.553 227.791 160.702 228.189C160.831 228.598 160.609 229.049 160.213 229.197C148.217 233.192 134.508 233.337 121.641 229.607C108.775 225.878 97.2594 218.411 89.2166 208.563C89.1933 208.523 89.15 208.494 89.1267 208.454Z" fill="#18A87C"/>
<path d="M147.107 238.969C146.909 238.626 146.996 238.173 147.314 237.935L159.149 229.301C153.675 228.401 148.358 226.847 143.273 224.674C142.878 224.499 142.694 224.041 142.855 223.625C143.028 223.229 143.485 223.046 143.901 223.209C149.456 225.594 155.317 227.211 161.295 228.008C161.609 228.042 161.884 228.286 161.955 228.595C162.026 228.903 161.922 229.232 161.664 229.435L148.286 239.202C147.928 239.463 147.444 239.366 147.194 239.026C147.13 239.009 147.119 238.989 147.107 238.969Z" fill="#18A87C"/>
</g>
<g clip-path="url(#clip4_798_5709)">
<path d="M246.017 94C245.797 94 245.555 93.8896 245.423 93.6909C233.232 77.1325 214.714 65.387 194.615 61.4792C194.22 61.3909 193.934 61.0156 194.022 60.5961C194.11 60.1987 194.483 59.9117 194.9 60C215.373 63.974 234.243 75.9182 246.632 92.7857C246.873 93.1169 246.807 93.5805 246.478 93.8454C246.324 93.9338 246.17 94 246.017 94Z" fill="#18A87C"/>
<path d="M256.253 87.774C255.923 87.774 255.637 87.5753 255.528 87.2442C253.353 80.0247 250.014 73.2688 245.577 67.1974C245.335 66.8662 245.401 66.4026 245.731 66.1377C246.06 65.8948 246.521 65.961 246.785 66.2922C251.31 72.5182 254.737 79.4065 256.955 86.8026C257.065 87.2 256.846 87.6195 256.45 87.7299C256.406 87.774 256.34 87.774 256.253 87.774Z" fill="#18A87C"/>
</g>
<defs>
<clipPath id="clip0_798_5709">
<rect width="48.92" height="85.49" fill="white" transform="translate(784 64)"/>
</clipPath>
<clipPath id="clip1_798_5709">
<rect width="64.13" height="53.54" fill="white" transform="translate(757 142)"/>
</clipPath>
<clipPath id="clip2_798_5709">
<rect width="85.47" height="64.98" fill="white" transform="translate(50 114)"/>
</clipPath>
<clipPath id="clip3_798_5709">
<rect width="57" height="53" fill="white" transform="translate(134.631 181.268) rotate(60)"/>
</clipPath>
<clipPath id="clip4_798_5709">
<rect width="63" height="34" fill="white" transform="translate(194 60)"/>
</clipPath>
</defs>
</svg>
