<svg width="267" height="136" viewBox="0 0 267 136" fill="none" xmlns="http://www.w3.org/2000/svg">
<path opacity="0.2" d="M0.0959795 36.4826L3.04238 75.6015C4.20867 91.155 16.0352 103.806 31.4834 106.055L228.381 134.729C248.801 137.693 266.991 121.608 266.521 101.006L264.945 32.538C264.536 14.4092 249.661 -0.0611208 231.512 0.000194137L33.243 0.674662C13.8663 0.735977 -1.35676 17.2092 0.0959795 36.4826Z" fill="#FCCE08"/>
<path opacity="0.4" d="M5.65552 42.179V32.6956C5.65552 27.7291 6.24889 23.6415 7.4561 20.4531C8.66331 17.2647 10.7094 14.5669 13.6149 12.3391C16.5204 10.1113 19.7942 8.63976 23.4158 7.88354V15.4866C20.8377 16.9786 19.3645 18.9611 19.0166 21.4341H23.4158V42.179H5.65552ZM29.3905 42.179V32.6956C29.3905 27.7291 29.9838 23.6415 31.191 20.4531C32.3982 17.2647 34.4444 14.5669 37.3089 12.3391C40.1939 10.1113 43.4677 8.63976 47.1303 7.88354V15.4866C44.5522 16.9786 43.079 18.9611 42.7311 21.4341H47.1303V42.179H29.3905Z" fill="white"/>
<path opacity="0.4" d="M232.395 98.8835V108.367C232.395 113.293 231.802 117.36 230.636 120.569C229.449 123.777 227.423 126.475 224.518 128.683C221.612 130.89 218.318 132.382 214.656 133.159V125.494C217.275 124.064 218.768 122.081 219.116 119.608H214.656V98.8835H232.395ZM256.11 98.8835V108.367C256.11 113.293 255.516 117.36 254.35 120.569C253.163 123.777 251.138 126.475 248.232 128.683C245.327 130.89 242.033 132.382 238.37 133.159V125.494C240.948 124.064 242.401 122.081 242.769 119.608H238.37V98.8835H256.11Z" fill="white"/>
</svg>
