<svg width="274" height="90" viewBox="0 0 274 90" fill="none" xmlns="http://www.w3.org/2000/svg">
<g clip-path="url(#clip0_908_6176)">
<path d="M240.166 55.048H259.775C266.417 55.048 271.801 49.6532 271.801 42.9997V1" stroke="#18A97D" stroke-width="2" stroke-miterlimit="10" stroke-linecap="round"/>
<path d="M2.19922 1V42.9997C2.19922 49.6532 7.58292 55.048 14.2246 55.048H50.7698V87.914L83.5594 55.048H211.548" stroke="#18A97D" stroke-width="2" stroke-miterlimit="10" stroke-linecap="round"/>
<path d="M227.757 53.901V47H234.084V52.4058C234.084 55.3416 233.731 57.4665 233.024 58.7811C232.097 60.5334 230.629 61.859 228.619 62.7573L227.181 60.4552C228.4 59.9549 229.298 59.2096 229.874 58.2216C230.451 57.2324 230.772 55.7919 230.839 53.901H227.757ZM217.575 53.901V47H223.903V52.4058C223.903 55.3416 223.549 57.4665 222.843 58.7811C221.915 60.5334 220.448 61.859 218.438 62.7573L217 60.4552C218.219 59.9549 219.117 59.2096 219.693 58.2216C220.27 57.2324 220.59 55.7919 220.657 53.901H217.575Z" fill="#18A97D"/>
</g>
<defs>
<clipPath id="clip0_908_6176">
<rect width="274" height="90" fill="white"/>
</clipPath>
</defs>
</svg>
