<svg width="518" height="351" viewBox="0 0 518 351" fill="none" xmlns="http://www.w3.org/2000/svg">
<g clip-path="url(#clip0_991_5794)">
<path opacity="0.3" d="M384.437 52.0618C384.51 51.8546 386.276 48.8362 388.554 45.5572C399.154 30.2859 414.873 15.5678 433.307 16.1211L433.32 16.0079C424.986 15.0936 416.819 17.313 409.652 21.2692C397.825 27.6435 386.304 39.7917 380 49.1288L384.437 52.0618Z" fill="#FCCE08"/>
<path opacity="0.3" d="M429.218 24.5717L430.466 15.9844L424.098 10.0886C423.371 9.41785 423.732 8.20452 424.707 8.0379L433.26 6.57036L436.901 -1.30775C437.315 -2.20493 438.58 -2.23697 439.039 -1.36329L443.079 6.3183L451.697 7.34578C452.679 7.46327 453.1 8.65524 452.41 9.36231L446.354 15.5785L448.039 24.091C448.232 25.0609 447.227 25.8299 446.341 25.392L438.558 21.5512L430.983 25.785C430.118 26.2656 429.075 25.55 429.218 24.5717Z" fill="#FCCE08"/>
<path d="M120.963 0.144693L119.828 4.3529L123.229 7.21107L121.623 11.838L126.186 13.7669L124.601 19.0774L128.583 21.3716L127.893 26.7312L125.863 26.4706L126.38 22.4632L122.178 20.0429L123.701 14.9375L119.063 12.9765L120.834 7.87114L117.513 5.07919L118.566 1.17859L116 -0.199227L116.968 -2L120.963 0.144693Z" fill="#1DC895"/>
<g opacity="0.1">
<path opacity="0.3" d="M44.3475 272.308C49.2653 277.793 48.8039 286.225 43.32 291.14C37.834 296.055 29.402 295.594 24.4842 290.108C19.5664 284.622 20.0279 276.191 25.5118 271.276C30.9957 266.361 39.4298 266.822 44.3475 272.308Z" fill="#FCCE08"/>
<path opacity="0.3" d="M30.515 287.54C33.1448 290.473 37.6524 290.719 40.5855 288.092C43.5187 285.464 43.7644 280.955 41.1346 278.024L30.515 287.54Z" fill="#FCCE08"/>
</g>
<path d="M488.984 348H63.0185C61.9053 348 61 348.671 61 349.5C61 350.327 61.9025 351 63.0185 351H488.982C490.095 351 491 350.329 491 349.5C491 348.671 490.098 348 488.984 348Z" fill="#18A87C"/>
<g opacity="0.1">
<path opacity="0.3" d="M29.8292 238.905L26.3449 236.929C25.3814 238.462 24.2086 239.84 23.0721 240.876C22.1214 241.741 20.6623 241.72 19.7373 240.829L19.6262 240.722C18.6072 239.74 18.6307 238.093 19.6903 237.153C20.7713 236.196 21.8181 234.998 22.632 233.562C23.8176 231.471 23.8219 229.582 22.3543 228.751C20.9593 227.961 19.4147 228.636 16.958 230.83C13.4117 234.006 10.0598 235.645 6.50077 233.626C3.27282 231.796 2.03162 228.085 3.48645 223.725L0 221.749L2.03803 218.154L5.26599 219.985C6.08205 218.686 6.88317 217.691 7.64796 216.911C8.58153 215.96 10.1111 215.947 11.0725 216.872C12.0658 217.829 12.0701 219.419 11.0789 220.378C10.3354 221.096 9.52791 222.046 8.79516 223.341C7.44288 225.725 8.0325 227.077 9.06006 227.66C10.2713 228.346 11.7689 227.5 14.7106 225.047C18.7268 221.557 21.7433 220.94 25.0439 222.811C28.3081 224.663 29.7865 228.555 28.1287 233.188L31.8715 235.309L29.8292 238.905Z" fill="#FCCE08"/>
</g>
<path d="M456.269 295.408L458.295 290.386C456.066 289.369 454.011 288.045 452.418 286.707C451.087 285.59 450.854 283.631 451.884 282.232L452.007 282.063C453.142 280.521 455.355 280.258 456.803 281.51C458.28 282.785 460.072 283.975 462.14 284.808C465.154 286.024 467.684 285.691 468.536 283.576C469.346 281.568 468.164 279.615 464.785 276.717C459.895 272.534 457.1 268.334 459.166 263.208C461.042 258.555 465.789 256.229 471.894 257.397L473.917 252.375L479.1 254.462L477.224 259.115C479.113 259.976 480.589 260.868 481.768 261.755C483.21 262.836 483.501 264.882 482.433 266.335C481.328 267.837 479.198 268.127 477.737 266.969C476.641 266.102 475.223 265.19 473.358 264.438C469.92 263.054 468.213 264.086 467.617 265.566C466.915 267.311 468.318 269.167 472.129 272.669C477.526 277.424 478.893 281.354 476.974 286.114C475.077 290.819 470.128 293.494 463.62 292.101L461.448 297.495L456.269 295.408Z" fill="#C2F6E6"/>
<path d="M33.6392 160.882C34.1519 161.559 34.1135 162.505 33.5473 163.138C32.4365 164.379 30.6206 165.88 28.3412 166.989C25.0064 168.613 21.1824 169.102 17.5764 167.859C15.3226 167.081 13.1777 165.5 11.5669 163.349L9.59727 164.308C8.9286 164.635 8.12108 164.355 7.79423 163.687L7.76859 163.635C7.44174 162.967 7.72159 162.159 8.39025 161.832L10.0074 161.044C9.68699 160.512 9.46268 160.185 9.31527 159.882C9.0696 159.378 8.82393 158.746 8.60602 158.041L6.93971 158.853C6.27104 159.179 5.46352 158.9 5.13667 158.231C4.80981 157.562 5.08967 156.755 5.75833 156.428L7.77927 155.443C7.20247 152.85 7.30502 150.237 8.08263 147.984C9.40286 144.152 12.2997 141.242 15.784 139.544C17.8156 138.555 19.5268 138.158 20.9261 138.01C21.9002 137.908 22.7804 138.593 22.9171 139.563L22.9214 139.593C23.0645 140.597 22.3553 141.518 21.3512 141.652C20.2083 141.806 18.8731 142.165 17.3563 142.902C15.1346 143.985 13.2546 145.775 12.3253 148.353C11.8062 149.855 11.6631 151.613 12.1736 153.303L23.5409 147.766C24.2096 147.439 25.0171 147.719 25.3439 148.388C25.6708 149.056 25.3909 149.864 24.7223 150.19L12.8509 155.973C13.0709 156.554 13.2909 157.133 13.464 157.488C13.6861 157.943 13.9062 158.398 14.2523 158.979L26.1493 153.183C26.833 152.85 27.6576 153.134 27.9908 153.818C28.3241 154.501 28.04 155.326 27.3563 155.659L15.9656 161.209C17.0337 162.501 18.3561 163.42 19.7084 163.885C22.3873 164.768 24.7543 164.49 27.2794 163.259C28.8197 162.51 30.0694 161.561 31.003 160.67C31.7635 159.938 32.9983 160.036 33.6392 160.882Z" fill="#1DC895"/>
<path d="M387.086 87.0529L390.779 88.2705C390.779 88.2705 396.635 86.3736 397.212 85.1795C397.789 83.9854 397.951 81.0909 398.784 81.0119C399.617 80.9328 401.228 81.2041 401.61 83.1865C401.888 84.6241 399.782 88.7832 400.111 89.2254C400.316 89.5031 402.42 90.2635 403.965 90.7933C404.981 91.1415 405.714 92.0365 405.87 93.1153V93.1196C405.975 93.848 405.563 94.5593 404.881 94.8221L403.819 95.2322L404.159 96.3302C404.411 97.1462 403.965 98.0242 403.157 98.2954L402.335 98.571L402.597 99.2396C402.935 100.1 402.459 101.077 401.574 101.333L400.856 101.542L400.886 101.735C401.008 102.534 400.508 103.303 399.735 103.506L399.021 103.691L389.186 100.447C388.265 100.143 387.415 99.6498 386.693 98.9982L383.426 97.2744C383.076 97.0885 382.913 96.6698 383.046 96.2875L386.075 87.5677C386.22 87.1448 386.671 86.9162 387.086 87.0529Z" fill="#FAE0B2"/>
<path opacity="0.3" d="M98.2625 82.3547C98.1813 82.1239 96.2095 78.7531 93.6652 75.0918C81.83 58.0432 64.2824 41.6119 43.7034 42.2292L43.6885 42.1032C52.9921 41.0821 62.1098 43.5601 70.1124 47.9755C83.3148 55.0931 96.1796 68.6534 103.217 79.0778L98.2625 82.3547Z" fill="#FCCE08"/>
<path opacity="0.3" d="M48.2687 51.6646L46.8758 42.0776L53.9854 35.4961C54.7951 34.7463 54.3935 33.3941 53.3061 33.2062L43.7568 31.5677L39.6936 22.7732C39.23 21.7714 37.82 21.735 37.3073 22.7113L32.7976 31.2858L23.1757 32.4329C22.0798 32.5632 21.6098 33.894 22.3788 34.6844L29.1402 41.6226L27.2582 51.1263C27.0445 52.2093 28.164 53.068 29.1531 52.5789L37.8414 48.2916L46.299 53.0189C47.2646 53.5572 48.4289 52.7562 48.2687 51.6646Z" fill="#FCCE08"/>
<path d="M1.71332 102.798L3.95858 99.0062L2.1064 95.0073C1.89491 94.5523 2.29867 94.0524 2.78788 94.1614L7.08826 95.1248L10.3205 92.1278C10.6879 91.786 11.2882 92.0146 11.3352 92.5144L11.7497 96.9021L15.5993 99.0489C16.0372 99.2924 16.0052 99.9354 15.5437 100.134L11.4976 101.881L10.6452 106.205C10.5491 106.698 9.92741 106.865 9.59628 106.489L6.68236 103.182L2.30722 103.708C1.80946 103.766 1.4591 103.229 1.71332 102.798Z" fill="#1DC895"/>
<path d="M509.053 110.445L512.668 110.227C513.059 110.204 513.266 109.698 513.016 109.371L510.713 106.357L511.706 102.52C511.813 102.106 511.444 101.743 511.078 101.909L507.714 103.434L504.712 101.281C504.387 101.048 503.952 101.33 503.975 101.758L504.199 105.714L501.352 108.219C501.044 108.491 501.147 109.027 501.525 109.127L505.028 110.046L506.27 113.748C506.404 114.149 506.902 114.198 507.113 113.831L509.053 110.445Z" fill="#F47458"/>
<path d="M133.305 177.249C133.305 177.249 139.787 164.78 140.791 160.205C141.797 155.627 145.175 132.595 144.984 131.093C144.626 128.261 140.904 126.426 141.586 125.165C142.265 123.905 145.79 123.512 146.99 123.621C148.191 123.73 150.605 124.428 151.637 125.281C152.671 126.133 150.475 153.756 149.821 159.703C149.165 165.65 141.116 183.963 141.116 183.963L133.305 177.249Z" fill="#FFC0BB"/>
<path d="M408.055 305.698C408.055 305.698 416.936 312.1 418.333 314.009C420.347 316.761 403.289 321.905 405.15 318.683C405.579 317.942 406.805 315.451 406.859 315.206C407.145 313.894 403.526 310.363 403.526 310.363L408.055 305.698Z" fill="#FFC0BB"/>
<path d="M400.535 324.066L406.566 315.547C406.566 315.547 410.33 314.672 414.195 310.327C414.195 310.327 417.666 311.651 419.805 314.524C419.805 314.524 415.767 318.876 409.548 323.77C409.548 323.77 405.861 327.036 400.766 328.757C395.671 330.477 400.535 324.066 400.535 324.066Z" fill="#202020"/>
<path d="M480.561 147.759C480.561 147.759 478.265 151.547 478.008 151.316C477.812 151.139 479.183 149.144 480.157 146.726C480.407 146.104 480.653 145.489 480.873 144.923C481.452 143.436 480.736 142.667 479.89 144.128C479.591 144.645 479.115 145.512 478.861 146.181C478.585 146.901 478.107 147.477 477.786 148.048C477.149 149.182 476.699 150.017 476.667 149.966C476.626 149.9 476.348 150.037 476.594 149.368C476.891 148.565 477.884 146.995 478.23 145.781C478.427 145.094 478.923 143.679 478.923 143.679C478.923 143.679 479.286 141.409 479.164 141.345C478.504 141.001 477.831 142.49 477.681 143.457C477.28 144.03 476.799 145.531 476.799 145.531C476.799 145.531 475.167 148.36 474.778 148.138C474.614 148.044 475.413 146.189 475.923 144.254C476.398 142.455 476.59 140.567 476.261 140.424C475.699 140.183 474.968 142.126 474.968 142.126C474.968 142.126 474.526 143.515 474.345 143.966C474.133 144.493 473.379 146.027 473.379 146.027C473.379 146.027 470.439 151.214 470.091 150.972C469.741 150.729 469.175 149.765 469.243 149.381C469.311 148.996 469.798 148.353 469.867 147.969C469.935 147.584 469.707 147.029 469.256 146.918C468.805 146.805 467.78 148.543 467.78 148.543C467.78 148.543 466.957 149.964 466.936 151.098C466.861 155.027 467.502 154.871 467.478 155.375C467.451 155.971 462.903 162.531 462.903 162.531C462.903 162.531 462.873 162.567 462.815 162.631L468.213 166.56C470.014 163.631 471.414 161.337 471.824 160.619C471.824 160.619 474.533 158.301 476.188 156.791C477.844 155.281 478.775 153.106 479.179 152.609C479.239 152.536 480.491 150.799 481.488 148.255C482.345 146.061 480.561 147.759 480.561 147.759Z" fill="#FFC0BB"/>
<path d="M421.636 239.904L420.23 246.851L384.921 278.966L410.196 304.542L403.37 311.517C403.37 311.517 366.041 284.108 364.697 280.517C362.625 274.986 391.456 238.356 391.456 238.356L421.636 239.904Z" fill="#202020"/>
<path d="M447.637 324.904C447.637 324.904 456.517 331.306 457.914 333.216C459.929 335.967 442.871 341.111 444.731 337.889C445.159 337.148 446.387 334.655 446.44 334.412C446.727 333.1 443.108 329.569 443.108 329.569L447.637 324.904Z" fill="#FFC0BB"/>
<path d="M440.11 343.305L446.141 334.786C446.141 334.786 450.147 334.066 454.011 329.719C454.011 329.719 457.244 330.889 459.38 333.762C459.38 333.762 455.342 338.114 449.124 343.008C449.124 343.008 445.438 346.274 440.341 347.993C435.244 349.715 440.11 343.305 440.11 343.305Z" fill="#202020"/>
<path d="M420.427 243.124L420.978 288.767L449.025 323.949L442.424 331.287C442.424 331.287 407.692 302.412 403.887 294.126C401.527 288.987 392.93 240.379 392.93 240.379L420.427 243.124Z" fill="#202020"/>
<path d="M391.945 239.526C394.817 233.045 394.485 186.584 405.663 175.7C409.596 176.365 412.4 176.736 413.056 176.909C413.64 181.696 414.28 199.26 414.676 215.356C414.938 226.079 414.667 237.326 415.987 243.254C416.806 246.928 389.322 245.448 391.945 239.526Z" fill="white"/>
<path d="M344.618 202.353C338.087 202.729 335.335 203.765 333.325 203.383C331.317 203 325.959 201.086 326.055 199.078C333.231 197.643 345.763 199.867 345.763 199.867C344.902 204.053 344.618 202.353 344.618 202.353Z" fill="#FFC0BB"/>
<path d="M400.894 177.181C400.894 177.181 397.995 191.422 394.618 193.87C391.24 196.318 374.118 204.927 373.065 204.865C367.884 204.564 343.116 203.554 343.116 203.554L343.881 195.611L371.796 193.343C371.796 193.343 392.009 180.09 394.731 178.003C396.645 176.803 400.894 177.181 400.894 177.181Z" fill="#FCCE08"/>
<path d="M390.824 242.632C388.311 242.632 387.384 242.286 385.712 241.782C385.712 241.782 384.614 223.136 389.965 195.483C391.982 185.061 392.037 178.731 396.158 177.129C399.875 175.683 404.424 175.491 405.663 175.7C394.714 206.674 394.676 230.516 393.127 237.431C392.347 240.898 391.67 242.654 390.824 242.632Z" fill="#FCCE08"/>
<path d="M406.816 171.022L405.669 175.702C405.669 175.702 405.406 179.776 407.299 180.143C409.58 180.586 412.969 177.172 412.969 177.172L414.932 163.975L406.816 171.022Z" fill="#F7A491"/>
<path d="M406.816 171.022L405.669 175.702C405.669 175.702 405.406 179.776 407.299 180.143C409.58 180.586 412.969 177.172 412.969 177.172L414.932 163.975L406.816 171.022Z" fill="#FFC0BB"/>
<path d="M414.913 164.033L406.816 171.02L405.959 174.517C409.055 173.773 413.466 170.368 414.913 164.033Z" fill="#F47458"/>
<path d="M406.79 151.891C404.834 151.884 403.069 153.243 402.381 155.198C401.811 156.817 401.08 159.218 400.614 161.973C399.758 167.049 402.648 171.695 405.163 172.065C407.677 172.436 413.667 170.77 414.994 163.58C415.562 160.497 416.31 156.456 413.774 154.332C411.802 152.681 409.04 151.897 406.79 151.891Z" fill="#FFC0BB"/>
<path d="M414.176 169.059C414.176 169.059 423.041 161.16 423.428 154.986C423.815 148.815 418.115 145.508 413.24 145.335C411.037 145.258 409.548 145.356 407.275 145.643C402.392 146.258 399.226 148.424 400.341 152.423C401.836 157.795 411.973 153.262 414.045 154.931C415.756 156.306 412.984 159.615 414.643 160.878C416.205 162.063 415.41 161.662 414.893 163.919C414.376 166.177 414.176 169.059 414.176 169.059Z" fill="#202020"/>
<path d="M417.594 161.901C417.374 163.379 416.47 164.471 415.575 164.34C414.68 164.208 414.131 162.903 414.351 161.422C414.571 159.944 415.474 158.852 416.37 158.985C417.267 159.117 417.814 160.423 417.594 161.901Z" fill="#FFC0BB"/>
<path d="M470.677 164.351L464.639 158.376C464.639 158.376 453.167 174.837 447.35 177.693C441.696 180.47 422.862 179.46 422.2 179.308C419.942 178.793 413.001 176.894 413.001 176.894C413.001 176.894 407.181 226.846 414.763 244.213C417.237 249.878 432.621 246.123 432.621 246.123C432.621 246.123 427.874 225.323 427.619 222.602C427.378 219.998 426.058 199.369 426.269 199.159C426.825 198.604 447.825 194.028 453.58 189.656C459.66 185.035 470.677 164.351 470.677 164.351Z" fill="#FCCE08"/>
<path d="M77.129 209.68C87.4837 220.47 96.5779 210.91 96.1272 211.071C96.4818 210.919 98.7527 210.93 100.233 210.872C106.401 210.631 112.017 206.211 114.469 200.354C123.7 199.144 129.735 190.617 127.033 183.234C131.113 178.157 129.855 170.048 125.995 164.855C125.095 156.347 113.978 154.905 106.326 157.887C102.446 159.397 99.1436 162.666 97.4431 166.626C90.0665 166.449 83.7687 171.874 82.1258 179.428C70.6539 182.626 66.5629 198.668 77.129 209.68Z" fill="#FF5B7E"/>
<path d="M143.651 314.236C142.573 320.063 140.735 325.19 140.483 325.792C140.361 326.083 139.206 327.142 139.073 327.439C139.693 334.544 144.222 338.765 148.473 341.773C147.55 338.191 145.497 334.079 145.762 333.282C146.185 332.013 147.828 326.224 151.327 318.942C147.791 318.544 146.531 316.393 143.651 314.236Z" fill="#FFC0BB"/>
<path d="M130.705 229.696L106.138 246.469C106.138 246.469 118.103 254.238 122.205 258.147C126.307 262.056 148.257 279.788 148.616 280.683C148.881 281.348 146.58 289.756 141.301 316.677C143.636 319.064 148.776 321.403 151.821 322.174C158.204 307.81 165.412 277.928 164.604 274.64C163.346 269.539 130.705 229.696 130.705 229.696Z" fill="#202020"/>
<path d="M68.5005 263.453C69.2226 264.156 74.0165 273.495 75.8409 278.494C78.5113 276.813 80.1263 274.809 83.1107 273.679C80.7565 270.272 76.1656 262.078 75.7896 260.127C74.8945 255.5 73.8434 254.817 73.8434 254.817C73.8434 254.817 58.3275 260.065 57.2935 261.537C56.2595 263.005 65.5994 260.625 68.5005 263.453Z" fill="#FFC0BB"/>
<path d="M75.969 261.153C77.1717 261.155 75.8643 255.716 75.5887 254.462C75.279 253.052 74.4608 252.629 74.2578 252.58C73.7067 252.444 56.4646 258.277 53.5506 260.373C53.3541 260.514 52.9995 260.962 52.9461 261.065C51.3503 264.041 65.5652 264.607 67.6118 263.306C69.4319 262.148 70.5556 261.138 75.969 261.153Z" fill="#202020"/>
<path d="M135.17 234.942C135.17 234.942 114.358 226.748 114.087 227.619C111.932 234.56 105.226 232.321 101.246 244.546C99.5795 249.667 98.2657 263.18 97.142 273.203C96.3686 280.09 95.2898 285.609 95.2898 285.609C95.2898 285.609 90.4724 278.485 81.4017 268.266C80.6989 267.473 73.3756 274.437 73.3756 274.437C87.8191 303.077 98.3554 307.127 100.658 306.347C111.096 302.818 124.931 254.813 124.91 254.817C126.608 251.51 135.17 234.942 135.17 234.942Z" fill="#202020"/>
<path d="M103.049 186.417C103.049 186.417 78.2036 186.385 72.8842 186.078C68.069 185.8 48.9747 186.287 48.227 186.199C47.4814 186.114 42.5445 177.755 41.7241 178.652C40.9038 179.55 44.4714 182.797 43.3669 183.64C42.2646 184.482 30.4124 182.596 30.5705 183.472C30.8653 185.11 37.7784 184.903 37.772 185.693C37.7655 186.484 30.5363 185.249 30.0449 186.563C29.5557 187.876 36.9986 187.099 37.2956 187.684C37.5925 188.269 30.391 189.344 31.128 190.566C31.5275 191.23 37.5092 189.457 37.4793 190.363C37.4494 191.266 33.087 193.326 33.6211 194.046C34.1552 194.765 37.0456 191.835 39.5771 191.798C42.1086 191.762 43.9224 190.442 47.9643 191.551C49.9596 192.097 65.1935 193.96 78.0669 195.06C91.2628 196.188 102.081 196.547 102.081 196.547L103.049 186.417Z" fill="#FFC0BB"/>
<path d="M139.889 208.503C140.218 204.515 139.434 196.921 139.255 195.596C140.462 191.452 143.03 182.613 143.953 180.876C143.953 180.876 139.627 172.564 135.198 172.62C135.198 172.62 130.676 182.814 127.178 184.636C127.127 184.623 125.941 185.163 125.42 185.161C122.045 185.138 110.246 184.779 108.046 184.74L109.285 201.475C113.933 213.803 113.085 224.712 112.267 228.51C111.81 230.625 132.297 236.969 135.446 234.944C135.568 234.867 139.225 216.567 139.889 208.503Z" fill="#1DC895"/>
<path d="M114.04 185.375C111.863 184.335 96.1166 184.856 96.1166 184.856C96.1166 184.856 93.9162 195.821 95.6936 198.457C95.6936 198.457 109.774 200.552 109.372 201.708L114.04 185.375Z" fill="#1DC895"/>
<path d="M116.783 177.704C116.783 177.704 118.42 183.463 118.716 185.952C119.013 188.44 122.805 196.194 127.969 195.086C133.132 193.977 127.744 186.738 126.734 184.456C125.724 182.177 122.989 172.962 122.989 172.962L116.783 177.704Z" fill="#FFC0BB"/>
<path d="M124.138 176.741C123.489 174.641 122.991 172.962 122.991 172.962L116.785 177.704C116.785 177.704 117.086 178.764 117.454 180.169C120.733 180.613 122.976 179.045 124.138 176.741Z" fill="#FBB3AD"/>
<path d="M112.284 160.457C112.284 160.457 109.577 162.01 108.629 165.304C107.68 168.598 108.939 177.046 116.016 178.986C123.094 180.925 126.048 174.179 124.521 168.961C122.991 163.742 119.738 157.152 112.284 160.457Z" fill="#FFC0BB"/>
<path d="M125.371 166.916C125.254 168.326 124.493 169.414 123.673 169.345C122.852 169.277 122.282 168.079 122.399 166.669C122.517 165.259 123.278 164.171 124.098 164.24C124.918 164.31 125.489 165.507 125.371 166.916Z" fill="#FFC0BB"/>
<path d="M140.43 325.968C139.985 324.848 135.491 328.414 134.429 329.136C133.237 329.949 133.147 330.864 133.177 331.071C133.254 331.618 144.692 345.703 148.035 347.649C148.351 347.833 149.016 347.837 149.212 347.763C151.071 347.047 148.046 335.523 145.606 333.245C144.032 331.776 142.432 330.998 140.43 325.968Z" fill="#202020"/>
<path d="M113.104 160.017C113.104 160.017 111.964 169.478 108.936 171.225C105.909 172.972 107.247 177.142 107.247 177.142C107.247 177.142 104.335 167.457 106.704 164.298C109.073 161.142 113.104 160.017 113.104 160.017Z" fill="#FF5B7E"/>
<path d="M110.763 172.556C111.609 173.773 111.626 175.224 110.804 175.796C109.981 176.369 108.627 175.843 107.781 174.626C106.935 173.408 106.918 171.958 107.74 171.385C108.565 170.813 109.917 171.338 110.763 172.556Z" fill="#FFC0BB"/>
</g>
<defs>
<clipPath id="clip0_991_5794">
<rect width="518" height="350.837" fill="white"/>
</clipPath>
</defs>
</svg>
