<svg width="518" height="381" viewBox="0 0 518 381" fill="none" xmlns="http://www.w3.org/2000/svg">
<g clip-path="url(#clip0_984_6385)">
<path d="M407.7 35.7634H113.549V318.606H407.7V35.7634Z" fill="#1DC895"/>
<path d="M-3 379.5C-3 380.326 -2.29766 381 -1.41974 381H516.42C517.29 381 518 380.333 518 379.5C518 378.674 517.298 378 516.42 378H-1.41974C-2.29766 378 -3 378.674 -3 379.5Z" fill="#18A97D"/>
<path d="M428.137 307.608H93.1021C82.6158 307.608 74.114 299.116 74.114 288.653V95.301C74.114 84.8275 82.6158 76.336 93.1021 76.336H428.137C438.623 76.336 447.116 84.8275 447.116 95.301V288.653C447.125 299.116 438.623 307.608 428.137 307.608Z" fill="#C2F6E6"/>
<path d="M383.352 156.034C366.416 156.034 352.642 142.276 352.642 125.361C352.642 108.446 366.416 94.6889 383.352 94.6889C400.287 94.6889 414.061 108.446 414.061 125.361C414.061 142.267 400.287 156.034 383.352 156.034ZM383.352 99.1873C368.906 99.1873 357.156 110.924 357.156 125.352C357.156 139.779 368.906 151.516 383.352 151.516C397.797 151.516 409.548 139.779 409.548 125.352C409.538 110.924 397.787 99.1873 383.352 99.1873Z" fill="#E2FBF3"/>
<path d="M293.81 106.309H95.9522V120.445H293.81V106.309Z" fill="#E2FBF3"/>
<path d="M293.81 94.6792H95.9522V98.342H293.81V94.6792Z" fill="#E2FBF3"/>
<path d="M197.148 128.266H95.9522V142.403H197.148V128.266Z" fill="#E2FBF3"/>
<path opacity="0.95" d="M323.547 328.584H197.692C189.696 328.584 183.208 322.104 183.208 314.117V149.806C183.208 141.81 189.696 135.339 197.692 135.339H323.547C331.543 135.339 338.031 141.82 338.031 149.806V314.117C338.041 322.104 331.553 328.584 323.547 328.584Z" fill="url(#paint0_linear_984_6385)"/>
<path d="M299.812 295.201C290.405 295.201 282.75 287.555 282.75 278.16C282.75 268.765 290.405 261.118 299.812 261.118C309.218 261.118 316.874 268.765 316.874 278.16C316.874 287.555 309.218 295.201 299.812 295.201ZM299.812 264.412C292.224 264.412 286.047 270.581 286.047 278.16C286.047 285.738 292.224 291.907 299.812 291.907C307.399 291.907 313.566 285.738 313.566 278.16C313.566 270.581 307.399 264.412 299.812 264.412Z" fill="#18A97D"/>
<path d="M298.722 284.863L290.969 277.13L293.304 274.788L298.722 280.2L306.319 272.622L308.654 274.953L298.722 284.863Z" fill="#18A97D"/>
<path d="M352.146 270.659H347.195V293.452H352.146V270.659Z" fill="#E2FBF3"/>
<path d="M357 270.659H354.519V293.452H357V270.659Z" fill="#E2FBF3"/>
<path d="M363.887 270.659H359.364V293.452H363.887V270.659Z" fill="#E2FBF3"/>
<path d="M369.043 270.659H366.329V293.452H369.043V270.659Z" fill="#E2FBF3"/>
<path d="M372.204 270.747H370.939V293.54H372.204V270.747Z" fill="#E2FBF3"/>
<path d="M378.361 270.659H374.033V293.452H378.361V270.659Z" fill="#E2FBF3"/>
<path d="M383.391 270.659H380.112V293.452H383.391V270.659Z" fill="#E2FBF3"/>
<path d="M386.601 270.659H384.966V293.452H386.601V270.659Z" fill="#E2FBF3"/>
<path d="M393.108 270.659H388.459V293.452H393.108V270.659Z" fill="#E2FBF3"/>
<path d="M397.758 270.659H394.285V293.452H397.758V270.659Z" fill="#E2FBF3"/>
<path d="M400.988 270.659H399.256V293.452H400.988V270.659Z" fill="#E2FBF3"/>
<path d="M404.762 270.659H402.369V293.452H404.762V270.659Z" fill="#E2FBF3"/>
<path d="M414.061 270.766H406.464V293.559H414.061V270.766Z" fill="#E2FBF3"/>
<path d="M111.649 17.5951C107.783 17.5951 104.649 20.7291 104.649 24.5951V57.2699C104.649 58.7199 105.085 60.1537 106.121 61.1682C108.656 63.6505 114.204 67.4518 120.716 61.8258C122.275 60.4791 124.183 59.4988 126.243 59.4988H137.722C139.992 59.4988 142.09 60.655 143.845 62.0943C146.685 64.4231 151.673 66.7809 157.409 61.8258C158.968 60.4791 160.875 59.4988 162.935 59.4988H174.424C176.694 59.4988 178.792 60.655 180.547 62.0943C183.387 64.4231 188.375 66.7809 194.111 61.8258C195.669 60.4791 197.577 59.4988 199.637 59.4988H211.116C213.386 59.4988 215.484 60.655 217.24 62.0942C220.081 64.4233 225.071 66.7817 230.813 61.8235C232.371 60.4779 234.278 59.4988 236.337 59.4988H247.818C250.088 59.4988 252.186 60.655 253.942 62.0942C256.783 64.4233 261.773 66.7817 267.515 61.8235C269.073 60.4779 270.98 59.4988 273.039 59.4988H284.52C286.79 59.4988 288.888 60.655 290.643 62.0943C293.483 64.4231 298.471 66.7809 304.207 61.8258C305.765 60.4791 307.673 59.4988 309.733 59.4988H321.212C323.482 59.4988 325.58 60.655 327.336 62.0942C330.177 64.4233 335.167 66.7817 340.909 61.8235C342.467 60.4779 344.374 59.4988 346.433 59.4988H357.914C360.184 59.4988 362.282 60.655 364.038 62.0943C366.878 64.4231 371.865 66.7809 377.601 61.8258C379.16 60.4791 381.067 59.4988 383.127 59.4988H394.616C396.886 59.4988 398.984 60.655 400.74 62.0942C403.665 64.4923 408.869 66.9215 414.825 61.3633C416.036 60.2336 416.591 58.5901 416.591 56.9343V24.5951C416.591 20.7291 413.457 17.5951 409.591 17.5951H111.649Z" fill="#FCCE08"/>
<path d="M122.995 59.4988C122.995 59.4988 131.36 71.3033 141.341 59.4988V17.5951H122.995V59.4988Z" fill="#F5842D"/>
<path d="M159.697 59.4988C159.697 59.4988 168.062 71.3033 178.052 59.4988V17.5951H159.697V59.4988Z" fill="#F5842D"/>
<path d="M196.399 59.4988C196.399 59.4988 204.764 71.3033 214.745 59.4988V17.5951H196.399V59.4988Z" fill="#F5842D"/>
<path d="M233.1 59.4988C233.1 59.4988 241.466 71.3033 251.447 59.4988V17.5951H233.1V59.4988Z" fill="#F5842D"/>
<path d="M269.802 59.4988C269.802 59.4988 278.168 71.3033 288.148 59.4988V17.5951H269.802V59.4988Z" fill="#F5842D"/>
<path d="M306.495 59.4988C306.495 59.4988 314.86 71.3033 324.841 59.4988V17.5951H306.495V59.4988Z" fill="#F5842D"/>
<path d="M343.197 59.4988C343.197 59.4988 351.562 71.3033 361.543 59.4988V17.5951H343.197V59.4988Z" fill="#F5842D"/>
<path d="M379.898 17.5951V59.4988C379.898 59.4988 388.264 71.3033 398.254 59.4988V17.5951H379.898Z" fill="#F5842D"/>
<path d="M289.51 164.078L286.923 175.455H220.669V178.04L230.202 222.246V223.538H235.6L236.972 229.261H238.947C237.099 229.941 235.776 231.719 235.776 233.798C235.776 236.47 237.945 238.636 240.62 238.636C243.295 238.636 245.464 236.47 245.464 233.798C245.464 231.719 244.141 229.95 242.293 229.261H269.52C267.672 229.941 266.349 231.719 266.349 233.798C266.349 236.47 268.518 238.636 271.193 238.636C273.869 238.636 276.038 236.47 276.038 233.798C276.038 231.719 274.715 229.95 272.867 229.261H275.016V227.22H238.597L237.711 223.538H278.82V222.246L286.621 186.065L291.154 166.128H318.936V164.088H289.51V164.078ZM243.421 233.788C243.421 235.333 242.167 236.586 240.62 236.586C239.073 236.586 237.818 235.333 237.818 233.788C237.818 232.243 239.073 230.99 240.62 230.99C242.157 231 243.421 232.253 243.421 233.788ZM273.985 233.788C273.985 235.333 272.73 236.586 271.184 236.586C269.637 236.586 268.382 235.333 268.382 233.788C268.382 232.243 269.637 230.99 271.184 230.99C272.73 231 273.985 232.253 273.985 233.788ZM245.844 193.196H263.168L262.264 205.778H246.748L245.844 193.196ZM244.472 205.788H228.976L226.262 193.206H243.567L244.472 205.788ZM263.353 190.621H245.649L244.744 178.04H264.248L263.353 190.621ZM266.534 178.03H286.018L283.304 190.612H265.629L266.534 178.03ZM262.079 208.362L261.174 220.944H247.838L246.933 208.362H262.079ZM264.355 208.362H279.481L276.767 220.944H263.45L264.355 208.362ZM280.036 205.788H264.54L265.444 193.206H282.75L280.094 205.545L280.036 205.788ZM242.478 178.03L243.382 190.612H225.708L222.994 178.03H242.478ZM229.531 208.362H244.657L245.561 220.944H232.244L229.531 208.362Z" fill="#18A97D"/>
<path d="M268.382 306.588H252.857V308.56H268.382V306.588Z" fill="#18A97D"/>
<path d="M268.382 146.376H252.857V148.349H268.382V146.376Z" fill="#18A97D"/>
<path d="M244.482 269.454H206.107V274.575H244.482V269.454Z" fill="#18A97D"/>
<path d="M262.915 281.745H206.107V286.865H262.915V281.745Z" fill="#18A97D"/>
<path d="M414.061 186.376H354.519V205.924H414.061V186.376Z" fill="#E2FBF3"/>
<path d="M414.061 211.316H354.519V222.936H414.061V211.316Z" fill="#E2FBF3"/>
<path d="M125.125 204.709C125.125 204.709 126.652 201.853 126.905 201.425C127.148 200.998 128.394 200.386 129.882 199.812C131.37 199.239 133.637 199.123 133.86 199.288C134.084 199.443 134.386 199.502 134.619 200.162C134.862 200.823 134.619 201.522 134.619 201.522C134.619 201.522 135.242 202.232 134.979 203.067C134.979 203.067 135.65 203.699 135.193 204.602C135.193 204.602 135.835 205.273 135.446 205.894C135.446 205.894 134.201 206.507 133.812 206.866C133.413 207.226 130.748 208.323 128.014 208.974C128.024 208.974 125.242 208.722 125.125 204.709Z" fill="#FFC0BB"/>
<path d="M129.58 203.543C129.58 203.543 129.434 205.166 129.162 205.593C128.89 206.031 132.285 207.42 132.285 207.42C132.285 207.42 131.545 203.767 129.58 203.543Z" fill="#CC8680"/>
<path d="M168.364 245.185L127.829 250.46L120.952 213.376L163.335 206.137L168.364 245.185Z" fill="#EB4747"/>
<path d="M147.839 209.771C147.703 205.885 146.321 201.231 143.296 198.744C141.059 196.908 138.335 196.519 135.524 196.966C128.938 198.025 128.501 204.894 129.843 209.732L147.839 209.771ZM130.524 208.867C129.395 203.718 130.407 198.685 135.67 197.83C138.228 197.413 140.728 197.762 142.742 199.414C145.378 201.571 146.623 205.564 146.924 208.897L130.524 208.867Z" fill="#23344A"/>
<path d="M149.483 209.771C149.347 205.885 147.605 201.231 144.58 198.744C142.343 196.908 139.619 196.519 136.808 196.966C130.222 198.025 130.971 204.894 132.314 209.732L149.483 209.771ZM132.995 208.867C131.866 203.718 131.681 198.685 136.944 197.83C139.502 197.413 142.002 197.762 144.016 199.414C146.642 201.571 148.5 205.564 148.792 208.897L132.995 208.867Z" fill="#23344A"/>
<path d="M162.109 251.131L114.794 247.487L118.598 209.208L162.566 207.915L162.109 251.131Z" fill="#9E4CC7"/>
<path d="M29.951 229.941C29.951 229.941 30.3401 226.725 30.379 226.229C30.418 225.734 29.7565 224.529 28.8713 223.208C27.9861 221.886 26.1962 220.497 25.9238 220.497C25.6515 220.497 25.3694 220.371 24.7954 220.779C24.2215 221.187 23.9783 221.867 23.9783 221.867C23.9783 221.867 23.025 222.061 22.7624 222.897C22.7624 222.897 21.8966 223.072 21.7507 224.073C21.7507 224.073 20.8558 224.257 20.8169 224.995C20.8169 224.995 21.4784 226.21 21.5951 226.725C21.7118 227.25 23.2682 229.678 25.1262 231.777C25.1262 231.777 27.5483 233.166 29.951 229.941Z" fill="#FFC0BB"/>
<path d="M35.1747 234.381C35.5638 231.408 35.1844 227.59 33.1903 225.268C31.8771 223.742 30.0872 223.101 28.1125 223.062C25.3888 222.994 22.8597 223.752 21.0017 225.763C18.4628 228.513 17.7819 233.118 18.1613 236.79L35.1747 234.381ZM18.9103 235.838C18.7547 232.632 19.3967 228.717 21.6048 226.327C23.2779 224.519 25.5931 223.83 28.0833 223.888C29.8343 223.927 31.4102 224.49 32.5385 225.802C34.2214 227.755 34.63 231.097 34.4062 233.642L18.9103 235.838Z" fill="#23344A"/>
<path d="M0 278.043L3.10308 238.15L10.0291 277.489L5.24313 276.654L0 278.043Z" fill="#3F74A0"/>
<path d="M10.0291 277.489L51.1959 270.261L44.4547 231.971L2.99606 237.859L10.0291 277.489Z" fill="#5B83C2"/>
<path d="M54.0753 242.95C54.7465 244.903 54.1142 247.371 53.2581 249.226L53.9974 249.275C54.8729 247.293 55.4468 244.796 54.727 242.727L54.0753 242.95Z" fill="#23344A"/>
<path d="M23.7449 279.015L57.4799 283.406L63.2191 252.52L27.9472 246.496L23.7449 279.015Z" fill="#EB4747"/>
<path d="M16.8773 278.043L27.9277 246.525L23.7449 278.82L20.1652 277.489L16.8773 278.043Z" fill="#AD3434"/>
<path d="M54.834 242.066C56.0305 244.437 55.4468 247.652 55.2328 248.595L55.9235 248.847C56.1472 247.895 56.9449 243.951 55.1842 241.211L54.834 242.066Z" fill="#23344A"/>
<path d="M20.1651 282.765L27.665 248.711L28.9491 283.766L24.8538 282.201L20.1651 282.765Z" fill="#B06E2A"/>
<path d="M25.1262 231.777C25.1262 231.777 27.6553 234.021 28.9491 234.06C30.2526 234.099 30.914 230.533 30.914 230.533L29.7954 228.347L25.1262 231.777Z" fill="#EEA886"/>
<path d="M123.413 206.73C123.413 206.73 124.678 205.535 125.232 204.505C125.787 203.475 128.306 208.916 128.306 208.916C128.306 208.916 125.174 209.042 123.792 210.014C122.411 210.986 123.413 206.73 123.413 206.73Z" fill="#FFC0BB"/>
<path d="M133.462 199.424C133.462 199.424 129.726 200.969 129.901 201.6C130.076 202.232 130.524 202.358 130.524 202.358L129.279 203.689C129.279 203.689 128.948 205.04 130.514 205.001C130.514 205.001 130.076 206.225 131.584 206.011C131.584 206.011 131.662 206.953 132.372 206.973C133.092 206.992 135.446 205.904 135.446 205.904C135.446 205.904 135.845 205.448 135.251 204.612C135.251 204.612 135.738 203.776 135.096 203.048C135.096 203.048 135.378 202.319 134.687 201.532C134.687 201.532 135.193 199.851 133.851 199.298C133.86 199.288 133.617 199.356 133.462 199.424Z" fill="#F9B4AE"/>
<path d="M127.022 201.357C127.022 201.357 129.785 201.581 131.244 202.368C131.574 202.543 131.856 202.776 131.818 203.145C131.779 203.514 131.185 203.932 129.989 203.893C128.783 203.854 127.216 204.359 127.216 204.359C127.216 204.359 125.981 203.971 127.022 201.357Z" fill="#FFC0BB"/>
<path d="M26.9744 226.433C26.9744 226.433 26.167 227.842 26.1378 228.357C26.1087 228.872 22.5289 228.066 22.5289 228.066C22.5289 228.066 25.2332 225.491 26.9744 226.433Z" fill="#CC8680"/>
<path d="M26.167 220.837C26.167 220.837 28.3265 224.247 27.8207 224.655C27.3149 225.073 26.8771 224.918 26.8771 224.918L27.1301 226.725C27.1301 226.725 26.6242 228.017 25.3596 227.084C25.3596 227.084 25.0095 228.338 23.9005 227.298C23.9005 227.298 23.2974 228.027 22.704 227.628C22.1009 227.24 20.8072 224.986 20.8072 224.986C20.8072 224.986 20.7488 224.383 21.7118 224.034C21.7118 224.034 21.7896 223.062 22.7429 222.839C22.7429 222.839 22.9278 222.071 23.9492 221.838C23.9492 221.838 24.5036 220.167 25.9238 220.497C25.9238 220.497 26.0795 220.691 26.167 220.837Z" fill="#F9B4AE"/>
<path d="M30.3207 226.123C30.3207 226.123 27.9277 224.714 26.2935 224.529C25.9238 224.481 25.5542 224.51 25.3791 224.84C25.1943 225.161 25.4472 225.841 26.4491 226.501C27.4511 227.162 28.4433 228.474 28.4433 228.474C28.4433 228.474 29.6689 228.853 30.3207 226.123Z" fill="#FFC0BB"/>
<path d="M73.5498 177.544C73.5498 177.544 79.824 176.883 82.0808 182.936C84.3376 188.989 86.4679 190.962 86.7306 194.139C87.8103 206.992 93.8219 204.087 92.1293 211.491C90.4367 218.904 89.2694 220.021 89.2694 220.021L74.9019 217.213L60.3495 217.262C60.3495 217.262 66.0401 214.425 64.7755 208.372C63.511 202.319 60.3495 192.409 62.1297 185.657C63.9195 178.904 69.8047 178.069 73.5498 177.544Z" fill="#FF5B7E"/>
<path d="M28.9491 283.766L65.3495 282.493L66.0109 248.546H27.704L28.9491 283.766Z" fill="#FAA146"/>
<path d="M177.907 242.474L163.335 206.137L168.364 245.185L172.615 242.707L177.907 242.474Z" fill="#AD3434"/>
<path d="M172.663 249.936L162.566 207.915L162.109 251.131L167.031 249.246L172.663 249.936Z" fill="#5B2C73"/>
<path d="M63.19 263.79C63.19 263.79 57.9079 282.182 56.9838 286.884C56.0597 291.577 53.4819 314.312 53.2095 318.178C52.9372 322.045 61.8378 340.175 62.3242 341.477C64.2016 346.539 71.8864 364.891 71.8864 364.891C71.8864 364.891 76.8474 367.835 76.2929 363.522C74.6101 350.415 73.8124 347.18 72.6354 340.379C70.0479 325.485 64.7074 323.532 65.5246 321.356C73.7929 299.388 75.4564 284.485 76.5653 283.202C77.6742 281.91 77.8201 283.863 78.4719 286.709C79.1139 289.566 78.2092 309.201 79.3765 316.789C80.0088 320.918 81.4291 330.168 81.896 335.511C82.3532 340.855 84.7753 365.562 84.7753 365.562C84.7753 365.562 85.0963 366.485 88.783 364.445C89.3959 364.104 92.3141 342.604 92.4114 336.259C92.5087 329.905 89.6877 329.002 91.9445 316.702C96.7791 290.343 96.1079 285.806 90.4756 266.86C76.6626 220.507 63.19 263.79 63.19 263.79Z" fill="#FFC0BB"/>
<path d="M127.664 209.927C127.44 209.703 114.036 219.953 112.567 220.798C109.688 222.46 106.555 222.372 103.306 222.576C99.6584 222.8 95.5145 222.411 91.9348 223.13C90.0768 223.499 89.8628 223.985 88.8901 225.957C86.2636 231.32 85.4076 237.995 85.0574 243.892C84.6878 250.042 87.0516 254.317 89.5418 259.748C90.3881 261.594 91.5749 263.499 89.9406 265.18C88.4718 266.695 85.5827 267.006 83.6469 267.259C78.8999 267.88 71.6237 268.259 67.0518 266.375C61.4585 264.072 62.4604 257.038 61.8573 252.122C61.4585 248.838 59.8729 243.912 58.9585 240.725C58.0636 237.587 57.9566 236.266 58.1317 232.914C56.3904 237.859 54.9118 246.321 50.2232 249.46C46.5851 251.888 43.3458 248.634 40.7291 246.36C35.7778 242.056 30.8168 237.742 25.8655 233.438C26.9161 232.467 27.9764 231.495 29.0366 230.514C29.3868 230.193 29.4063 230.106 29.7954 229.795C30.7195 229.057 30.6125 228.785 31.5755 229.436C32.2175 229.873 33.9296 231.456 34.4743 231.962C36.2739 233.633 37.8401 234.643 39.6396 236.314C41.196 237.762 43.8711 241.133 46.2738 239.958C48.1123 239.054 48.6181 235.314 49.2504 233.642C51.0111 228.998 52.7815 224.325 54.8827 219.827C57.1297 215.008 62.0908 212.453 66.9059 210.529C71.079 208.867 76.6626 209.198 80.894 210.276C83.8609 211.034 84.9212 211.073 87.8784 211.899C90.6994 212.686 93.3453 213.686 96.2052 214.279C99.5417 214.969 102.956 215.212 106.351 215.251C109.026 215.28 110.135 214.833 112.392 213.269C115.417 211.17 119.853 207.546 123.18 205.865C125.3 204.777 126.03 208.255 127.664 209.927Z" fill="#1DC895"/>
<path d="M77.8785 202.679C77.8785 202.679 77.3727 208.935 78.5789 210.801C79.7851 212.676 77.5478 215.212 72.9369 214.347C68.3261 213.473 68.5984 210.869 68.5984 210.869C68.5984 210.869 69.8922 207.012 69.5128 203.922C69.1432 200.833 77.8785 202.679 77.8785 202.679Z" fill="#FFC0BB"/>
<path d="M80.8746 210.276C80.8746 210.276 76.7209 219.972 71.3319 222.003C71.3319 222.003 66.0206 217.291 67.4506 210.315C67.4603 210.315 74.3085 206.808 80.8746 210.276Z" fill="#FFC0BB"/>
<path d="M74.3766 181.09C74.3766 181.09 82.6839 182.285 81.468 194.537C80.252 206.779 72.9175 205.807 72.4311 205.797C71.9447 205.788 65.0771 206.05 64.4837 191.107C64.4837 191.107 64.2113 180.051 74.3766 181.09Z" fill="#FFC0BB"/>
<path d="M73.4233 185.521C73.4233 185.521 77.3046 189.592 79.1042 191.661C80.9038 193.73 81.1178 197.714 81.1178 197.714C81.1178 197.714 84.1528 194.012 82.8882 189.698C81.6139 185.385 78.6178 176.99 71.0109 179.575C63.404 182.159 63.1219 193.497 64.0168 199.132C64.0071 199.113 67.4214 186.696 73.4233 185.521Z" fill="#FF5B7E"/>
<path d="M70.2327 205.273C70.2327 205.273 73.7832 207.051 77.3824 204.243C77.3824 204.243 76.0011 206.536 73.5887 206.662C71.1762 206.788 70.2327 205.273 70.2327 205.273Z" fill="#DA918B"/>
<path d="M47.4216 238.821C47.0617 239.579 46.2641 239.958 46.2641 239.958C42.4703 242.008 41.8089 246.836 41.6727 248.546L40.8653 248.537C41.5268 239.637 47.4216 238.821 47.4216 238.821Z" fill="#23344A"/>
<path d="M47.1979 238.869C47.1979 238.869 41.0696 239.161 39.3381 248.439L39.9704 248.537C39.9704 248.537 41.1668 241.697 46.0695 239.86C46.0598 239.86 46.7407 239.569 47.1979 238.869Z" fill="#23344A"/>
<path d="M88 256.5C88 256.5 100.5 277 93.3452 314.759C93.3452 314.759 76.2443 313.155 50.5831 311.329C50.5831 311.329 62.2561 263.984 62.5771 260.973C67.5 261.5 88 256.5 88 256.5Z" fill="#FF4A32"/>
<path d="M71.7404 364.542C71.7404 364.542 74.1334 366.135 76.3513 364.007L76.5264 365.853C76.5264 365.853 72.7424 369.254 71.7404 365.601V364.542Z" fill="#F29992"/>
<path d="M85.4562 364.24C85.4562 364.24 86.8862 365.533 89.0457 363.599L89.3278 365.756C89.3278 365.756 85.6411 369.516 84.6391 365.863L85.4562 364.24Z" fill="#F29992"/>
<path d="M71.7404 365.61C71.7404 365.61 69.7657 367.962 69.9603 368.34C70.1548 368.729 74.4544 369.594 75.1062 368.681C75.7579 367.767 76.5264 365.863 76.5264 365.863C76.5264 365.863 72.7715 367.524 71.7404 365.61Z" fill="#202020"/>
<path d="M84.7558 365.562C84.7558 365.562 82.9173 368.146 83.1119 368.535C83.3064 368.923 87.1196 369.536 87.7714 368.622C88.4231 367.709 89.3278 365.756 89.3278 365.756C89.3278 365.756 85.787 367.476 84.7558 365.562Z" fill="#202020"/>
<path d="M62.3242 258.476C62.3242 258.476 72.4019 262.207 86.9543 253.987C86.9543 253.987 87.5379 255.172 88.1897 256.795C88.1897 256.795 74.9213 264.975 62.5868 260.973C62.5771 260.973 62.1588 259.107 62.3242 258.476Z" fill="#18A97D"/>
<path d="M59.4157 224.471C58.2581 227.473 58.1316 232.914 58.1316 232.914C58.1316 232.914 57.7523 234.332 57.1491 236.032C56.9838 227.949 59.4157 224.471 59.4157 224.471Z" fill="#18A97D"/>
<path d="M74.6295 375.044C72.6937 375.627 72.1198 378.901 70.4759 379.863C68.8319 380.825 60.8164 381.505 60.5343 378.999C60.2425 376.492 63.9001 374.248 65.5343 372.994C67.1782 371.741 70.865 367.622 71.614 365.98C71.614 365.98 72.2755 367.029 74.2404 366.708C76.2054 366.388 76.5264 365.863 76.5264 365.863C76.4486 367.806 77.1295 369.186 77.324 369.934C78.005 372.538 76.5556 374.461 74.6295 375.044Z" fill="#202020"/>
<path d="M87.7228 375.491C86.2344 376.851 85.9523 379.008 84.3084 379.97C83.8317 380.252 82.8979 380.534 81.7987 380.728C79.7948 381.087 77.2462 381.165 76.0011 380.436C75.5731 380.194 75.3007 379.854 75.2521 379.397C74.9602 376.89 78.6859 374.082 80.3201 372.829C81.3318 372.062 82.3726 370.264 83.2092 368.613C83.7345 367.583 84.1625 366.611 84.4543 365.98C84.464 365.989 84.5516 366.164 84.7948 366.329C85.1352 366.572 85.7675 366.815 86.8959 366.63C88.4718 366.368 89.0749 365.96 89.25 365.805C89.2597 365.795 89.2694 365.785 89.2792 365.785C89.2889 365.776 89.2986 365.766 89.2986 365.766L89.3083 365.756C89.3083 365.756 89.3083 365.756 89.3083 365.746C89.6293 367.311 90.1449 368.914 90.3395 369.672C91.0301 372.275 89.1332 374.209 87.7228 375.491Z" fill="#202020"/>
<path d="M98.5008 80.2709L79.0847 83.9045C77.9758 84.1086 76.9739 84.6915 76.2346 85.5368L32.1981 136.418C30.3985 138.497 30.632 141.635 32.7039 143.432L51.3127 159.502C53.3944 161.3 56.5363 161.066 58.3359 158.997L102.372 108.116C103.112 107.261 103.54 106.192 103.579 105.065L104.376 85.3619C104.522 82.1654 101.643 79.6782 98.5008 80.2709ZM101.302 87.0427C100.339 88.1503 98.6565 88.2766 97.5475 87.3147C96.4386 86.3529 96.3122 84.6721 97.2752 83.5645C98.2382 82.4569 99.9211 82.3306 101.03 83.2924C102.139 84.2446 102.265 85.9254 101.302 87.0427Z" fill="#E2FBF3"/>
<path d="M60.6414 140.285C59.9896 141.042 59.2406 141.664 58.3943 142.15C57.548 142.636 56.6823 142.947 55.8068 143.063L55.1356 140.217C55.2718 140.246 55.4858 140.226 55.7971 140.168C56.1083 140.11 56.4488 140.003 56.8379 139.857C57.227 139.711 57.6161 139.498 58.0247 139.226C58.4332 138.954 58.8126 138.623 59.1531 138.235C59.6783 137.632 59.941 137.078 59.9702 136.573C59.9896 136.078 59.8048 135.65 59.4157 135.31C59.2211 135.145 59.0071 135.058 58.764 135.058C58.5208 135.048 58.2581 135.106 57.976 135.203C57.6939 135.31 57.3826 135.456 57.0422 135.65C56.7017 135.844 56.3418 136.068 55.9624 136.311C55.0772 136.865 54.2893 137.185 53.6084 137.282C52.9177 137.37 52.2757 137.156 51.6629 136.622C51.0403 136.087 50.5928 135.475 50.3205 134.805C50.0481 134.135 49.9216 133.435 49.9411 132.726C49.9605 132.017 50.1162 131.307 50.4177 130.608C50.7193 129.908 51.1181 129.267 51.6337 128.665C52.2465 127.955 52.9177 127.421 53.6375 127.062C54.3574 126.712 55.048 126.479 55.6998 126.372L56.2834 129.112C56.1764 129.092 56.0013 129.102 55.7484 129.15C55.4955 129.199 55.2134 129.286 54.9021 129.413C54.5908 129.539 54.2698 129.704 53.9488 129.918C53.6278 130.132 53.336 130.384 53.0734 130.685C52.5481 131.288 52.2952 131.851 52.2952 132.386C52.2952 132.91 52.5092 133.367 52.9469 133.736C53.122 133.882 53.3068 133.969 53.5014 133.989C53.7056 134.018 53.9196 133.979 54.1628 133.892C54.406 133.804 54.6687 133.668 54.9605 133.503C55.2523 133.328 55.5831 133.124 55.943 132.881C56.4002 132.57 56.8476 132.318 57.2659 132.114C57.6939 131.91 58.1025 131.774 58.4916 131.715C58.8904 131.657 59.2795 131.676 59.6589 131.783C60.0383 131.89 60.4176 132.104 60.7873 132.434C61.4585 133.017 61.9254 133.649 62.188 134.329C62.441 135.009 62.548 135.689 62.4799 136.379C62.4215 137.069 62.2269 137.749 61.8962 138.409C61.5558 139.09 61.1375 139.711 60.6414 140.285Z" fill="#1DC895"/>
<path d="M67.8495 132.017C67.4701 132.463 67.0421 132.784 66.5752 132.988C66.1082 133.192 65.6219 133.289 65.1258 133.28C64.6297 133.27 64.1238 133.153 63.618 132.94C63.1122 132.726 62.6355 132.415 62.1783 132.026C61.5266 131.463 61.0013 130.802 60.6025 130.054C60.2036 129.306 59.9605 128.529 59.8437 127.742C59.7367 126.955 59.7659 126.177 59.9507 125.42C60.1355 124.662 60.4663 124.001 60.9624 123.428C61.4293 122.884 61.974 122.544 62.5869 122.408C63.1997 122.272 63.7931 122.33 64.367 122.573L63.2678 121.096L65.0188 119.075L69.5518 125.05C69.6393 125.177 69.7172 125.274 69.7852 125.332C69.9993 125.517 70.2133 125.488 70.4273 125.254L71.8378 127.1C71.7113 127.304 71.5946 127.489 71.507 127.644C71.4097 127.8 71.3125 127.926 71.2249 128.023C70.9234 128.373 70.6024 128.587 70.2716 128.665C69.9409 128.742 69.6296 128.645 69.3281 128.383C69.2113 128.276 69.046 128.082 68.832 127.8C69.007 128.616 68.9973 129.393 68.8028 130.132C68.6277 130.86 68.3067 131.492 67.8495 132.017ZM66.9156 129.626C67.0615 129.461 67.188 129.248 67.295 128.995C67.402 128.742 67.4701 128.47 67.509 128.189C67.5479 127.907 67.5479 127.615 67.5285 127.314C67.509 127.013 67.4506 126.721 67.3534 126.449L65.8067 124.429C65.3106 124.108 64.795 123.962 64.2503 124.001C63.7055 124.04 63.2678 124.254 62.9371 124.633C62.655 124.953 62.4702 125.342 62.3729 125.779C62.2756 126.226 62.2659 126.683 62.3534 127.139C62.4312 127.606 62.5869 128.053 62.8203 128.49C63.0538 128.927 63.3456 129.296 63.7055 129.607C64.2308 130.064 64.7853 130.297 65.3884 130.316C65.9818 130.355 66.4876 130.122 66.9156 129.626Z" fill="#1DC895"/>
<path d="M74.9213 123.787C74.4739 124.302 74.0167 124.594 73.5498 124.662C73.0828 124.73 72.6159 124.574 72.1782 124.186C72.0906 124.108 72.0031 124.021 71.9155 123.933C71.8377 123.846 71.7502 123.739 71.6529 123.622L64.153 113.722L65.8845 111.72L72.8105 120.844C72.8494 120.902 72.898 120.95 72.9467 120.999C72.9953 121.048 73.0439 121.096 73.0926 121.135C73.5011 121.494 73.8902 121.465 74.2501 121.048C74.3474 120.941 74.435 120.795 74.5225 120.61C74.6101 120.426 74.6782 120.251 74.7268 120.066L76.2151 121.456C76.0886 121.864 75.9136 122.272 75.6606 122.699C75.4272 123.136 75.1743 123.496 74.9213 123.787Z" fill="#1DC895"/>
<path d="M80.3396 117.589C79.9018 118.094 79.4349 118.473 78.9194 118.725C78.4135 118.978 77.8882 119.114 77.3435 119.143C76.7988 119.172 76.2637 119.075 75.7287 118.871C75.1937 118.667 74.6879 118.356 74.2015 117.939C73.5498 117.375 73.0342 116.705 72.6743 115.947C72.3046 115.179 72.1004 114.383 72.042 113.557C71.9836 112.731 72.0906 111.895 72.3533 111.06C72.6159 110.224 73.0537 109.457 73.6665 108.757C74.4058 107.902 75.184 107.387 76.0011 107.203C76.8182 107.018 77.5867 107.242 78.2968 107.854C79.9991 109.321 79.5322 111.575 76.9058 114.606C76.7501 114.791 76.5847 114.975 76.4194 115.17C76.254 115.364 76.0692 115.548 75.8649 115.743L76.0595 115.908C76.5945 116.365 77.1295 116.617 77.6742 116.666C78.219 116.714 78.7151 116.471 79.1625 115.947C79.5127 115.548 79.7462 115.082 79.8629 114.557C79.9797 114.033 79.9602 113.518 79.8046 113.013L81.682 111.847C81.8084 112.303 81.8765 112.799 81.8765 113.314C81.8765 113.829 81.8279 114.334 81.7014 114.839C81.5847 115.344 81.4096 115.83 81.1761 116.297C80.9621 116.763 80.68 117.2 80.3396 117.589ZM74.8727 110.312C74.6198 110.603 74.435 110.924 74.328 111.264C74.2112 111.604 74.1626 111.954 74.1821 112.303C74.1918 112.653 74.2599 113.013 74.3669 113.372C74.4739 113.732 74.6295 114.072 74.8241 114.402C74.97 114.247 75.1159 114.101 75.2423 113.945C75.3688 113.8 75.505 113.634 75.6509 113.479C76.0692 112.993 76.3999 112.566 76.6431 112.187C76.8863 111.808 77.0419 111.468 77.1198 111.176C77.1976 110.885 77.2073 110.632 77.1489 110.428C77.0906 110.224 76.9739 110.04 76.789 109.884C76.4972 109.632 76.1859 109.554 75.8455 109.651C75.505 109.738 75.184 109.962 74.8727 110.312Z" fill="#1DC895"/>
<path d="M101.108 83.6033L100.942 82.9815C100.962 82.9815 102.45 82.5832 104.405 81.4659L104.726 82.0294C102.693 83.1856 101.176 83.5839 101.108 83.6033Z" fill="#E6E6E6"/>
<path d="M338.702 135.164L338.09 134.96C338.975 132.357 339.743 129.957 340.453 127.615L341.076 127.8C340.356 130.151 339.588 132.561 338.702 135.164ZM343.167 120.338L342.545 120.183C343.206 117.598 343.78 115.063 344.247 112.663L344.879 112.789C344.403 115.189 343.829 117.734 343.167 120.338ZM346.076 105.124L345.434 105.046C345.745 102.393 345.93 99.8091 345.969 97.3705L346.621 97.3802C346.572 99.8479 346.387 102.452 346.076 105.124ZM345.648 89.7048C345.356 87.0718 344.879 84.536 344.208 82.1751L344.831 82.0003C345.502 84.3903 345.998 86.965 346.29 89.6368L345.648 89.7048ZM110.66 76.9384L110.154 76.54C111.691 74.5775 112.829 72.304 113.549 69.7877L114.172 69.9625C113.433 72.5663 112.246 74.9078 110.66 76.9384ZM341.426 75.0536C340.249 72.7801 338.829 70.6426 337.204 68.6898L337.701 68.272C339.364 70.254 340.804 72.4303 342 74.7524L341.426 75.0536ZM331.699 63.3947C329.753 61.8888 327.584 60.4995 325.249 59.2753L325.551 58.7021C327.924 59.9457 330.133 61.3545 332.097 62.8895L331.699 63.3947ZM115.125 62.2483L114.483 62.2386C114.532 59.9165 114.765 57.235 115.145 54.4855L115.787 54.5729C115.407 57.2933 115.174 59.9457 115.125 62.2483ZM318.207 56.2246C315.901 55.4085 313.421 54.6798 310.823 54.0774L310.969 53.4459C313.586 54.058 316.096 54.7964 318.421 55.6125L318.207 56.2246ZM303.246 52.6492C300.804 52.2897 298.226 52.008 295.58 51.7942L295.629 51.153C298.294 51.357 300.882 51.6485 303.333 52.008L303.246 52.6492ZM287.876 51.1919C285.211 50.9295 282.633 50.5992 280.201 50.2203L280.298 49.5791C282.721 49.958 285.289 50.2786 287.935 50.5409L287.876 51.1919ZM272.604 48.7629C269.997 48.1606 267.487 47.461 265.153 46.6838L265.357 46.0717C267.672 46.8392 270.162 47.5388 272.75 48.1411L272.604 48.7629ZM117.178 46.985L116.545 46.8392C117.129 44.2937 117.829 41.7774 118.627 39.3582L119.24 39.5622C118.462 41.962 117.761 44.4589 117.178 46.985ZM257.945 43.8177C255.581 42.7101 253.363 41.4859 251.155 40.0771L251.505 39.5331C253.684 40.9224 255.873 42.1369 258.217 43.2347L257.945 43.8177ZM244.89 35.5205C242.75 33.7911 240.737 31.984 239.054 30.4489L239.491 29.9728C241.174 31.4982 243.178 33.2956 245.299 35.0153L244.89 35.5205ZM122.003 32.3726L121.409 32.1103C122.479 29.6911 123.666 27.369 124.95 25.1927L125.504 25.5231C124.24 27.6702 123.063 29.9728 122.003 32.3726ZM233.344 25.251C231.174 23.3176 229.297 21.7437 227.449 20.3057L227.848 19.8005C229.715 21.2482 231.593 22.8318 233.772 24.775L233.344 25.251ZM129.823 19.1593L129.318 18.761C130.942 16.6818 132.703 14.7484 134.541 13.0093L134.989 13.4756C133.16 15.205 131.419 17.1093 129.823 19.1593ZM221.184 15.8657C219.054 14.5055 216.817 13.223 214.521 12.0571L214.813 11.4839C217.128 12.6692 219.385 13.9614 221.535 15.3313L221.184 15.8657ZM207.527 8.87041C205.241 7.9377 202.809 7.05358 200.299 6.24718L200.504 5.63509C203.023 6.45121 205.474 7.34505 207.78 8.27775L207.527 8.87041ZM140.971 8.69553L140.611 8.16116C142.761 6.72324 145.047 5.45049 147.411 4.39148L147.673 4.98414C145.339 6.03343 143.082 7.27704 140.971 8.69553ZM192.906 4.10001C190.932 3.58508 188.86 3.08958 186.739 2.63295C186.292 2.53579 185.844 2.43863 185.397 2.35119L185.523 1.71967C185.971 1.80711 186.418 1.90427 186.875 2.00143C188.996 2.45806 191.078 2.95356 193.062 3.46849L192.906 4.10001ZM154.891 2.43863L154.726 1.81683C157.168 1.1756 159.736 0.689813 162.352 0.388627L162.42 1.02986C159.843 1.33105 157.304 1.7974 154.891 2.43863ZM177.79 1.13673C175.163 0.835548 172.586 0.670381 170.105 0.65095L170.115 0C172.615 0.0194313 175.222 0.194313 177.868 0.495499L177.79 1.13673Z" fill="#1DC895"/>
<path d="M334.646 146.483L334.043 146.26C334.481 145.084 334.928 143.87 335.376 142.626L335.979 142.849C335.531 144.093 335.084 145.308 334.646 146.483Z" fill="#E6E6E6"/>
<path d="M462.855 263.071C462.816 263.071 462.777 263.081 462.738 263.081C462.135 263.081 461.61 262.585 461.551 261.925C460.51 250.179 456.94 239.025 451.503 230.514C446.688 222.965 440.948 218.467 436.162 218.467C436.153 218.467 436.153 218.467 436.143 218.467C418.692 218.505 415.044 261.478 415.005 261.915C414.947 262.615 414.373 263.139 413.711 263.081C413.06 263.023 412.573 262.401 412.622 261.701C412.768 259.836 416.503 215.96 436.123 215.911C436.133 215.911 436.133 215.911 436.143 215.911C441.804 215.911 448.108 220.701 453.448 229.066C459.11 237.937 462.825 249.518 463.905 261.682C463.993 262.381 463.516 263.003 462.855 263.071Z" fill="url(#paint1_linear_984_6385)"/>
<path d="M390.044 351.532L413.011 364.007L426.931 318.188L403.993 256.766L397.486 258.476L387.622 346.694C387.408 348.686 388.371 350.619 390.044 351.532Z" fill="#ECC002"/>
<path opacity="0.3" d="M426.931 318.188L403.993 256.766L400.161 257.776C399.626 265.976 399.859 272.729 400.219 277.645C401.756 298.563 406.863 304.382 404.392 318.965C402.34 331.1 397.846 332.742 398.235 340.903C398.663 349.793 404.441 357.235 411.309 363.094L413.001 364.017L426.931 318.188Z" fill="url(#paint2_linear_984_6385)"/>
<path d="M404.003 256.766L490.51 261.468L518 354.933L413.021 364.007L404.003 256.766Z" fill="#FCCE08"/>
<path d="M430.53 265.18C429.985 265.18 429.499 264.781 429.373 264.189C429.129 263.071 423.497 236.771 431.435 223.859C433.711 220.157 436.882 217.903 440.88 217.145C461.396 213.269 474.022 260.526 474.547 262.547C474.722 263.227 474.353 263.936 473.72 264.12C473.088 264.315 472.427 263.916 472.251 263.236C472.125 262.77 459.693 216.183 441.289 219.662C437.923 220.303 435.345 222.129 433.419 225.268C426.046 237.266 431.629 263.343 431.688 263.606C431.834 264.295 431.445 264.975 430.803 265.141C430.715 265.17 430.627 265.18 430.53 265.18Z" fill="url(#paint3_linear_984_6385)"/>
<path d="M430.54 268.949C432.377 268.949 433.867 267.348 433.867 265.374C433.867 263.399 432.377 261.798 430.54 261.798C428.703 261.798 427.213 263.399 427.213 265.374C427.213 267.348 428.703 268.949 430.54 268.949Z" fill="url(#paint4_linear_984_6385)"/>
<path d="M473.964 268.609C475.801 268.609 477.29 267.008 477.29 265.034C477.29 263.059 475.801 261.458 473.964 261.458C472.126 261.458 470.637 263.059 470.637 265.034C470.637 267.008 472.126 268.609 473.964 268.609Z" fill="url(#paint5_linear_984_6385)"/>
<path d="M497.125 306.442L470.267 280.287C469.703 279.734 468.886 279.578 468.185 279.889L453.857 286.136C452.651 286.661 452.232 288.274 453.01 289.391L476.405 322.842C477.047 323.765 478.263 323.969 479.148 323.299L496.95 309.755C497.981 308.968 498.068 307.355 497.125 306.442ZM466.415 289.478C465.51 290.129 464.08 289.556 463.234 288.196C462.388 286.836 462.417 285.194 463.322 284.543C464.226 283.892 465.656 284.465 466.503 285.825C467.349 287.186 467.32 288.827 466.415 289.478Z" fill="#D8DEE8"/>
<path d="M497.125 306.082L470.267 279.928C469.703 279.374 468.886 279.219 468.185 279.53L453.857 285.777C452.651 286.301 452.232 287.914 453.01 289.031L476.405 322.483C477.047 323.406 478.263 323.61 479.148 322.939L496.95 309.396C497.981 308.618 498.068 306.996 497.125 306.082ZM466.415 289.119C465.51 289.77 464.08 289.197 463.234 287.836C462.388 286.476 462.417 284.834 463.322 284.183C464.226 283.532 465.656 284.106 466.503 285.466C467.349 286.826 467.32 288.468 466.415 289.119Z" fill="#F4F7FA"/>
<path d="M460.831 282.697C460.744 282.697 460.666 282.648 460.627 282.561C459.693 280.375 458.438 278.48 456.901 276.935C452.67 272.709 447.203 272.048 441.921 271.407C436.659 270.766 431.697 270.164 428.731 265.986C427.982 264.927 426.814 263.013 427.437 262.1C427.69 261.73 428.186 261.565 428.925 261.594C429.042 261.604 429.139 261.701 429.139 261.828C429.129 261.954 429.032 262.041 428.906 262.041C428.507 262.022 428.001 262.061 427.806 262.352C427.476 262.838 427.982 264.169 429.091 265.743C431.941 269.765 436.814 270.358 441.979 270.98C447.339 271.631 452.884 272.301 457.222 276.634C458.808 278.218 460.092 280.151 461.045 282.396C461.094 282.512 461.045 282.639 460.929 282.687C460.89 282.697 460.861 282.697 460.831 282.697Z" fill="#26264F"/>
<path d="M463.127 287.127C463.069 287.127 463.01 287.108 462.971 287.059C462.884 286.972 462.884 286.836 462.971 286.748C462.991 286.729 464.829 284.873 464.82 282.396C464.81 280.87 464.119 279.423 462.757 278.092C459.868 275.255 452.203 271.98 445.442 269.075C441.318 267.307 437.417 265.636 434.859 264.198C434.275 263.868 433.662 263.557 433.03 263.275C432.923 263.227 432.874 263.091 432.923 262.984C432.972 262.877 433.108 262.828 433.215 262.877C433.857 263.168 434.48 263.479 435.073 263.819C437.612 265.248 441.503 266.909 445.618 268.677C452.417 271.592 460.121 274.885 463.069 277.781C464.518 279.199 465.257 280.763 465.257 282.405C465.267 285.067 463.361 286.991 463.283 287.069C463.244 287.108 463.185 287.127 463.127 287.127Z" fill="#26264F"/>
<path d="M497.125 306.082L470.267 279.928C469.703 279.374 468.886 279.219 468.185 279.53L466.911 280.083C467.242 281.298 467.748 282.668 468.506 284.067C472.475 291.334 478.983 291.023 480.491 296.066C481.823 300.535 477.349 302.935 476.765 309.201C476.473 312.33 477.144 316.498 480.744 321.734L496.95 309.405C497.981 308.618 498.068 306.996 497.125 306.082Z" fill="white"/>
<path d="M473.03 297.183C474.499 299.612 474.197 301.633 473.02 302.449C471.785 303.314 470.014 302.663 468.691 300.486C467.436 298.417 467.368 296.221 468.75 295.259C470.15 294.278 471.823 295.201 473.03 297.183ZM470.063 299.427C470.802 300.642 471.619 301.322 472.164 300.933C472.699 300.564 472.485 299.592 471.697 298.291C470.987 297.115 470.209 296.357 469.625 296.765C469.051 297.154 469.353 298.261 470.063 299.427ZM476.065 307.229L473.448 291.985L474.469 291.276L477.076 306.529L476.065 307.229ZM481.784 297.941C483.253 300.37 482.952 302.391 481.775 303.207C480.549 304.062 478.779 303.411 477.446 301.244C476.191 299.175 476.123 296.979 477.504 296.017C478.905 295.036 480.578 295.959 481.784 297.941ZM478.827 300.175C479.547 301.4 480.364 302.07 480.919 301.691C481.454 301.322 481.24 300.35 480.452 299.048C479.742 297.873 478.973 297.105 478.39 297.513C477.816 297.912 478.127 299.009 478.827 300.175Z" fill="#D8DEE8"/>
<path d="M476.629 315.672C476.269 315.672 475.919 315.478 475.715 315.118C475.413 314.584 475.569 313.874 476.074 313.544L489.012 305.121C489.518 304.79 490.17 304.965 490.471 305.5C490.773 306.044 490.617 306.743 490.111 307.073L477.174 315.497C477.008 315.614 476.814 315.672 476.629 315.672Z" fill="#D8DEE8"/>
<path d="M460.89 364.435C460.89 365.61 460.053 366.631 459.022 366.689L386.182 370.993C384.811 371.071 383.682 370.021 383.682 368.651V318.023C383.682 316.653 384.811 315.575 386.182 315.633L459.032 318.655C460.063 318.693 460.899 319.694 460.899 320.879V364.435H460.89Z" fill="url(#paint6_linear_984_6385)"/>
<path d="M460.89 352.562L383.682 356.517V365.795L460.89 361.267V352.562Z" fill="#1DC895"/>
<g opacity="0.15">
<path opacity="0.15" d="M406.464 332.383C406.377 338.134 402.778 341.127 398.76 341.107C394.392 341.088 390.891 337.746 390.968 332.247C391.046 327.02 394.344 323.299 399.237 323.668C403.993 324.027 406.542 327.69 406.464 332.383ZM396.095 332.276C396.046 335.278 397.029 337.454 398.955 337.493C400.803 337.532 401.727 335.647 401.776 332.499C401.815 329.653 401.085 327.408 399.071 327.282C397.097 327.165 396.134 329.4 396.095 332.276ZM400.151 350.765L414.071 325.592C414.334 325.106 414.859 324.824 415.414 324.873C416.435 324.95 417.038 326.048 416.542 326.952L402.778 352.115C402.544 352.543 402.097 352.825 401.601 352.844L401.445 352.854C400.346 352.902 399.616 351.727 400.151 350.765ZM423.964 343.672C423.886 348.997 420.793 351.921 417.359 352.067C413.672 352.232 410.686 349.288 410.725 344.226C410.803 339.407 413.604 335.832 417.787 335.939C421.853 336.055 424.032 339.33 423.964 343.672ZM415.122 344.022C415.044 346.791 415.881 348.763 417.515 348.715C419.1 348.666 419.888 346.888 419.927 343.983C419.966 341.35 419.382 339.31 417.651 339.291C415.949 339.271 415.161 341.38 415.122 344.022Z" fill="url(#paint7_linear_984_6385)"/>
</g>
<path d="M407.135 332.111C407.048 337.862 403.449 340.855 399.431 340.835C395.064 340.816 391.562 337.474 391.64 331.975C391.717 326.748 395.015 323.027 399.908 323.396C404.674 323.755 407.213 327.418 407.135 332.111ZM396.766 332.004C396.717 335.006 397.7 337.182 399.626 337.221C401.474 337.26 402.398 335.375 402.447 332.227C402.486 329.381 401.756 327.136 399.743 327.01C397.768 326.893 396.805 329.138 396.766 332.004ZM400.822 350.503L414.742 325.329C415.005 324.843 415.53 324.562 416.085 324.61C417.106 324.688 417.709 325.786 417.213 326.689L403.449 351.853C403.215 352.28 402.768 352.562 402.272 352.582L402.116 352.591C401.017 352.64 400.287 351.464 400.822 350.503ZM424.635 343.41C424.557 348.734 421.464 351.659 418.03 351.804C414.344 351.97 411.357 349.026 411.396 343.964C411.474 339.145 414.275 335.57 418.458 335.676C422.524 335.783 424.703 339.057 424.635 343.41ZM415.793 343.76C415.715 346.529 416.552 348.501 418.186 348.452C419.772 348.404 420.559 346.626 420.598 343.721C420.637 341.088 420.054 339.048 418.322 339.028C416.62 338.999 415.832 341.107 415.793 343.76Z" fill="white"/>
<path d="M464.878 340.826V364.775C464.878 366.116 463.808 367.223 462.475 367.32L452.621 368.039L431.328 369.594C433.147 369.195 433.186 367.69 433.186 367.69C433.186 367.69 433.186 342.254 433.186 341.399L435.472 343.527L436.668 342.283L437.174 341.768L438.935 343.43L440.608 341.671L442.368 343.332L444.032 341.574L445.793 343.235L447.456 341.477L449.217 343.138L450.88 341.379L452.641 343.041L454.304 341.282L456.065 342.944L457.728 341.185L459.489 342.847L461.152 341.088L462.942 342.749L464.878 340.826Z" fill="white"/>
<path d="M461.289 354.739L457.446 354.913C457.184 354.923 456.989 355.137 456.989 355.399V357.158C456.989 357.439 457.222 357.653 457.505 357.644L461.347 357.43C461.6 357.42 461.804 357.206 461.804 356.944V355.224C461.794 354.943 461.561 354.719 461.289 354.739Z" fill="#C2F6E6"/>
<path d="M461.279 358.139L457.436 358.353C457.184 358.362 456.979 358.576 456.979 358.839V360.675C456.979 360.957 457.213 361.17 457.495 361.161L461.337 360.918C461.59 360.898 461.794 360.694 461.794 360.432V358.625C461.794 358.343 461.561 358.12 461.279 358.139Z" fill="#C2F6E6"/>
<path d="M461.794 349.852V346.704C461.794 346.432 461.571 346.208 461.289 346.218L457.446 346.354C457.184 346.364 456.979 346.577 456.979 346.84V350.026C456.979 350.298 457.213 350.522 457.485 350.512L461.327 350.337C461.59 350.328 461.794 350.114 461.794 349.852Z" fill="#C2F6E6"/>
<path d="M453.302 355.098L437.651 355.807C437.388 355.817 437.184 356.031 437.184 356.293V358.275C437.184 358.557 437.417 358.771 437.699 358.761L453.351 357.877C453.604 357.867 453.808 357.653 453.808 357.391V355.584C453.808 355.302 453.575 355.079 453.302 355.098Z" fill="#C2F6E6"/>
<path d="M453.293 358.586L437.641 359.47C437.388 359.48 437.184 359.694 437.184 359.956V361.948C437.184 362.229 437.417 362.443 437.699 362.433L453.351 361.433C453.604 361.413 453.808 361.209 453.808 360.947V359.072C453.808 358.79 453.575 358.576 453.293 358.586Z" fill="#C2F6E6"/>
<path d="M453.808 350.211V346.985C453.808 346.713 453.584 346.49 453.302 346.5L437.651 347.063C437.388 347.073 437.184 347.287 437.184 347.549V350.92C437.184 351.192 437.417 351.416 437.69 351.406L453.341 350.697C453.604 350.687 453.808 350.473 453.808 350.211Z" fill="#C2F6E6"/>
</g>
<defs>
<linearGradient id="paint0_linear_984_6385" x1="404.62" y1="231.961" x2="129.456" y2="231.961" gradientUnits="userSpaceOnUse">
<stop stop-color="#EDF4FF"/>
<stop offset="1" stop-color="#EDFFFE"/>
</linearGradient>
<linearGradient id="paint1_linear_984_6385" x1="391.995" y1="241.979" x2="434.052" y2="240.148" gradientUnits="userSpaceOnUse">
<stop stop-color="#AB316D"/>
<stop offset="1" stop-color="#792D3D"/>
</linearGradient>
<linearGradient id="paint2_linear_984_6385" x1="398.219" y1="310.385" x2="426.934" y2="310.385" gradientUnits="userSpaceOnUse">
<stop stop-color="#FFC444"/>
<stop offset="0.9964" stop-color="#F36F56"/>
</linearGradient>
<linearGradient id="paint3_linear_984_6385" x1="456.474" y1="203.909" x2="438.233" y2="359.798" gradientUnits="userSpaceOnUse">
<stop stop-color="#AB316D"/>
<stop offset="1" stop-color="#792D3D"/>
</linearGradient>
<linearGradient id="paint4_linear_984_6385" x1="466.099" y1="197.807" x2="413.296" y2="298.385" gradientUnits="userSpaceOnUse">
<stop stop-color="#AB316D"/>
<stop offset="1" stop-color="#792D3D"/>
</linearGradient>
<linearGradient id="paint5_linear_984_6385" x1="499.435" y1="216.637" x2="446.631" y2="317.215" gradientUnits="userSpaceOnUse">
<stop stop-color="#AB316D"/>
<stop offset="1" stop-color="#792D3D"/>
</linearGradient>
<linearGradient id="paint6_linear_984_6385" x1="362.38" y1="367.589" x2="535.977" y2="347.149" gradientUnits="userSpaceOnUse">
<stop offset="0.385417" stop-color="#18A87C"/>
<stop offset="1" stop-color="#E2FBF3"/>
</linearGradient>
<linearGradient id="paint7_linear_984_6385" x1="390.887" y1="338.114" x2="424.04" y2="338.615" gradientUnits="userSpaceOnUse">
<stop stop-color="#FF9085"/>
<stop offset="1" stop-color="#FB6FBB"/>
</linearGradient>
<clipPath id="clip0_984_6385">
<rect width="518" height="381" fill="white"/>
</clipPath>
</defs>
</svg>
