<svg width="10" height="10" viewBox="0 0 10 10" fill="none" xmlns="http://www.w3.org/2000/svg">
<path d="M9.20047 0.806647C8.94047 0.546647 8.52047 0.546647 8.26047 0.806647L5.00047 4.05998L1.74047 0.79998C1.48047 0.53998 1.06047 0.53998 0.800469 0.79998C0.540469 1.05998 0.540469 1.47998 0.800469 1.73998L4.06047 4.99998L0.800469 8.25998C0.540469 8.51998 0.540469 8.93998 0.800469 9.19998C1.06047 9.45998 1.48047 9.45998 1.74047 9.19998L5.00047 5.93998L8.26047 9.19998C8.52047 9.45998 8.94047 9.45998 9.20047 9.19998C9.46047 8.93998 9.46047 8.51998 9.20047 8.25998L5.94047 4.99998L9.20047 1.73998C9.4538 1.48665 9.4538 1.05998 9.20047 0.806647Z" fill="#757575"/>
</svg>
