<svg width="14" height="13" viewBox="0 0 14 13" fill="none" xmlns="http://www.w3.org/2000/svg">
<path fill-rule="evenodd" clip-rule="evenodd" d="M8.7335 4.43333L12.0802 4.68667L10.0935 5.52C8.7135 6.2 6.2935 7.47333 5.10683 8.25333L4.62016 6.06667L3.92016 6.06L3.5335 7.49333L3.3535 7.34L3.22683 7.23333L0.333496 4.78667L5.1135 4.43333L6.92016 0L8.7335 4.43333Z" fill="#18A87C"/>
<path fill-rule="evenodd" clip-rule="evenodd" d="M10.9135 12.4134L9.96683 9.86669L10.2602 9.64669L8.3335 8.87335L8.48683 10.94L8.78016 10.7267L10.9135 12.4134Z" fill="#18A87C"/>
<path fill-rule="evenodd" clip-rule="evenodd" d="M2.88037 12.4067C3.34037 10.5267 3.80037 8.64667 4.26037 6.76L4.7337 9.14667C7.22037 7.4 10.807 5.58667 13.667 4.70667C9.38704 7.14 5.7337 9.78 2.88037 12.4067Z" fill="#18A87C"/>
</svg>
