<svg width="469" height="453" viewBox="0 0 469 453" fill="none" xmlns="http://www.w3.org/2000/svg">
<path opacity="0.3" d="M122.271 0H43V34.8759H122.271V0Z" fill="#FBCD05"/>
<path opacity="0.2" d="M205.867 69.0527H38V103.449H205.867V69.0527Z" fill="#FF4A32"/>
<path d="M116.377 110.559H38V145.435H116.377V110.559Z" stroke="#18A87C" stroke-width="0.5564" stroke-miterlimit="10"/>
<path d="M205.867 110.559H125.965V145.435H205.867V110.559Z" stroke="#18A87C" stroke-width="0.5564" stroke-miterlimit="10"/>
<path opacity="0.3" d="M205.867 152H38V169.755H205.867V152Z" fill="#18A87C" stroke="#18A87C" stroke-width="0.5564" stroke-miterlimit="10"/>
<path opacity="0.2" d="M379.227 432.156C379.227 434.403 317.257 444.981 296.644 444.981C276.031 444.981 270.889 453.967 236.788 451.917C224.15 451.154 194.603 438.024 189.613 438.024C84.8924 438.024 0 435.384 0 432.156C0 428.928 84.8924 426.289 189.613 426.289C227.331 426.289 273.024 425.7 302.549 426.289C355.018 427.336 379.227 430.084 379.227 432.156Z" fill="#005077"/>
<path d="M81.1011 399.789L70.2063 436.562H74.4117L86.7664 399.789H81.1011Z" fill="#9E9D98"/>
<path d="M95.4822 399.789H86.7663L74.4116 436.562H79.5104L95.4822 399.789Z" fill="#D6D5CA"/>
<path d="M24.3826 394.838L13.4878 431.611H17.6932L30.0261 394.838H24.3826Z" fill="#9E9D98"/>
<path d="M38.7637 394.838H30.026L17.6931 431.611H22.7701L38.7637 394.838Z" fill="#D6D5CA"/>
<path d="M295.859 389.516L306.754 426.289H302.571L290.216 389.516H295.859Z" fill="#9E9D98"/>
<path d="M281.478 389.516H290.216L302.571 426.289H297.472L281.478 389.516Z" fill="#D6D5CA"/>
<path d="M352.578 394.838L363.473 431.611H359.289L346.934 394.838H352.578Z" fill="#9E9D98"/>
<path d="M338.197 394.838H346.934L359.289 431.611H354.19L338.197 394.838Z" fill="#D6D5CA"/>
<path d="M257.292 217.731H228.464H32.2268L62.9502 355.207H266.792H295.249V255.705C295.249 234.722 278.254 217.731 257.292 217.731Z" fill="#A3F2DA"/>
<path d="M32.2268 217.731V355.207H62.9502V248.485C62.972 231.494 49.2009 217.731 32.2268 217.731Z" fill="#5FDEB8"/>
<path d="M368.855 398.545V299.021H300.043C284.442 299.021 271.804 311.672 271.804 327.289V407.553H333.207H359.856L368.855 398.545Z" fill="#A3F2DA"/>
<path d="M338.349 355.207H106.072V399.68H338.349V355.207Z" fill="#A3F2DA"/>
<path d="M368.855 299.021V398.545C368.855 403.518 364.824 407.553 359.856 407.553H333.207V334.704C333.229 314.987 349.179 299.021 368.855 299.021Z" fill="#5FDEB8"/>
<path d="M338.349 363.059H106.072V407.532H338.349V363.059Z" fill="#5FDEB8"/>
<path d="M71.8838 299.021C91.5598 299.021 107.532 314.987 107.532 334.704V407.553H71.8838V299.021Z" fill="#5FDEB8"/>
<path d="M34.6672 407.532H71.8839V299.021H30.7233C18.63 299.021 8.82471 308.836 8.82471 320.942V381.664C8.82471 395.95 20.395 407.532 34.6672 407.532Z" fill="#4CD8AD"/>
<path d="M168.325 278.541C171.114 273.721 174.993 269.533 179.547 266.348C177.346 264.298 171.637 258.976 171.375 258.169C171.07 257.275 171.07 226.849 171.223 220.371C171.31 216.728 170.09 212.606 166.8 210.992C164.294 209.77 161.2 210.359 158.825 211.799C153.878 214.765 151.503 220.589 149.695 226.063C144.77 240.829 152.767 266.261 153.05 267.177C153.399 268.377 163.684 276.251 168.325 278.541Z" fill="#FF9849"/>
<path d="M179.547 266.348L201.38 284.517L199.092 288.77L168.325 278.519C168.325 278.541 175.123 266.239 179.547 266.348Z" fill="#FFC0BB"/>
<path d="M201.402 284.473L208.287 300.243L206.936 301.988L198.046 294.507L199.092 288.792L201.402 284.473Z" fill="#FFC0BB"/>
<path d="M202.949 298.563L201.38 303.253L197.479 305.914L197.305 305.041L200.007 302.162L201.554 297.407L202.949 298.563Z" fill="#FFC0BB"/>
<path d="M204.626 299.305L204.104 304.234L200.879 307.659L200.53 306.852L202.535 303.471L202.992 298.476L204.626 299.305Z" fill="#FAFAFA"/>
<path d="M206.348 300.003L206.784 304.932L204.278 308.924L203.777 308.182L205.084 304.474L204.583 299.501L206.348 300.003Z" fill="#FAFAFA"/>
<path d="M208.287 300.243L208.723 305.172L206.217 309.142L205.694 308.422L207.023 304.714L206.522 299.741L208.287 300.243Z" fill="#FAFAFA"/>
<path d="M138.8 187.392C137.079 187.414 135.444 188.068 133.854 188.723C124.963 192.343 116.052 195.942 107.161 199.563C105.701 200.152 104.154 200.806 103.283 202.115C102.498 203.293 102.389 204.797 102.324 206.215C100.712 243.883 110.517 291.911 123.896 327.158C141.872 327.419 159.979 319.829 178.239 316.427C169.218 291.976 164.446 251.364 174.164 227.176C175.908 222.857 175.167 215.18 173.424 210.883C172.661 208.985 155.164 193.674 144.117 188.832C142.439 188.068 140.674 187.37 138.8 187.392Z" fill="#F5842D"/>
<path d="M120.104 291.955C121.477 285.368 124.288 279.086 128.297 273.677C124.985 272.15 116.422 268.246 115.79 267.417C115.093 266.501 116.248 218.124 113.916 210.621C112.609 206.39 109.645 202.137 105.266 201.548C101.932 201.09 98.6198 202.965 96.4191 205.517C91.8868 210.817 91.4075 218.386 91.4075 225.365C91.4075 244.188 97.5304 283.797 98.2276 284.757C99.0992 286 113.894 291.082 120.104 291.955Z" fill="#FF9849"/>
<path d="M128.297 273.677L160.285 286.196L159.304 291.955H120.104C120.104 291.955 123.199 275.226 128.297 273.677Z" fill="#FFC0BB"/>
<path d="M160.285 286.131L174.208 301.573L173.337 304.082L160.285 298.912L159.282 291.955L160.285 286.131Z" fill="#FFC0BB"/>
<path d="M167.453 301.704V307.68L163.989 312.217L163.466 311.279L165.47 306.961L165.405 300.897L167.453 301.704Z" fill="#FFC0BB"/>
<path d="M169.632 301.9L170.94 307.746L168.565 312.937L167.846 312.13L168.848 307.484L167.453 301.573L169.632 301.9Z" fill="#FFC0BB"/>
<path d="M171.899 302.053L174.295 307.55L172.944 313.068L172.073 312.435L172.182 307.659L169.698 302.14L171.899 302.053Z" fill="#FFC0BB"/>
<path d="M174.208 301.573L176.605 307.07L175.232 312.61L174.382 311.955L174.47 307.201L171.986 301.682L174.208 301.573Z" fill="#FFC0BB"/>
<path d="M202.927 298.345L202.121 304.823H203.341L204.975 300.635L202.927 298.345Z" fill="#FAFAFA"/>
<path d="M253.283 340.506L235.785 332.371L154.271 356.646L219.378 359.504V369.951L227.2 391.26L251.452 355.207L253.283 340.506Z" fill="#202020"/>
<path d="M242.148 438.045L251.452 355.207L222.123 377.454L231.536 438.285L242.148 438.045Z" fill="#202020"/>
<path d="M315.274 370.627C315.1 370.213 264.025 326.067 264.025 326.067L247.116 317.452L241.93 342.665L305.142 373.79C305.207 373.79 315.274 370.627 315.274 370.627Z" fill="#202020"/>
<path d="M124.157 327.158L130.345 345.065C135.008 358.566 149.76 366.57 164.49 363.56L246.353 342.905C252.803 341.597 257.379 336.231 257.379 330.015C257.379 322.73 251.104 316.819 243.39 316.819L169.044 317.168L124.157 327.158Z" fill="#202020"/>
<path d="M196.956 313.526H268.819L279.539 269.467C280.52 265.411 277.469 261.506 273.285 261.506H214.649C211.686 261.506 209.115 263.535 208.396 266.414L196.956 313.526Z" fill="#EEEBD4"/>
<path d="M199.985 313.526L211.446 266.414C212.144 263.535 214.737 261.506 217.7 261.506H276.336C278.493 261.506 280.345 262.553 281.522 264.145L232.19 313.526H199.985Z" fill="#D6D5CA"/>
<path d="M281.478 264.145C282.546 265.607 283.026 267.526 282.546 269.467L271.826 313.526H232.125L281.478 264.145Z" fill="#CCCBC4"/>
<path d="M167.366 313.526H229.336L225.719 317.146H163.749C163.749 315.14 165.361 313.526 167.366 313.526Z" fill="#9E9D98"/>
<path d="M271.826 313.526C271.826 315.532 270.213 317.146 268.209 317.146H225.697L229.314 313.526H271.826Z" fill="#9E9D98"/>
<path d="M163.749 317.146H196.368C198.373 317.146 199.985 315.532 199.985 313.526H167.366C165.361 313.526 163.749 315.14 163.749 317.146Z" fill="#EEEBD4"/>
<path d="M174.884 168.46C177.346 170.205 180.876 170.249 183.381 168.569C185.887 166.89 187.173 163.596 186.476 160.652C191.226 162.288 196.586 156.508 194.581 151.884C197.632 151.557 200.247 148.787 200.377 145.711C200.53 142.636 198.198 139.648 195.191 139.015C196.608 135.22 195.54 130.618 192.598 127.848C189.635 125.078 184.994 124.315 181.311 125.994C181.203 121.152 177.956 116.528 173.445 114.783C168.935 113.038 163.422 114.281 160.11 117.793C152.615 112.886 141.001 116.572 137.732 124.925C131.609 124.576 126.053 130.88 127.164 136.921C123.569 136.856 120.061 139.299 118.884 142.723C117.708 146.126 118.95 150.226 121.826 152.385C117.947 156.988 121.041 165.363 126.968 166.345C125.138 167.806 124.637 170.707 125.879 172.692C127.121 174.698 129.932 175.527 132.045 174.524C131.653 177.708 133.353 181.067 136.142 182.659C138.931 184.251 142.678 183.99 145.228 182.027L174.884 168.46Z" fill="#202020"/>
<path d="M175.995 150.226C178.326 151.448 179.089 154.501 178.762 157.118C178.435 159.736 177.28 162.179 176.779 164.774C176.278 167.37 176.605 170.401 178.653 172.059C179.656 172.866 181.115 173.52 181.115 174.807C181.094 176.509 178.719 176.792 177.237 177.621C174.949 178.886 174.6 181.983 174.47 184.6C174.339 187.218 173.838 190.337 171.463 191.427C168.412 192.845 165.274 189.791 162.006 188.963C158.999 188.199 155.752 189.442 153.377 191.449C151.002 193.456 144.77 205.037 143.158 207.698C137.711 207.088 133.004 199.279 132.895 191.144L148.714 171.972C146.819 172.212 144.966 170.99 144.03 169.333C143.093 167.675 143.31 165.407 144.618 164.033C145.925 162.637 151.351 160.957 151.351 167.239C151.351 167.239 155.077 163.727 156.624 158.667C160.023 147.5 175.995 150.226 175.995 150.226Z" fill="#FFC0BB"/>
<path d="M231.537 438.285L242.148 438.045L255.571 444.61L272.37 445.985L274.92 449.692L227.963 451.917L231.537 438.285Z" fill="#002856"/>
<path d="M305.164 373.768L315.274 370.627L330.004 373.223L346.521 369.951L350.007 372.808L305.469 387.858L305.164 373.768Z" fill="#002856"/>
<path opacity="0.2" d="M437.1 427.009C454.718 427.009 469 425.701 469 424.087C469 422.472 454.718 421.164 437.1 421.164C419.482 421.164 405.2 422.472 405.2 424.087C405.2 425.701 419.482 427.009 437.1 427.009Z" fill="#18A97D"/>
<path d="M443.985 326.94L437.863 348.62L438.32 370.933" stroke="#18A97D" stroke-width="1.015" stroke-miterlimit="10" stroke-linecap="round"/>
<path d="M427.404 327.071L437.863 348.62" stroke="#18A97D" stroke-width="1.015" stroke-miterlimit="10" stroke-linecap="round"/>
<path d="M411.236 320.615C417.881 330.386 425.116 333.701 429.517 331.062L405.178 295.314C405.135 298.302 405.222 311.781 411.236 320.615Z" fill="#1DC895"/>
<path d="M405.2 294.703C405.2 294.703 405.2 294.921 405.178 295.314L429.517 331.062C429.626 330.997 429.713 330.931 429.822 330.866C434.202 327.878 433.875 319.786 427.077 309.796C420.278 299.829 405.2 294.703 405.2 294.703Z" fill="#1DC895"/>
<path d="M424.266 322.861C422.61 320.462 420.976 318.063 419.341 315.664C416.051 310.865 412.717 306.089 409.362 301.334C409.318 301.29 409.209 301.356 409.253 301.421C411.41 304.714 413.589 307.986 415.768 311.258C413.829 311.061 411.693 310.931 409.623 311.149C409.514 311.171 409.449 311.323 409.558 311.345C411.519 311.672 413.807 311.629 415.942 311.52C416.923 313.003 417.925 314.486 418.927 315.947C420.562 318.346 422.196 320.767 423.83 323.167C425.442 325.566 426.902 328.161 428.776 330.364C428.907 330.517 429.234 330.299 429.147 330.103C427.774 327.551 425.9 325.239 424.266 322.861Z" fill="#18A87C"/>
<path d="M422.043 319.96C418.753 319.611 415.267 319.524 411.759 319.742C411.671 319.742 411.628 319.851 411.715 319.873C414.983 320.244 418.492 320.331 421.978 320.135C422.109 320.113 422.174 319.96 422.043 319.96Z" fill="#18A87C"/>
<path d="M421.673 308.161C421.128 309.447 420.627 310.734 420.126 311.999C419.668 313.155 419.145 314.333 418.971 315.467C418.949 315.554 419.102 315.554 419.167 315.467C419.821 314.333 420.148 313.155 420.54 311.999C420.976 310.712 421.411 309.426 421.804 308.139C421.804 308.095 421.695 308.073 421.673 308.161Z" fill="#18A87C"/>
<path d="M427.73 317.408C426.837 319.611 425.813 321.858 425.225 324.083C425.181 324.213 425.377 324.213 425.442 324.083C426.488 321.88 427.098 319.633 427.817 317.408C427.861 317.343 427.752 317.343 427.73 317.408Z" fill="#18A87C"/>
<path d="M427.404 327.071C424.745 326.744 421.804 326.744 418.949 326.896C418.862 326.896 418.819 327.027 418.906 327.027C421.586 327.311 424.462 327.463 427.316 327.267C427.491 327.267 427.556 327.093 427.404 327.071Z" fill="#18A87C"/>
<path d="M413.197 361.271C422.305 371.282 431.043 373.921 435.618 370.213L402.28 333.505C402.694 336.929 404.96 352.197 413.197 361.271Z" fill="#1DC895"/>
<path d="M402.215 332.829C402.215 332.829 402.237 333.069 402.302 333.527L435.64 370.235C435.749 370.148 435.858 370.06 435.945 369.973C440.434 365.895 438.778 356.756 429.474 346.504C420.148 336.231 402.215 332.829 402.215 332.829Z" fill="#1DC895"/>
<path d="M428.341 361.75C426.096 359.286 423.852 356.821 421.608 354.356C417.119 349.427 412.565 344.541 407.989 339.678C407.946 339.634 407.815 339.721 407.88 339.787C410.844 343.189 413.851 346.548 416.836 349.907C414.591 349.994 412.173 350.19 409.863 350.779C409.754 350.801 409.711 350.997 409.82 350.997C412.107 351.063 414.679 350.649 417.097 350.19C418.448 351.717 419.821 353.244 421.194 354.749C423.438 357.214 425.682 359.7 427.905 362.165C430.127 364.629 432.176 367.334 434.682 369.537C434.856 369.69 435.204 369.384 435.052 369.188C433.069 366.505 430.585 364.193 428.341 361.75Z" fill="#18A87C"/>
<path d="M425.356 358.806C421.564 358.937 417.577 359.395 413.654 360.18C413.545 360.202 413.524 360.333 413.633 360.333C417.402 360.245 421.412 359.766 425.334 359.002C425.464 358.98 425.486 358.806 425.356 358.806Z" fill="#18A87C"/>
<path d="M423.046 345.479C422.632 347.028 422.283 348.555 421.913 350.103C421.586 351.499 421.172 352.895 421.15 354.226C421.15 354.335 421.324 354.313 421.368 354.204C421.913 352.808 422.109 351.434 422.37 350.038C422.653 348.511 422.958 346.984 423.198 345.458C423.198 345.37 423.067 345.392 423.046 345.479Z" fill="#18A87C"/>
<path d="M431.413 355.011C430.759 357.672 429.931 360.376 429.648 362.994C429.626 363.146 429.844 363.124 429.91 362.972C430.737 360.311 431.064 357.65 431.544 355.011C431.544 354.924 431.435 354.945 431.413 355.011Z" fill="#18A87C"/>
<path d="M432.59 366.047C429.517 366.091 426.183 366.592 422.98 367.203C422.871 367.225 422.85 367.378 422.937 367.356C426.031 367.247 429.321 366.963 432.524 366.287C432.699 366.244 432.742 366.025 432.59 366.047Z" fill="#18A87C"/>
<path d="M464.555 356.145C458.301 370.039 449.869 375.884 443.702 373.528L466.582 322.687C467.322 326.46 470.199 343.56 464.555 356.145Z" fill="#1DC895"/>
<path d="M466.407 321.902C466.407 321.902 466.472 322.163 466.56 322.665L443.68 373.507C443.528 373.463 443.397 373.397 443.245 373.332C437.035 370.518 435.618 360.18 442.003 345.981C448.431 331.782 466.407 321.902 466.407 321.902Z" fill="#1DC895"/>
<path d="M448.518 361.925C450.065 358.501 451.612 355.098 453.159 351.674C456.253 344.825 459.413 338.02 462.616 331.237C462.659 331.171 462.812 331.237 462.79 331.302C460.785 335.97 458.759 340.615 456.733 345.261C459.151 344.563 461.831 343.953 464.49 343.756C464.62 343.756 464.751 343.931 464.62 343.974C462.202 344.825 459.304 345.305 456.558 345.632C455.621 347.726 454.706 349.842 453.769 351.935C452.244 355.36 450.697 358.784 449.172 362.208C447.646 365.611 446.383 369.232 444.487 372.438C444.356 372.678 443.877 372.46 443.964 372.198C445.119 368.643 446.971 365.306 448.518 361.925Z" fill="#18A87C"/>
<path d="M450.675 357.737C454.771 356.559 459.195 355.643 463.662 355.142C463.77 355.12 463.858 355.251 463.749 355.294C459.674 356.516 455.229 357.388 450.784 357.933C450.653 357.955 450.544 357.781 450.675 357.737Z" fill="#18A87C"/>
<path d="M448.518 342.666C449.498 344.171 450.413 345.697 451.35 347.202C452.2 348.577 453.094 349.929 453.595 351.347C453.638 351.456 453.442 351.499 453.355 351.39C452.287 350.081 451.59 348.686 450.827 347.29C449.999 345.763 449.15 344.214 448.365 342.687C448.322 342.6 448.474 342.578 448.518 342.666Z" fill="#18A87C"/>
<path d="M442.896 355.774C444.53 358.391 446.339 361.009 447.559 363.692C447.624 363.844 447.385 363.91 447.276 363.757C445.467 361.183 444.182 358.479 442.765 355.818C442.744 355.731 442.852 355.709 442.896 355.774Z" fill="#18A87C"/>
<path d="M445.467 367.967C448.779 366.941 452.505 366.309 456.144 365.851C456.275 365.829 456.34 365.982 456.231 366.004C452.897 366.963 449.259 367.814 445.598 368.206C445.424 368.25 445.315 368.032 445.467 367.967Z" fill="#18A87C"/>
<path d="M457.146 321.618C452.483 329.644 447.014 332.676 443.397 330.866L460.459 301.443C460.655 303.777 461.352 314.355 457.146 321.618Z" fill="#1DC895"/>
<path d="M460.393 300.963C460.393 300.963 460.415 301.137 460.437 301.443L443.375 330.866C443.288 330.822 443.201 330.779 443.136 330.735C439.54 328.641 439.323 322.272 444.094 314.05C448.866 305.827 460.393 300.963 460.393 300.963Z" fill="#1DC895"/>
<path d="M447.058 324.126C448.213 322.141 449.367 320.178 450.522 318.194C452.832 314.246 455.164 310.298 457.539 306.394C457.56 306.35 457.669 306.394 457.626 306.459C456.122 309.164 454.597 311.868 453.072 314.551C454.597 314.289 456.253 314.071 457.887 314.115C457.974 314.115 458.018 314.246 457.953 314.268C456.427 314.638 454.641 314.747 452.963 314.769C452.266 315.991 451.59 317.212 450.871 318.412C449.716 320.397 448.583 322.381 447.45 324.366C446.317 326.329 445.336 328.445 443.964 330.299C443.877 330.43 443.593 330.277 443.659 330.124C444.552 328.009 445.903 326.089 447.058 324.126Z" fill="#18A97D"/>
<path d="M448.627 321.727C451.176 321.269 453.921 320.985 456.667 320.964C456.732 320.964 456.776 321.051 456.71 321.051C454.161 321.531 451.416 321.792 448.67 321.858C448.583 321.858 448.539 321.749 448.627 321.727Z" fill="#18A87C"/>
<path d="M448.256 312.435C448.757 313.417 449.215 314.398 449.694 315.358C450.108 316.231 450.588 317.125 450.806 318.019C450.827 318.085 450.697 318.106 450.653 318.041C450.087 317.19 449.738 316.296 449.389 315.402C448.975 314.42 448.561 313.439 448.169 312.457C448.126 312.392 448.235 312.392 448.256 312.435Z" fill="#18A87C"/>
<path d="M444.029 320.048C444.857 321.727 445.794 323.428 446.361 325.13C446.404 325.239 446.252 325.239 446.186 325.151C445.249 323.472 444.639 321.749 443.942 320.048C443.92 320.004 444.007 320.004 444.029 320.048Z" fill="#18A87C"/>
<path d="M444.813 327.616C446.883 327.202 449.193 327.049 451.438 327.005C451.503 327.005 451.546 327.093 451.481 327.114C449.389 327.485 447.145 327.769 444.901 327.79C444.77 327.769 444.726 327.638 444.813 327.616Z" fill="#18A87C"/>
<path d="M464.141 367.094H411.933V375.448H464.141V367.094Z" fill="#EFEBE9"/>
<path d="M464.141 375.47H411.933V379.09H464.141V375.47Z" fill="#18A87C"/>
<path d="M464.141 421.142V379.09H411.933V400.531L434.137 421.142H464.141Z" fill="#EFEBE9"/>
<path d="M451.874 421.142L411.933 386.026V421.142H451.874Z" fill="#A3F2DA"/>
<path d="M411.933 421.142V424.763H436.599L432.699 421.142H411.933Z" fill="#18A87C"/>
<path d="M464.141 421.142H432.699L436.599 424.763H464.141V421.142Z" fill="#18A87C"/>
</svg>
