<svg width="152" height="328" viewBox="0 0 152 328" fill="none" xmlns="http://www.w3.org/2000/svg">
<path d="M118.808 325.121V327H126.4C126.4 313.437 137.416 303.471 151.01 303.471V23.5287C137.416 23.5287 126.4 13.5629 126.4 0H118.808V1.87926C118.808 4.24256 116.896 6.15029 114.527 6.15029C112.159 6.15029 110.247 4.24256 110.247 1.87926V0H102.712V1.87926C102.712 4.24256 100.8 6.15029 98.4315 6.15029C96.0628 6.15029 94.1507 4.24256 94.1507 1.87926V0H85.7603C85.7603 5.38151 81.3938 9.73796 76 9.73796C70.6062 9.73796 66.2397 5.38151 66.2397 0H57.6781V1.87926C57.6781 4.24256 55.766 6.15029 53.3973 6.15029C51.0285 6.15029 49.1164 4.24256 49.1164 1.87926V0H41.5822V1.87926C41.5822 4.24256 39.6701 6.15029 37.3014 6.15029C34.9326 6.15029 33.0205 4.24256 33.0205 1.87926V0H25.6005C25.6005 13.5629 14.5845 23.5287 0.990479 23.5287V303.481C14.5845 303.481 25.6005 313.447 25.6005 327.01H33.0205V325.13C33.0205 322.767 34.9326 320.859 37.3014 320.859C39.6701 320.859 41.5822 322.767 41.5822 325.13V327.01H49.1164V325.13C49.1164 322.767 51.0285 320.859 53.3973 320.859C55.766 320.859 57.6781 322.767 57.6781 325.13V327.01H66.2397C66.2397 321.628 70.6062 317.272 76 317.272C81.3938 317.272 85.7603 321.628 85.7603 327.01H94.1507V325.13C94.1507 322.767 96.0628 320.859 98.4315 320.859C100.8 320.859 102.712 322.767 102.712 325.13V327.01H110.247V325.13C110.247 322.767 112.159 320.859 114.527 320.859C116.896 320.85 118.808 322.757 118.808 325.121Z" fill="#FF4A32"/>
<g opacity="0.1">
<path d="M91.801 69.4421C91.801 68.4834 92.5811 67.7052 93.5514 67.7052C94.5122 67.7052 95.2923 68.4834 95.2923 69.4421C95.2923 70.4007 94.5122 71.1884 93.5514 71.1884C92.5811 71.1884 91.801 70.4007 91.801 69.4421Z" fill="#EF3F28"/>
<path d="M91.801 84.4761C91.801 83.5175 92.5811 82.7392 93.5514 82.7392C94.5122 82.7392 95.2923 83.5175 95.2923 84.4761C95.2923 85.4347 94.5122 86.2225 93.5514 86.2225C92.5811 86.2225 91.801 85.4442 91.801 84.4761Z" fill="#EF3F28"/>
<path d="M91.801 99.5196C91.801 98.561 92.5811 97.7827 93.5514 97.7827C94.5122 97.7827 95.2923 98.561 95.2923 99.5196C95.2923 100.478 94.5122 101.266 93.5514 101.266C92.5811 101.257 91.801 100.478 91.801 99.5196Z" fill="#EF3F28"/>
<path d="M91.801 114.554C91.801 113.595 92.5811 112.817 93.5514 112.817C94.5122 112.817 95.2923 113.595 95.2923 114.554C95.2923 115.512 94.5122 116.3 93.5514 116.3C92.5811 116.291 91.801 115.512 91.801 114.554Z" fill="#EF3F28"/>
<path d="M80.1001 69.4421C80.1001 68.4834 80.8802 67.7052 81.8505 67.7052C82.8113 67.7052 83.5914 68.4834 83.5914 69.4421C83.5914 70.4007 82.8113 71.1884 81.8505 71.1884C80.8897 71.1884 80.1001 70.4007 80.1001 69.4421Z" fill="#EF3F28"/>
<path d="M80.1001 84.4761C80.1001 83.5175 80.8802 82.7392 81.8505 82.7392C82.8113 82.7392 83.5914 83.5175 83.5914 84.4761C83.5914 85.4347 82.8113 86.2225 81.8505 86.2225C80.8897 86.2225 80.1001 85.4442 80.1001 84.4761Z" fill="#EF3F28"/>
<path d="M80.1001 99.5196C80.1001 98.561 80.8802 97.7827 81.8505 97.7827C82.8113 97.7827 83.5914 98.561 83.5914 99.5196C83.5914 100.478 82.8113 101.266 81.8505 101.266C80.8897 101.257 80.1001 100.478 80.1001 99.5196Z" fill="#EF3F28"/>
<path d="M80.1001 114.554C80.1001 113.595 80.8802 112.817 81.8505 112.817C82.8113 112.817 83.5914 113.595 83.5914 114.554C83.5914 115.512 82.8113 116.3 81.8505 116.3C80.8897 116.291 80.1001 115.512 80.1001 114.554Z" fill="#EF3F28"/>
<path d="M68.4087 69.4421C68.4087 68.4834 69.1887 67.7052 70.1591 67.7052C71.1199 67.7052 71.8999 68.4834 71.8999 69.4421C71.8999 70.4007 71.1199 71.1884 70.1591 71.1884C69.1887 71.1884 68.4087 70.4007 68.4087 69.4421Z" fill="#EF3F28"/>
<path d="M68.4087 84.4761C68.4087 83.5175 69.1887 82.7392 70.1591 82.7392C71.1199 82.7392 71.8999 83.5175 71.8999 84.4761C71.8999 85.4347 71.1199 86.2225 70.1591 86.2225C69.1887 86.2225 68.4087 85.4442 68.4087 84.4761Z" fill="#EF3F28"/>
<path d="M68.4087 99.5196C68.4087 98.561 69.1887 97.7827 70.1591 97.7827C71.1199 97.7827 71.8999 98.561 71.8999 99.5196C71.8999 100.478 71.1199 101.266 70.1591 101.266C69.1887 101.257 68.4087 100.478 68.4087 99.5196Z" fill="#EF3F28"/>
<path d="M68.4087 114.554C68.4087 113.595 69.1887 112.817 70.1591 112.817C71.1199 112.817 71.8999 113.595 71.8999 114.554C71.8999 115.512 71.1199 116.3 70.1591 116.3C69.1887 116.291 68.4087 115.512 68.4087 114.554Z" fill="#EF3F28"/>
<path d="M56.7173 69.4421C56.7173 68.4834 57.4973 67.7052 58.4677 67.7052C59.4285 67.7052 60.2085 68.4834 60.2085 69.4421C60.2085 70.4007 59.4285 71.1884 58.4677 71.1884C57.4973 71.1884 56.7173 70.4007 56.7173 69.4421Z" fill="#EF3F28"/>
<path d="M56.7173 84.4761C56.7173 83.5175 57.4973 82.7392 58.4677 82.7392C59.4285 82.7392 60.2085 83.5175 60.2085 84.4761C60.2085 85.4347 59.4285 86.2225 58.4677 86.2225C57.4973 86.2225 56.7173 85.4442 56.7173 84.4761Z" fill="#EF3F28"/>
<path d="M56.7173 99.5196C56.7173 98.561 57.4973 97.7827 58.4677 97.7827C59.4285 97.7827 60.2085 98.561 60.2085 99.5196C60.2085 100.478 59.4285 101.266 58.4677 101.266C57.4973 101.257 56.7173 100.478 56.7173 99.5196Z" fill="#EF3F28"/>
<path d="M56.7173 114.554C56.7173 113.595 57.4973 112.817 58.4677 112.817C59.4285 112.817 60.2085 113.595 60.2085 114.554C60.2085 115.512 59.4285 116.3 58.4677 116.3C57.4973 116.291 56.7173 115.512 56.7173 114.554Z" fill="#EF3F28"/>
</g>
</svg>
