<svg width="40" height="50" viewBox="0 0 40 50" fill="none" xmlns="http://www.w3.org/2000/svg">
<g opacity="0.1">
<path d="M35.801 2.44206C35.801 1.48345 36.5811 0.70517 37.5514 0.70517C38.5122 0.70517 39.2923 1.48345 39.2923 2.44206C39.2923 3.40067 38.5122 4.18843 37.5514 4.18843C36.5811 4.18843 35.801 3.40067 35.801 2.44206Z" fill="#EF3F28"/>
<path d="M35.801 17.4761C35.801 16.5175 36.5811 15.7392 37.5514 15.7392C38.5122 15.7392 39.2923 16.5175 39.2923 17.4761C39.2923 18.4347 38.5122 19.2225 37.5514 19.2225C36.5811 19.2225 35.801 18.4442 35.801 17.4761Z" fill="#EF3F28"/>
<path d="M35.801 32.5196C35.801 31.561 36.5811 30.7827 37.5514 30.7827C38.5122 30.7827 39.2923 31.561 39.2923 32.5196C39.2923 33.4782 38.5122 34.266 37.5514 34.266C36.5811 34.2565 35.801 33.4782 35.801 32.5196Z" fill="#EF3F28"/>
<path d="M35.801 47.5537C35.801 46.5951 36.5811 45.8168 37.5514 45.8168C38.5122 45.8168 39.2923 46.5951 39.2923 47.5537C39.2923 48.5123 38.5122 49.3001 37.5514 49.3001C36.5811 49.2906 35.801 48.5123 35.801 47.5537Z" fill="#EF3F28"/>
<path d="M24.1001 2.44206C24.1001 1.48345 24.8802 0.70517 25.8505 0.70517C26.8113 0.70517 27.5914 1.48345 27.5914 2.44206C27.5914 3.40067 26.8113 4.18843 25.8505 4.18843C24.8897 4.18843 24.1001 3.40067 24.1001 2.44206Z" fill="#EF3F28"/>
<path d="M24.1001 17.4761C24.1001 16.5175 24.8802 15.7392 25.8505 15.7392C26.8113 15.7392 27.5914 16.5175 27.5914 17.4761C27.5914 18.4347 26.8113 19.2225 25.8505 19.2225C24.8897 19.2225 24.1001 18.4442 24.1001 17.4761Z" fill="#EF3F28"/>
<path d="M24.1001 32.5196C24.1001 31.561 24.8802 30.7827 25.8505 30.7827C26.8113 30.7827 27.5914 31.561 27.5914 32.5196C27.5914 33.4782 26.8113 34.266 25.8505 34.266C24.8897 34.2565 24.1001 33.4782 24.1001 32.5196Z" fill="#EF3F28"/>
<path d="M24.1001 47.5537C24.1001 46.5951 24.8802 45.8168 25.8505 45.8168C26.8113 45.8168 27.5914 46.5951 27.5914 47.5537C27.5914 48.5123 26.8113 49.3001 25.8505 49.3001C24.8897 49.2906 24.1001 48.5123 24.1001 47.5537Z" fill="#EF3F28"/>
<path d="M12.4087 2.44206C12.4087 1.48345 13.1887 0.70517 14.1591 0.70517C15.1199 0.70517 15.8999 1.48345 15.8999 2.44206C15.8999 3.40067 15.1199 4.18843 14.1591 4.18843C13.1887 4.18843 12.4087 3.40067 12.4087 2.44206Z" fill="#EF3F28"/>
<path d="M12.4087 17.4761C12.4087 16.5175 13.1887 15.7392 14.1591 15.7392C15.1199 15.7392 15.8999 16.5175 15.8999 17.4761C15.8999 18.4347 15.1199 19.2225 14.1591 19.2225C13.1887 19.2225 12.4087 18.4442 12.4087 17.4761Z" fill="#EF3F28"/>
<path d="M12.4087 32.5196C12.4087 31.561 13.1887 30.7827 14.1591 30.7827C15.1199 30.7827 15.8999 31.561 15.8999 32.5196C15.8999 33.4782 15.1199 34.266 14.1591 34.266C13.1887 34.2565 12.4087 33.4782 12.4087 32.5196Z" fill="#EF3F28"/>
<path d="M12.4087 47.5537C12.4087 46.5951 13.1887 45.8168 14.1591 45.8168C15.1199 45.8168 15.8999 46.5951 15.8999 47.5537C15.8999 48.5123 15.1199 49.3001 14.1591 49.3001C13.1887 49.2906 12.4087 48.5123 12.4087 47.5537Z" fill="#EF3F28"/>
<path d="M0.717285 2.44206C0.717285 1.48345 1.49735 0.70517 2.46767 0.70517C3.42847 0.70517 4.20854 1.48345 4.20854 2.44206C4.20854 3.40067 3.42847 4.18843 2.46767 4.18843C1.49735 4.18843 0.717285 3.40067 0.717285 2.44206Z" fill="#EF3F28"/>
<path d="M0.717285 17.4761C0.717285 16.5175 1.49735 15.7392 2.46767 15.7392C3.42847 15.7392 4.20854 16.5175 4.20854 17.4761C4.20854 18.4347 3.42847 19.2225 2.46767 19.2225C1.49735 19.2225 0.717285 18.4442 0.717285 17.4761Z" fill="#EF3F28"/>
<path d="M0.717285 32.5196C0.717285 31.561 1.49735 30.7827 2.46767 30.7827C3.42847 30.7827 4.20854 31.561 4.20854 32.5196C4.20854 33.4782 3.42847 34.266 2.46767 34.266C1.49735 34.2565 0.717285 33.4782 0.717285 32.5196Z" fill="#EF3F28"/>
<path d="M0.717285 47.5537C0.717285 46.5951 1.49735 45.8168 2.46767 45.8168C3.42847 45.8168 4.20854 46.5951 4.20854 47.5537C4.20854 48.5123 3.42847 49.3001 2.46767 49.3001C1.49735 49.2906 0.717285 48.5123 0.717285 47.5537Z" fill="#EF3F28"/>
</g>
</svg>
