<svg width="120" height="29" viewBox="0 0 120 29" fill="none" xmlns="http://www.w3.org/2000/svg">
<g clip-path="url(#clip0_214_2326)">
<path fill-rule="evenodd" clip-rule="evenodd" d="M5.82098 28.7838C6.88858 24.4436 7.94015 20.0816 8.97572 15.698L10.0567 21.2318C16.3343 16.829 23.1953 13.3547 30.4343 10.9129C21.5969 15.9136 13.3406 21.9082 5.82098 28.7838Z" fill="#18A87C"/>
<path fill-rule="evenodd" clip-rule="evenodd" d="M19.1766 10.2863L26.8072 10.8641L22.0511 12.8905L17.5512 12.5568L15.037 6.30688L12.5229 12.5568L5.90111 13.0532L7.51852 14.4448L6.89397 17.0326L0 11.1001L10.9054 10.2863L15.037 0L19.1766 10.2863Z" fill="#313131"/>
<path fill-rule="evenodd" clip-rule="evenodd" d="M24.1569 28.792L21.8909 22.6478L19.0885 24.7311L24.1569 28.792Z" fill="#313131"/>
<path fill-rule="evenodd" clip-rule="evenodd" d="M18.2638 20.5889L22.6596 22.3792L18.6081 25.3821L18.2638 20.5889Z" fill="#313131"/>
<path fill-rule="evenodd" clip-rule="evenodd" d="M34.8061 26.8144V13.688C36.9829 12.7712 39.3119 12.2851 41.668 12.2557V14.6971C40.2188 14.7212 38.7778 14.9234 37.3763 15.2993V26.8388L34.8061 26.8144ZM43.6137 19.8158C43.6137 14.7812 45.6849 12.2611 49.8271 12.2557C50.6676 12.2189 51.5059 12.3679 52.2842 12.6924C53.0625 13.017 53.7622 13.5094 54.335 14.1356C55.5062 15.5326 56.1077 17.3318 56.0165 19.1648C56.0165 19.8484 56.0165 20.4994 55.9364 21.126H46.256C46.5683 23.5674 47.8574 24.8288 50.2595 24.8288C51.9425 24.8799 53.6119 24.5081 55.1197 23.7464V26.139C53.5558 26.7797 51.8814 27.0952 50.1954 27.0667H50.1154C49.3416 27.0721 48.5709 26.9681 47.8254 26.7575C47.0934 26.5284 46.4054 26.1733 45.7916 25.7077C45.0527 25.1347 44.4958 24.3537 44.1902 23.4616C43.7862 22.2911 43.5936 21.056 43.6217 19.8158H43.6137ZM46.2 18.7742H53.4062C53.3771 18.3107 53.2965 17.8521 53.166 17.407C53.0325 16.9461 52.8443 16.5034 52.6055 16.0887C52.3477 15.6299 51.9674 15.2547 51.5086 15.0063C50.9781 14.7338 50.3893 14.5996 49.7951 14.6157C49.319 14.5744 48.8397 14.6356 48.3885 14.7955C47.9373 14.9554 47.5244 15.2102 47.1768 15.5434C46.511 16.4931 46.1579 17.6325 46.1679 18.7986L46.2 18.7742ZM57.5698 12.4917H60.3242L64.3277 23.6569L68.3311 12.4917H71.0855L65.6088 26.8144H62.9585L57.6019 12.4917H57.5698ZM72.9992 19.8158C72.9992 14.7812 75.0703 12.2611 79.2126 12.2557C80.0531 12.2189 80.8914 12.3679 81.6697 12.6924C82.448 13.017 83.1477 13.5094 83.7205 14.1356C84.8917 15.5326 85.4932 17.3318 85.4019 19.1648C85.4019 19.8484 85.4019 20.4994 85.3219 21.126H75.6415C75.9538 23.5674 77.2829 24.8288 79.645 24.8288C81.328 24.8799 82.9974 24.5081 84.5052 23.7464V26.139C82.9438 26.7788 81.2722 27.0943 79.5889 27.0667H79.5008C78.7271 27.0721 77.9564 26.9681 77.2108 26.7575C76.4788 26.5284 75.7909 26.1733 75.1771 25.7077C74.4502 25.1317 73.907 24.3503 73.6157 23.4616C73.2047 22.2927 73.0093 21.0568 73.0392 19.8158H72.9992ZM75.5854 18.7742H82.7917C82.7626 18.3107 82.682 17.8521 82.5515 17.407C82.4179 16.9461 82.2297 16.5034 81.991 16.0887C81.7332 15.6299 81.3528 15.2547 80.894 15.0063C80.3635 14.7338 79.7747 14.5996 79.1805 14.6157C78.7057 14.574 78.2275 14.6351 77.7775 14.795C77.3276 14.9549 76.9161 15.21 76.5703 15.5434C75.8981 16.4903 75.5418 17.631 75.5534 18.7986L75.5854 18.7742ZM87.3156 12.4917H89.9419L93.3288 23.071L96.4355 12.4917H98.8376L101.984 23.071L104.931 12.4917H107.557L103.113 26.8144H100.711L97.5084 16.5281L94.3057 26.8144H91.7114L87.2756 12.4917H87.3156ZM110.247 16.5607C110.236 15.9962 110.341 15.4355 110.555 14.9143C110.768 14.3931 111.086 13.9228 111.489 13.5334C112.547 12.6284 113.913 12.1814 115.292 12.2883C116.602 12.2983 117.891 12.6217 119.055 13.2322V15.4946C117.979 14.9731 116.804 14.6954 115.612 14.6808C113.747 14.6808 112.818 15.2911 112.818 16.5118C112.835 16.7323 112.913 16.9433 113.044 17.1205C113.174 17.2976 113.351 17.4336 113.554 17.5128C114.128 17.8067 114.728 18.0412 115.348 18.2127C116.06 18.4138 116.76 18.6556 117.446 18.9369C118.163 19.2354 118.784 19.7314 119.239 20.3692C119.752 21.093 120.016 21.9679 119.992 22.8594C119.997 23.422 119.886 23.9795 119.665 24.4956C119.445 25.0116 119.119 25.4745 118.711 25.8541C117.862 26.6951 116.544 27.1128 114.755 27.1074C113.34 27.1301 111.942 26.7826 110.696 26.0983V23.7057C111.883 24.3958 113.228 24.7577 114.595 24.7555H114.643C115.365 24.8002 116.084 24.6275 116.709 24.2591C116.925 24.127 117.103 23.941 117.228 23.7187C117.353 23.4965 117.42 23.2455 117.422 22.9896C117.429 22.7083 117.364 22.43 117.233 22.1818C117.103 21.9336 116.911 21.7241 116.677 21.5736C116.132 21.1961 115.524 20.9205 114.883 20.7598C114.179 20.5645 113.466 20.3366 112.77 20.0925C112.075 19.848 111.456 19.4213 110.976 18.8555C110.451 18.2028 110.195 17.3684 110.263 16.5281L110.247 16.5607Z" fill="#313131"/>
</g>
<defs>
<clipPath id="clip0_214_2326">
<rect width="120" height="28.7838" fill="white"/>
</clipPath>
</defs>
</svg>
