<svg width="120" height="29" viewBox="0 0 120 29" fill="none" xmlns="http://www.w3.org/2000/svg">
<g clip-path="url(#clip0_1384_21)">
<path fill-rule="evenodd" clip-rule="evenodd" d="M5.8208 28.7838C6.88839 24.4436 7.93997 20.0816 8.97553 15.698L10.0565 21.2318C16.3341 16.829 23.1952 13.3547 30.4341 10.9129C21.5967 15.9136 13.3404 21.9082 5.8208 28.7838Z" fill="#18A87C"/>
<path fill-rule="evenodd" clip-rule="evenodd" d="M19.1766 10.2863L26.8072 10.8641L22.0511 12.8905L17.5512 12.5568L15.037 6.30688L12.5229 12.5568L5.90111 13.0532L7.51852 14.4448L6.89397 17.0326L0 11.1001L10.9054 10.2863L15.037 0L19.1766 10.2863Z" fill="#313131"/>
<path fill-rule="evenodd" clip-rule="evenodd" d="M24.1568 28.792L21.8908 22.6478L19.0884 24.7311L24.1568 28.792Z" fill="#313131"/>
<path fill-rule="evenodd" clip-rule="evenodd" d="M18.2637 20.5889L22.6595 22.3792L18.608 25.3821L18.2637 20.5889Z" fill="#313131"/>
<path fill-rule="evenodd" clip-rule="evenodd" d="M34.8062 24.8144V11.688C36.983 10.7712 39.312 10.2851 41.6681 10.2557V12.6971C40.2189 12.7212 38.7778 12.9234 37.3764 13.2993V24.8388L34.8062 24.8144ZM43.6138 17.8158C43.6138 12.7812 45.6849 10.2611 49.8272 10.2557C50.6677 10.2189 51.506 10.3679 52.2843 10.6924C53.0626 11.017 53.7623 11.5094 54.3351 12.1356C55.5063 13.5326 56.1078 15.3318 56.0165 17.1648C56.0165 17.8484 56.0165 18.4994 55.9365 19.126H46.2561C46.5683 21.5674 47.8575 22.8288 50.2595 22.8288C51.9426 22.8799 53.612 22.5081 55.1198 21.7464V24.139C53.5559 24.7797 51.8814 25.0952 50.1955 25.0667H50.1154C49.3417 25.0721 48.5709 24.9681 47.8254 24.7575C47.0934 24.5284 46.4055 24.1733 45.7917 23.7077C45.0528 23.1347 44.4959 22.3537 44.1903 21.4616C43.7862 20.2911 43.5936 19.056 43.6218 17.8158H43.6138ZM46.2 16.7742H53.4063C53.3772 16.3107 53.2966 15.8521 53.1661 15.407C53.0325 14.9461 52.8443 14.5034 52.6056 14.0887C52.3477 13.6299 51.9674 13.2547 51.5086 13.0063C50.9781 12.7338 50.3893 12.5996 49.7951 12.6157C49.3191 12.5744 48.8398 12.6356 48.3886 12.7955C47.9374 12.9554 47.5245 13.2102 47.1769 13.5434C46.5111 14.4931 46.1579 15.6325 46.168 16.7986L46.2 16.7742ZM57.5699 10.4917H60.3243L64.3277 21.6569L68.3312 10.4917H71.0856L65.6089 24.8144H62.9586L57.6019 10.4917H57.5699ZM72.9993 17.8158C72.9993 12.7812 75.0704 10.2611 79.2126 10.2557C80.0531 10.2189 80.8915 10.3679 81.6697 10.6924C82.448 11.017 83.1477 11.5094 83.7205 12.1356C84.8917 13.5326 85.4933 15.3318 85.402 17.1648C85.402 17.8484 85.402 18.4994 85.3219 19.126H75.6415C75.9538 21.5674 77.283 22.8288 79.645 22.8288C81.328 22.8799 82.9975 22.5081 84.5052 21.7464V24.139C82.9439 24.7788 81.2722 25.0943 79.589 25.0667H79.5009C78.7271 25.0721 77.9564 24.9681 77.2109 24.7575C76.4789 24.5284 75.791 24.1733 75.1771 23.7077C74.4503 23.1317 73.9071 22.3503 73.6158 21.4616C73.2048 20.2927 73.0094 19.0568 73.0393 17.8158H72.9993ZM75.5855 16.7742H82.7917C82.7626 16.3107 82.6821 15.8521 82.5515 15.407C82.418 14.9461 82.2298 14.5034 81.9911 14.0887C81.7332 13.6299 81.3529 13.2547 80.8941 13.0063C80.3636 12.7338 79.7748 12.5996 79.1806 12.6157C78.7057 12.574 78.2275 12.6351 77.7776 12.795C77.3276 12.9549 76.9162 13.21 76.5704 13.5434C75.8982 14.4903 75.5418 15.631 75.5535 16.7986L75.5855 16.7742ZM87.3157 10.4917H89.9419L93.3289 21.071L96.4356 10.4917H98.8377L101.984 21.071L104.931 10.4917H107.557L103.113 24.8144H100.711L97.5085 14.5281L94.3057 24.8144H91.7115L87.2756 10.4917H87.3157ZM110.248 14.5607C110.236 13.9962 110.341 13.4355 110.555 12.9143C110.768 12.3931 111.086 11.9228 111.489 11.5334C112.547 10.6284 113.913 10.1814 115.292 10.2883C116.602 10.2983 117.891 10.6217 119.055 11.2322V13.4946C117.979 12.9731 116.804 12.6954 115.612 12.6808C113.747 12.6808 112.818 13.2911 112.818 14.5118C112.835 14.7323 112.913 14.9433 113.044 15.1205C113.174 15.2976 113.351 15.4336 113.554 15.5128C114.128 15.8067 114.728 16.0412 115.348 16.2127C116.06 16.4138 116.76 16.6556 117.446 16.9369C118.163 17.2354 118.784 17.7314 119.239 18.3692C119.752 19.093 120.016 19.9679 119.992 20.8594C119.997 21.422 119.886 21.9795 119.665 22.4956C119.445 23.0116 119.119 23.4745 118.711 23.8541C117.862 24.6951 116.544 25.1128 114.755 25.1074C113.34 25.1301 111.942 24.7826 110.696 24.0983V21.7057C111.883 22.3958 113.228 22.7577 114.595 22.7555H114.643C115.365 22.8002 116.084 22.6275 116.709 22.2591C116.925 22.127 117.103 21.941 117.228 21.7187C117.353 21.4965 117.42 21.2455 117.422 20.9896C117.429 20.7083 117.364 20.43 117.233 20.1818C117.103 19.9336 116.911 19.7241 116.677 19.5736C116.132 19.1961 115.524 18.9205 114.884 18.7598C114.179 18.5645 113.466 18.3366 112.77 18.0925C112.075 17.848 111.456 17.4213 110.976 16.8555C110.451 16.2028 110.196 15.3684 110.264 14.5281L110.248 14.5607Z" fill="#313131"/>
</g>
<defs>
<clipPath id="clip0_1384_21">
<rect width="120" height="28.7838" fill="white"/>
</clipPath>
</defs>
</svg>
