<svg width="50" height="50" viewBox="0 0 50 50" fill="none" xmlns="http://www.w3.org/2000/svg">
<path d="M36.7928 33.45H13.7209C13.462 33.45 13.2531 33.2411 13.2531 32.9822V26.3572C13.2531 26.0984 13.462 25.8894 13.7209 25.8894H36.7928C37.0517 25.8894 37.2606 26.0984 37.2606 26.3572V32.9822C37.2606 33.2411 37.0517 33.45 36.7928 33.45ZM14.1919 32.5143H36.328V26.8251H14.1919V32.5143Z" fill="#202020"/>
<path d="M21.9366 28.5281H16.0727V30.8113H21.9366V28.5281Z" fill="white"/>
<path d="M34.4441 28.5281H28.5802V30.8113H34.4441V28.5281Z" fill="white"/>
<path d="M21.9366 31.2791H16.0727C15.8138 31.2791 15.6049 31.0702 15.6049 30.8113V28.5281C15.6049 28.2692 15.8138 28.0602 16.0727 28.0602H21.9366C22.1955 28.0602 22.4045 28.2692 22.4045 28.5281V30.8113C22.4045 31.0702 22.1955 31.2791 21.9366 31.2791ZM16.5406 30.3434H21.4687V28.996H16.5406V30.3434Z" fill="#202020"/>
<path d="M34.4441 31.2791H28.5802C28.3214 31.2791 28.1124 31.0702 28.1124 30.8113V28.5281C28.1124 28.2692 28.3214 28.0602 28.5802 28.0602H34.4441C34.703 28.0602 34.912 28.2692 34.912 28.5281V30.8113C34.912 31.0702 34.703 31.2791 34.4441 31.2791ZM29.0481 30.3434H33.9763V28.996H29.0481V30.3434Z" fill="#202020"/>
<path d="M34.8496 41.7437H15.6703C15.4115 41.7437 15.2025 41.5347 15.2025 41.2758V32.9822C15.2025 32.7233 15.4115 32.5143 15.6703 32.5143H34.8496C35.1085 32.5143 35.3175 32.7233 35.3175 32.9822V41.2758C35.3175 41.5347 35.1054 41.7437 34.8496 41.7437ZM16.1382 40.8079H34.3817V33.45H16.1382V40.8079Z" fill="#202020"/>
<path d="M34.8496 32.9822H33.2464V41.2758H34.8496V32.9822Z" fill="white"/>
<path d="M17.2736 32.9822H15.6703V41.2758H17.2736V32.9822Z" fill="white"/>
<path d="M34.8496 41.5877H33.2464C33.0749 41.5877 32.9345 41.4473 32.9345 41.2758V32.9822C32.9345 32.8106 33.0749 32.6703 33.2464 32.6703H34.8496C35.0212 32.6703 35.1615 32.8106 35.1615 32.9822V41.2758C35.1615 41.4473 35.0212 41.5877 34.8496 41.5877ZM33.5583 40.9639H34.5377V33.2941H33.5583V40.9639Z" fill="#202020"/>
<path d="M25.2584 35.465C25.0869 35.465 24.9465 35.3246 24.9465 35.153V32.9822C24.9465 32.8106 25.0869 32.6703 25.2584 32.6703C25.43 32.6703 25.5703 32.8106 25.5703 32.9822V35.153C25.5703 35.3246 25.43 35.465 25.2584 35.465Z" fill="#202020"/>
<path d="M25.2584 41.5877C25.0869 41.5877 24.9465 41.4473 24.9465 41.2758V39.4823C24.9465 39.3108 25.0869 39.1704 25.2584 39.1704C25.43 39.1704 25.5703 39.3108 25.5703 39.4823V41.2758C25.5703 41.4473 25.43 41.5877 25.2584 41.5877Z" fill="#202020"/>
<path d="M18.5025 34.8536C18.2249 34.8536 17.9972 34.629 17.9972 34.3483C17.9972 34.0707 18.2218 33.843 18.5025 33.843C18.7832 33.843 19.0078 34.0676 19.0078 34.3483C19.0047 34.629 18.7801 34.8536 18.5025 34.8536ZM18.5025 34.1581C18.3964 34.1581 18.3091 34.2454 18.3091 34.3514C18.3091 34.4575 18.3964 34.5448 18.5025 34.5448C18.6085 34.5448 18.6959 34.4575 18.6959 34.3514C18.6927 34.2454 18.6085 34.1581 18.5025 34.1581Z" fill="#202020"/>
<path d="M18.5025 40.4118C18.2249 40.4118 17.9972 40.1873 17.9972 39.9065C17.9972 39.629 18.2218 39.4013 18.5025 39.4013C18.7832 39.4013 19.0078 39.6258 19.0078 39.9065C19.0047 40.1841 18.7801 40.4118 18.5025 40.4118ZM18.5025 39.7163C18.3964 39.7163 18.3091 39.8036 18.3091 39.9097C18.3091 40.0157 18.3964 40.1031 18.5025 40.1031C18.6085 40.1031 18.6959 40.0157 18.6959 39.9097C18.6927 39.8005 18.6085 39.7163 18.5025 39.7163Z" fill="#202020"/>
<path d="M32.0144 34.8536C31.7368 34.8536 31.5091 34.629 31.5091 34.3483C31.5091 34.0707 31.7336 33.843 32.0144 33.843C32.292 33.843 32.5196 34.0676 32.5196 34.3483C32.5196 34.629 32.2951 34.8536 32.0144 34.8536ZM32.0144 34.1581C31.9083 34.1581 31.821 34.2454 31.821 34.3514C31.821 34.4575 31.9083 34.5448 32.0144 34.5448C32.1204 34.5448 32.2077 34.4575 32.2077 34.3514C32.2077 34.2454 32.1204 34.1581 32.0144 34.1581Z" fill="#202020"/>
<path d="M32.0143 40.4118C31.7367 40.4118 31.509 40.1873 31.509 39.9065C31.509 39.629 31.7336 39.4013 32.0143 39.4013C32.2919 39.4013 32.5196 39.6258 32.5196 39.9065C32.5196 40.1841 32.2951 40.4118 32.0143 40.4118ZM32.0143 39.7163C31.9083 39.7163 31.821 39.8036 31.821 39.9097C31.821 40.0157 31.9083 40.1031 32.0143 40.1031C32.1204 40.1031 32.2077 40.0157 32.2077 39.9097C32.2077 39.8005 32.1204 39.7163 32.0143 39.7163Z" fill="#202020"/>
<path d="M33.2464 24.8601C33.0904 24.8601 32.9563 24.7447 32.9376 24.5856C32.4666 20.6711 28.8672 19.514 28.7144 19.4672C28.549 19.4173 28.4586 19.2426 28.5085 19.0773C28.5584 18.912 28.7331 18.8215 28.8984 18.8714C28.9389 18.8839 33.0374 20.1908 33.5583 24.5139C33.5801 24.6854 33.4554 24.8414 33.2869 24.8601C33.2713 24.8601 33.2589 24.8601 33.2464 24.8601Z" fill="#18A87C"/>
<path d="M34.8496 26.8251H15.6703C15.4115 26.8251 15.2025 26.6161 15.2025 26.3572C15.2025 23.3099 16.1039 20.8864 17.8849 19.1584C20.7825 16.345 24.9403 16.3824 25.2584 16.3887C25.5766 16.3793 29.7374 16.345 32.6319 19.1584C34.4129 20.8864 35.3143 23.3099 35.3143 26.3572C35.3174 26.6161 35.1054 26.8251 34.8496 26.8251ZM16.1444 25.8894H34.3724C34.285 23.3286 33.4834 21.295 31.9863 19.8352C29.3257 17.2464 25.3114 17.3213 25.2709 17.3244C25.2615 17.3244 25.2522 17.3244 25.2459 17.3244C25.2085 17.3244 21.1911 17.2464 18.5305 19.8352C17.0334 21.295 16.2318 23.3286 16.1444 25.8894Z" fill="#202020"/>
<path d="M25.2584 16.8565C25.2584 16.8565 26.1661 16.8315 27.423 17.078V15.3094H23.0938V17.078C24.3508 16.8315 25.2584 16.8565 25.2584 16.8565Z" fill="#5E5E5E"/>
<path d="M27.423 17.5489C27.3919 17.5489 27.3638 17.5458 27.3326 17.5396C26.1411 17.3057 25.2802 17.3244 25.2709 17.3244C25.2615 17.3244 25.2522 17.3244 25.2459 17.3244C25.2366 17.3244 24.3663 17.3057 23.1842 17.5396C23.047 17.5677 22.9035 17.5302 22.7975 17.4429C22.6883 17.3556 22.6259 17.2214 22.6259 17.0811V15.3126C22.6259 15.0537 22.8349 14.8447 23.0938 14.8447H27.423C27.6819 14.8447 27.8909 15.0537 27.8909 15.3126V17.0811C27.8909 17.2214 27.8285 17.3524 27.7194 17.4429C27.6383 17.5115 27.5322 17.5489 27.423 17.5489ZM23.5616 15.7773V16.5228C24.4973 16.3793 25.1555 16.3855 25.2584 16.3886C25.3613 16.3855 26.0195 16.3793 26.9552 16.5228V15.7773H23.5616Z" fill="#202020"/>
<path d="M28.7078 12.5738C29.1555 10.6671 27.9728 8.75845 26.0661 8.31071C24.1593 7.86297 22.2507 9.0457 21.8029 10.9524C21.3552 12.8591 22.5379 14.7678 24.4447 15.2155C26.3514 15.6633 28.26 14.4805 28.7078 12.5738Z" fill="#18A87C"/>
<path d="M25.2584 15.7773C23.0439 15.7773 21.2442 13.9776 21.2442 11.763C21.2442 9.54849 23.0439 7.74878 25.2584 7.74878C27.473 7.74878 29.2727 9.54849 29.2727 11.763C29.2727 13.9776 27.473 15.7773 25.2584 15.7773ZM25.2584 8.6845C23.5616 8.6845 22.1799 10.0663 22.1799 11.763C22.1799 13.4598 23.5616 14.8416 25.2584 14.8416C26.9552 14.8416 28.337 13.4598 28.337 11.763C28.337 10.0663 26.9552 8.6845 25.2584 8.6845Z" fill="#202020"/>
<path d="M17.2705 41.5877H15.6673C15.4957 41.5877 15.3553 41.4473 15.3553 41.2758V32.9822C15.3553 32.8106 15.4957 32.6703 15.6673 32.6703H17.2705C17.442 32.6703 17.5824 32.8106 17.5824 32.9822V41.2758C17.5824 41.4473 17.4451 41.5877 17.2705 41.5877ZM15.9823 40.9639H16.9617V33.2941H15.9823V40.9639Z" fill="#202020"/>
<path d="M33.2464 21.0641C33.0998 21.0641 32.9532 20.9924 32.8627 20.8614C32.7161 20.6493 32.7692 20.3561 32.9813 20.2095L37.8501 16.8315V14.0244C37.8501 13.7655 38.0591 13.5565 38.318 13.5565C38.5769 13.5565 38.7859 13.7655 38.7859 14.0244V17.0748C38.7859 17.2277 38.711 17.3711 38.5862 17.4585L33.5177 20.9768C33.4304 21.0361 33.34 21.0641 33.2464 21.0641Z" fill="#202020"/>
<path d="M39.9774 12.3681C39.9774 13.2852 39.2319 14.0306 38.3149 14.0306C37.3979 14.0306 36.6524 13.2852 36.6524 12.3681C36.6524 11.4511 37.3979 10.7057 38.3149 10.7057C39.2319 10.7057 39.9774 11.448 39.9774 12.3681Z" fill="#18A87C"/>
<path d="M38.3149 14.4954C37.1421 14.4954 36.1846 13.5409 36.1846 12.365C36.1846 11.1891 37.139 10.2347 38.3149 10.2347C39.4908 10.2347 40.4452 11.1891 40.4452 12.365C40.4452 13.5409 39.4908 14.4954 38.3149 14.4954ZM38.3149 11.1735C37.6568 11.1735 37.1203 11.71 37.1203 12.3681C37.1203 13.0263 37.6568 13.5628 38.3149 13.5628C38.973 13.5628 39.5095 13.0263 39.5095 12.3681C39.5095 11.71 38.973 11.1735 38.3149 11.1735Z" fill="#202020"/>
<path d="M44.7932 26.5101C45.7114 26.5101 46.4557 25.7657 46.4557 24.8476C46.4557 23.9294 45.7114 23.1851 44.7932 23.1851C43.8751 23.1851 43.1308 23.9294 43.1308 24.8476C43.1308 25.7657 43.8751 26.5101 44.7932 26.5101Z" fill="#18A87C"/>
<path d="M44.7932 26.9779C43.6205 26.9779 42.6629 26.0235 42.6629 24.8476C42.6629 23.6717 43.6173 22.7173 44.7932 22.7173C45.9691 22.7173 46.9236 23.6717 46.9236 24.8476C46.9236 26.0235 45.9691 26.9779 44.7932 26.9779ZM44.7932 23.653C44.1351 23.653 43.5986 24.1895 43.5986 24.8476C43.5986 25.5057 44.1351 26.0422 44.7932 26.0422C45.4514 26.0422 45.9878 25.5057 45.9878 24.8476C45.9878 24.1895 45.4514 23.653 44.7932 23.653Z" fill="#202020"/>
<path d="M17.2767 21.0641C17.1862 21.0641 17.0927 21.0361 17.0116 20.9799L11.943 17.4616C11.8183 17.3743 11.7403 17.2308 11.7403 17.078V14.0275C11.7403 13.7686 11.9493 13.5596 12.2082 13.5596C12.4671 13.5596 12.676 13.7686 12.676 14.0275V16.8347L17.5449 20.2126C17.757 20.3592 17.81 20.6524 17.6634 20.8645C17.5699 20.9955 17.4233 21.0641 17.2767 21.0641Z" fill="#202020"/>
<path d="M10.5457 12.3681C10.5457 13.2852 11.2912 14.0306 12.2082 14.0306C13.1252 14.0306 13.8707 13.2852 13.8707 12.3681C13.8707 11.4511 13.1252 10.7057 12.2082 10.7057C11.2912 10.7057 10.5457 11.448 10.5457 12.3681Z" fill="#18A87C"/>
<path d="M12.2051 14.4954C11.0323 14.4954 10.0747 13.5409 10.0747 12.365C10.0747 11.1891 11.0292 10.2347 12.2051 10.2347C13.3809 10.2347 14.3354 11.1891 14.3354 12.365C14.3354 13.5409 13.3809 14.4954 12.2051 14.4954ZM12.2051 11.1735C11.5469 11.1735 11.0104 11.71 11.0104 12.3681C11.0104 13.0263 11.5469 13.5628 12.2051 13.5628C12.8632 13.5628 13.3997 13.0263 13.3997 12.3681C13.3997 11.71 12.8632 11.1735 12.2051 11.1735Z" fill="#202020"/>
<path d="M7.6824 41.8559C8.60055 41.8559 9.34487 41.1116 9.34487 40.1935C9.34487 39.2753 8.60055 38.531 7.6824 38.531C6.76424 38.531 6.01993 39.2753 6.01993 40.1935C6.01993 41.1116 6.76424 41.8559 7.6824 41.8559Z" fill="#18A87C"/>
<path d="M7.68238 42.3238C6.5096 42.3238 5.55205 41.3694 5.55205 40.1935C5.55205 39.0176 6.50648 38.0631 7.68238 38.0631C8.85827 38.0631 9.81271 39.0176 9.81271 40.1935C9.81271 41.3694 8.85827 42.3238 7.68238 42.3238ZM7.68238 38.9989C7.02425 38.9989 6.48777 39.5353 6.48777 40.1935C6.48777 40.8516 7.02425 41.3881 7.68238 41.3881C8.3405 41.3881 8.87699 40.8516 8.87699 40.1935C8.87699 39.5353 8.3405 38.9989 7.68238 38.9989Z" fill="#202020"/>
<path d="M7.68239 38.9989C7.4235 38.9989 7.21452 38.7899 7.21452 38.531V34.0021C7.21452 33.8524 7.28626 33.7089 7.41103 33.6216L13.4527 29.2892C13.6617 29.1363 13.9549 29.1862 14.1046 29.3952C14.2543 29.6042 14.2075 29.8974 13.9985 30.0471L8.15337 34.2391V38.5279C8.15025 38.7899 7.94127 38.9989 7.68239 38.9989Z" fill="#202020"/>
<path d="M42.8344 41.8559C43.7526 41.8559 44.4969 41.1116 44.4969 40.1935C44.4969 39.2753 43.7526 38.531 42.8344 38.531C41.9163 38.531 41.172 39.2753 41.172 40.1935C41.172 41.1116 41.9163 41.8559 42.8344 41.8559Z" fill="#18A87C"/>
<path d="M42.8344 42.3238C41.6617 42.3238 40.7041 41.3694 40.7041 40.1935C40.7041 39.0176 41.6585 38.0631 42.8344 38.0631C44.0103 38.0631 44.9648 39.0176 44.9648 40.1935C44.9648 41.3694 44.0103 42.3238 42.8344 42.3238ZM42.8344 38.9989C42.1763 38.9989 41.6398 39.5353 41.6398 40.1935C41.6398 40.8516 42.1763 41.3881 42.8344 41.3881C43.4926 41.3881 44.029 40.8516 44.029 40.1935C44.029 39.5353 43.4926 38.9989 42.8344 38.9989Z" fill="#202020"/>
<path d="M42.8345 38.9989C42.5756 38.9989 42.3666 38.7899 42.3666 38.531V34.2423L36.5214 30.0502C36.3125 29.9005 36.2625 29.6073 36.4154 29.3983C36.5651 29.1894 36.8583 29.1395 37.0673 29.2923L43.1089 33.6247C43.2306 33.712 43.3054 33.8555 43.3054 34.0052V38.5341C43.3023 38.7899 43.0933 38.9989 42.8345 38.9989Z" fill="#202020"/>
<path d="M43.1339 25.3155H34.7654C34.5065 25.3155 34.2975 25.1065 34.2975 24.8476C34.2975 24.5887 34.5065 24.3797 34.7654 24.3797H43.1339C43.3928 24.3797 43.6018 24.5887 43.6018 24.8476C43.6018 25.1065 43.3897 25.3155 43.1339 25.3155Z" fill="#202020"/>
<path d="M5.70176 26.5101C6.61992 26.5101 7.36423 25.7657 7.36423 24.8476C7.36423 23.9294 6.61992 23.1851 5.70176 23.1851C4.7836 23.1851 4.03929 23.9294 4.03929 24.8476C4.03929 25.7657 4.7836 26.5101 5.70176 26.5101Z" fill="#18A87C"/>
<path d="M5.70177 26.9779C4.529 26.9779 3.57144 26.0235 3.57144 24.8476C3.57144 23.6717 4.52588 22.7173 5.70177 22.7173C6.87767 22.7173 7.83211 23.6717 7.83211 24.8476C7.83211 26.0235 6.87767 26.9779 5.70177 26.9779ZM5.70177 23.653C5.04365 23.653 4.50717 24.1895 4.50717 24.8476C4.50717 25.5057 5.04365 26.0422 5.70177 26.0422C6.3599 26.0422 6.89638 25.5057 6.89638 24.8476C6.89638 24.1895 6.3599 23.653 5.70177 23.653Z" fill="#202020"/>
<path d="M15.7327 25.3155H7.36424C7.10536 25.3155 6.89638 25.1065 6.89638 24.8476C6.89638 24.5887 7.10536 24.3797 7.36424 24.3797H15.7327C15.9916 24.3797 16.2006 24.5887 16.2006 24.8476C16.2006 25.1065 15.9916 25.3155 15.7327 25.3155Z" fill="#202020"/>
</svg>
